<svg width="141" height="59" viewBox="0 0 141 59" fill="none" xmlns="http://www.w3.org/2000/svg">
<rect width="140.945" height="58.0363" rx="4.14545" fill="#E7E7E7"/>
<path d="M24.3593 43.2536L16.5019 38.5789L19.3239 36.897L25.7664 40.7347C26.0035 40.8768 26.296 40.8768 26.5332 40.7347L33.0547 36.8496L35.8767 38.5316L27.9402 43.2536C26.8335 43.9169 25.466 43.9169 24.3593 43.2536Z" fill="black"/>
<path d="M32.7305 33.2805L26.2169 29.4033L19.7033 33.2805V36.6128L26.2643 32.7119L32.7305 36.5575V33.2805Z" fill="black"/>
<path d="M39.4338 22.936V32.2933L36.6118 30.6113V22.936C36.6118 22.6517 36.4616 22.3911 36.2245 22.249L29.7029 18.3639V15L37.6394 19.7221C38.7461 20.3854 39.4338 21.6093 39.4338 22.936Z" fill="black"/>
<path d="M26.8651 20.4407V28.1951L33.3787 32.0722L36.177 30.4061L29.6239 26.5052V18.8062L26.8651 20.4407Z" fill="black"/>
<path d="M13 22.936V32.2933L15.822 30.6113V22.936C15.822 22.6517 15.9643 22.3911 16.2094 22.249L22.7309 18.3639V15L14.7944 19.73C13.6798 20.3854 13 21.6093 13 22.936Z" fill="black"/>
<path d="M25.5608 20.4407V28.1951L19.0472 32.0722L16.2489 30.4061L22.8099 26.5052V18.8062L25.5608 20.4407Z" fill="black"/>
<path d="M61.6223 27.9581C61.6223 28.5899 61.5353 29.1031 61.3614 29.49C61.1875 29.8612 60.8634 30.1534 60.3812 30.3587C59.9069 30.5561 59.2429 30.6824 58.3892 30.7456C57.5513 30.8088 56.1284 30.8403 54.7767 30.8403H53.3775C52.1918 30.8403 51.2274 30.8009 50.5002 30.7219C49.7729 30.6429 49.2117 30.485 48.8085 30.2402C48.4054 29.9954 48.1366 29.648 48.0022 29.1979C47.8757 28.7478 47.8125 28.1555 47.8125 27.4133V26.9079H50.761V27.3343C50.761 27.6028 50.7847 27.816 50.8401 27.9739C50.8875 28.1319 51.0061 28.2424 51.1958 28.3214C51.3855 28.3845 51.6543 28.4319 52.0021 28.4556C52.3657 28.4714 52.8558 28.4714 53.4645 28.4714H54.7055C55.4802 28.4714 56.4209 28.4635 56.8873 28.4556C57.3537 28.4319 57.7015 28.3845 57.9386 28.3214C58.1916 28.2582 58.3497 28.1634 58.4287 28.0292C58.4999 27.8871 58.5394 27.7054 58.5394 27.4843V27.2948C58.5394 27.0895 58.5078 26.9237 58.4445 26.8131C58.3971 26.6868 58.3023 26.5841 58.16 26.521C58.0256 26.4578 57.8359 26.4183 57.5987 26.4025C57.3774 26.3867 57.0849 26.3867 56.7371 26.3867H54.0099V24.1362H56.7529C57.3537 24.1362 57.7647 24.0731 57.9702 23.9467C58.1837 23.8204 58.2864 23.5598 58.2864 23.1729V22.9597C58.2864 22.7702 58.239 22.6043 58.1521 22.478C58.0809 22.3516 57.9228 22.249 57.6857 22.1858C57.4643 22.1226 57.1244 22.0753 56.6897 22.0516C56.2628 22.0279 55.3854 22.0121 54.6976 22.0121H53.4724C52.8558 22.0121 52.3657 22.02 52.01 22.0279C51.6622 22.0437 51.3934 22.0832 51.2037 22.1621C51.014 22.2411 50.8954 22.3516 50.848 22.5096C50.8005 22.6675 50.7689 22.8807 50.7689 23.1492V23.4966H47.8757V23.0702C47.8757 22.3358 47.939 21.7436 48.0655 21.2856C48.1919 20.8355 48.4449 20.4802 48.8322 20.2354C49.2354 19.9906 49.7887 19.8248 50.5081 19.7537C51.2353 19.6747 52.1918 19.6353 53.3854 19.6353H54.7846C56.0968 19.6353 57.4881 19.6668 58.3023 19.73C59.1323 19.7932 59.7647 19.9274 60.2152 20.1406C60.6816 20.3301 60.9899 20.6223 61.1401 20.9934C61.3061 21.3567 61.3851 21.8305 61.3851 22.4306V22.6833C61.3851 23.1492 61.3535 23.5282 61.2903 23.8283C61.2429 24.1126 61.1401 24.3416 60.9899 24.5232C60.8555 24.689 60.6579 24.8232 60.4049 24.9338C60.1678 25.0206 59.8674 25.1075 59.5038 25.1865V25.2417C59.8832 25.3049 60.1994 25.3839 60.4603 25.4707C60.7211 25.5497 60.9425 25.6682 61.1164 25.8419C61.2903 26.0077 61.4168 26.2288 61.4958 26.4973C61.5828 26.7658 61.6302 27.1132 61.6302 27.5238L61.6223 27.9581Z" fill="black"/>
<path d="M73.8753 30.6587H63.3935V19.73H66.5554V28.116H73.8753V30.6587Z" fill="black"/>
<path d="M81.8985 30.8399C80.8867 30.8399 80.3254 30.8163 79.5903 30.761C78.863 30.7215 78.2465 30.6346 77.7326 30.5083C77.2188 30.3662 76.7999 30.1687 76.4758 29.924C76.1675 29.6792 75.9224 29.3554 75.7406 28.9527C75.5667 28.55 75.4481 28.0604 75.3849 27.476C75.3217 26.8917 75.29 26.1968 75.29 25.3835V25.0755C75.29 24.2622 75.3217 23.5673 75.3849 22.983C75.4481 22.3986 75.5667 21.909 75.7406 21.5063C75.9145 21.0957 76.1596 20.764 76.4758 20.5193C76.7999 20.2745 77.2188 20.0849 77.7326 19.9586C78.2465 19.8323 78.863 19.7454 79.5903 19.7059C80.3333 19.6506 80.8867 19.627 81.8985 19.627H82.3649C83.3767 19.627 83.9301 19.6506 84.6573 19.7059C85.3925 19.7454 86.0248 19.8323 86.5387 19.9586C87.0525 20.0849 87.4635 20.2745 87.7797 20.5193C88.1038 20.764 88.3568 21.0957 88.5307 21.5063C88.7046 21.909 88.8232 22.3986 88.8864 22.983C88.9496 23.5673 88.9813 24.2622 88.9813 25.0755V25.3835C88.9813 26.1968 88.9496 26.8917 88.8864 27.476C88.8232 28.0604 88.7046 28.5579 88.5307 28.9685C88.3568 29.3712 88.1038 29.695 87.7797 29.9397C87.4635 30.1845 87.0525 30.3741 86.5387 30.5004C86.0248 30.6267 85.4004 30.7136 84.6573 30.7531C83.9301 30.8084 83.3846 30.832 82.3649 30.832H81.8985V30.8399ZM82.2463 28.3052C83.1633 28.3052 83.5506 28.2815 84.0644 28.2262C84.5941 28.1709 84.9814 28.0525 85.2264 27.8551C85.4873 27.6498 85.6454 27.3418 85.6928 26.947C85.7561 26.5443 85.7877 26.0073 85.7877 25.3203V25.1466C85.7877 24.4517 85.7561 23.8989 85.6928 23.4962C85.6454 23.0856 85.4873 22.7776 85.2264 22.5881C84.9735 22.3828 84.5862 22.2565 84.0644 22.2012C83.5506 22.1459 83.1554 22.1222 82.2463 22.1222H82.0092C81.0843 22.1222 80.6812 22.1459 80.1673 22.2012C79.6535 22.2565 79.2662 22.3828 79.0053 22.5881C78.7524 22.7855 78.5943 23.0856 78.5389 23.4962C78.4915 23.8989 78.4678 24.4438 78.4678 25.1466V25.3203C78.4678 26.0073 78.4915 26.5443 78.5389 26.947C78.6022 27.3497 78.7603 27.6498 79.0053 27.8551C79.2662 28.0446 79.6535 28.1709 80.1673 28.2262C80.6812 28.2815 81.0764 28.3052 82.0092 28.3052H82.2463Z" fill="black"/>
<path d="M97.6924 30.8403C96.1905 30.8403 94.9889 30.7851 94.0878 30.6666C93.1866 30.5403 92.491 30.2797 92.0009 29.8928C91.5266 29.5058 91.2104 28.9531 91.0602 28.2424C90.91 27.5159 90.8389 26.5684 90.8389 25.3918V25.0838C90.8389 24.2942 90.8705 23.6072 90.9337 23.0307C90.997 22.4464 91.1155 21.9568 91.2894 21.5541C91.4792 21.1514 91.7242 20.8276 92.0404 20.5828C92.3566 20.3222 92.7598 20.1248 93.2578 19.9827C93.7716 19.8406 94.3881 19.7537 95.1154 19.7142C95.8426 19.6589 96.6964 19.6353 97.6924 19.6353H98.4908C99.7397 19.6353 100.759 19.6826 101.534 19.7695C102.325 19.8643 102.941 20.038 103.376 20.2907C103.827 20.5355 104.135 20.8908 104.293 21.3567C104.459 21.8068 104.538 22.399 104.538 23.1176V23.2124H101.471C101.471 22.8412 101.242 22.5175 100.91 22.3832C100.68 22.2806 100.364 22.2095 99.9532 22.17C99.55 22.1147 99.0283 22.0911 98.3722 22.0911H97.803C96.9019 22.0911 96.1905 22.1147 95.6766 22.17C95.1628 22.2253 94.7834 22.3516 94.5304 22.5569C94.2775 22.7623 94.1194 23.0781 94.0641 23.4887C94.0008 23.8915 93.9692 24.4363 93.9692 25.1391V25.3365C93.9692 26.0235 94.0008 26.5605 94.0641 26.9632C94.1273 27.3501 94.2854 27.6502 94.5304 27.8555C94.7834 28.0608 95.1628 28.195 95.6766 28.2424C96.1905 28.2977 96.894 28.3214 97.803 28.3214H98.3722C99.0995 28.3214 99.6765 28.3056 100.103 28.2661C100.538 28.2266 100.87 28.1555 101.099 28.0529C101.329 27.9344 101.471 27.7844 101.534 27.6028C101.597 27.4212 101.629 27.1843 101.629 26.8842V26.592H99.0441L99.0599 24.46H104.649V26.9C104.649 27.6976 104.57 28.353 104.404 28.8583C104.238 29.3637 103.937 29.7664 103.479 30.0586C103.028 30.3587 102.404 30.564 101.597 30.6745C100.799 30.7772 99.7556 30.8325 98.4829 30.8325H97.6924V30.8403Z" fill="black"/>
<path d="M110.222 30.6587H107.044V19.73H110.222V30.6587Z" fill="black"/>
<path d="M119.17 30.8403C117.708 30.8403 116.522 30.7851 115.621 30.6666C114.72 30.5482 114.016 30.3034 113.518 29.9323C113.028 29.5453 112.704 28.9926 112.538 28.2819C112.372 27.5554 112.293 26.5999 112.293 25.3918V25.0838C112.293 23.8915 112.364 22.9439 112.514 22.2332C112.68 21.5067 113.004 20.9619 113.495 20.5828C113.985 20.1959 114.68 19.9432 115.581 19.8248C116.483 19.6984 117.676 19.6353 119.17 19.6353H119.969C121.273 19.6353 122.316 19.6905 123.107 19.7932C123.905 19.8958 124.522 20.0854 124.949 20.3538C125.376 20.6223 125.652 21.0013 125.794 21.4751C125.929 21.941 126 22.5412 126 23.2755V23.544H122.941C122.941 23.2834 122.917 23.0623 122.862 22.8886C122.814 22.707 122.68 22.5569 122.467 22.4385C122.269 22.3201 121.961 22.2411 121.55 22.1858C121.146 22.1305 120.585 22.1068 119.858 22.1068H119.289C118.403 22.1068 117.7 22.1305 117.186 22.1858C116.688 22.2411 116.301 22.3674 116.04 22.5727C115.787 22.7623 115.629 23.0623 115.573 23.465C115.51 23.8678 115.479 24.4205 115.479 25.1312V25.3207C115.479 26.0156 115.51 26.5684 115.573 26.9711C115.637 27.358 115.795 27.6502 116.04 27.8397C116.301 28.0371 116.688 28.1555 117.186 28.2108C117.7 28.2661 118.403 28.2898 119.289 28.2898H119.747C120.498 28.2898 121.083 28.274 121.51 28.2345C121.937 28.1792 122.253 28.1003 122.467 27.9818C122.775 27.816 122.957 27.4449 122.957 27.0974V26.8447H126V27.1685C126 27.8634 125.929 28.4556 125.794 28.9294C125.652 29.3953 125.368 29.7664 124.933 30.0507C124.498 30.335 123.866 30.5324 123.051 30.6508C122.253 30.7693 121.186 30.8246 119.858 30.8246H119.17V30.8403Z" fill="black"/>
<path d="M51.41 40.853C50.6274 40.853 50.0029 40.8215 49.5286 40.7662C49.0544 40.703 48.6986 40.5688 48.4378 40.3714C48.1927 40.1739 48.0267 39.8897 47.9477 39.5264C47.8686 39.1553 47.8291 38.6657 47.8291 38.0656V37.9077C47.8291 37.5049 47.8449 37.1496 47.8765 36.8574C47.9082 36.5574 47.9714 36.3047 48.0662 36.0994C48.1611 35.8941 48.2955 35.7282 48.4615 35.6019C48.6275 35.4676 48.8409 35.365 49.0939 35.2939C49.3626 35.2229 49.6867 35.1755 50.0662 35.1518C50.4456 35.1281 50.8883 35.1123 51.41 35.1123H51.829C52.4772 35.1123 53.0068 35.136 53.4178 35.1834C53.8289 35.2308 54.1451 35.3176 54.3743 35.4519C54.6115 35.5782 54.7696 35.7598 54.8565 35.9967C54.9435 36.2257 54.983 36.5337 54.983 36.9048V36.9522H53.3862C53.3862 36.7627 53.2676 36.5968 53.0937 36.5258C52.9752 36.4705 52.8092 36.4389 52.5957 36.4152C52.3902 36.3915 52.1135 36.3757 51.7736 36.3757H51.4653C50.999 36.3757 50.6274 36.3915 50.3587 36.4152C50.0899 36.4389 49.8923 36.51 49.7658 36.6126C49.6314 36.7153 49.5524 36.8811 49.5207 37.0943C49.4891 37.2996 49.4733 37.5839 49.4733 37.9392V38.0419C49.4733 38.3893 49.4891 38.6736 49.5207 38.8789C49.5524 39.0763 49.6393 39.2264 49.7658 39.3369C49.9002 39.4396 50.0978 39.5106 50.3587 39.5343C50.6274 39.558 50.991 39.5738 51.4653 39.5738H51.7657C52.1452 39.5738 52.4455 39.5659 52.6669 39.5422C52.8961 39.5264 53.07 39.4869 53.1886 39.4317C53.3072 39.3685 53.3783 39.2974 53.4099 39.2027C53.4416 39.1079 53.4574 38.9895 53.4574 38.8315V38.6815H52.1135L52.1214 37.5839H55.0304V38.8394C55.0304 39.2501 54.9909 39.5817 54.904 39.8423C54.817 40.1029 54.6589 40.3082 54.4218 40.4582C54.1846 40.6082 53.8605 40.7188 53.4416 40.7741C53.0226 40.8294 52.4851 40.853 51.8211 40.853H51.41Z" fill="black"/>
<path d="M60.5324 38.0026C60.8169 38.0026 61.0383 37.9947 61.2043 37.9868C61.3782 37.971 61.5047 37.9316 61.5837 37.8763C61.6786 37.821 61.7339 37.7499 61.7576 37.6473C61.7813 37.5446 61.7971 37.4183 61.7971 37.2604V37.1577C61.7971 36.9998 61.7813 36.8734 61.7576 36.7787C61.7339 36.676 61.6707 36.605 61.5837 36.5497C61.4968 36.4865 61.3703 36.4549 61.2043 36.4391C61.0383 36.4233 60.809 36.4075 60.5324 36.4075H58.1372V38.0026H60.5324ZM63.4572 40.7901H61.8288V40.3321C61.8288 40.0873 61.813 39.8899 61.7734 39.7478C61.7418 39.6056 61.6628 39.4951 61.5521 39.4161C61.4335 39.3371 61.2596 39.2898 61.0304 39.2661C60.809 39.2424 60.5086 39.2266 60.1292 39.2266H58.1372V40.7901H56.5088V35.1836H61.1885C61.647 35.1836 62.0185 35.2152 62.311 35.2705C62.6034 35.3257 62.8327 35.4126 63.0066 35.5468C63.1726 35.6811 63.2912 35.8548 63.3544 36.0759C63.4176 36.2891 63.4493 36.5576 63.4493 36.8813V37.0787C63.4493 37.5131 63.3781 37.8526 63.2279 38.0816C63.0856 38.3106 62.8327 38.4685 62.4849 38.5633V38.5949C62.6825 38.6265 62.8406 38.6738 62.9671 38.7212C63.1014 38.7686 63.1963 38.8397 63.2674 38.9423C63.3386 39.045 63.386 39.1713 63.4097 39.3292C63.4334 39.4872 63.4493 39.6925 63.4493 39.9373L63.4572 40.7901Z" fill="black"/>
<path d="M68.1203 40.8531C67.5906 40.8531 67.3061 40.8373 66.9266 40.8136C66.5472 40.7978 66.2231 40.7505 65.9543 40.6873C65.6856 40.6162 65.4642 40.5136 65.2982 40.3872C65.1322 40.2609 65.0057 40.0951 64.9188 39.8898C64.8239 39.6844 64.7686 39.4318 64.7291 39.1317C64.6974 38.8316 64.6816 38.4763 64.6816 38.0578V37.8998C64.6816 37.4813 64.6974 37.126 64.7291 36.8259C64.7607 36.5259 64.8239 36.2732 64.9188 36.0679C65.0136 35.8547 65.1401 35.6888 65.2982 35.5625C65.4721 35.4361 65.6856 35.3414 65.9543 35.2703C66.2231 35.1993 66.5472 35.1598 66.9266 35.144C67.314 35.1203 67.5906 35.1045 68.1203 35.1045H68.3732C68.9028 35.1045 69.1795 35.1203 69.5589 35.144C69.9463 35.1598 70.2704 35.2071 70.5391 35.2703C70.8079 35.3335 71.0213 35.4361 71.1873 35.5625C71.3612 35.6888 71.4877 35.8547 71.5747 36.0679C71.6695 36.2732 71.7249 36.5259 71.7644 36.8259C71.796 37.126 71.8118 37.4813 71.8118 37.8998V38.0578C71.8118 38.4763 71.796 38.8316 71.7644 39.1317C71.7328 39.4318 71.6695 39.6844 71.5747 39.8976C71.4798 40.103 71.3533 40.2688 71.1873 40.3951C71.0213 40.5215 70.8079 40.6162 70.5391 40.6873C70.2704 40.7505 69.9463 40.7978 69.5589 40.8136C69.1795 40.8373 68.9028 40.8531 68.3732 40.8531H68.1203ZM68.31 39.5502C68.7843 39.5502 68.9819 39.5344 69.2506 39.5107C69.5273 39.487 69.7249 39.4239 69.8593 39.3212C69.9937 39.2186 70.0807 39.0606 70.1044 38.8553C70.136 38.65 70.1518 38.3736 70.1518 38.0183V37.9314C70.1518 37.5761 70.136 37.2918 70.1044 37.0865C70.0807 36.8733 69.9937 36.7154 69.8593 36.6206C69.7249 36.518 69.5273 36.4469 69.2506 36.4232C68.9819 36.3995 68.7843 36.3837 68.31 36.3837H68.1756C67.6934 36.3837 67.4879 36.3995 67.227 36.4232C66.9582 36.4469 66.7606 36.518 66.6183 36.6206C66.4839 36.7233 66.4049 36.8733 66.3733 37.0865C66.3496 37.2918 66.3338 37.5761 66.3338 37.9314V38.0183C66.3338 38.3657 66.3496 38.65 66.3733 38.8553C66.4049 39.0606 66.4839 39.2186 66.6183 39.3212C66.7527 39.4239 66.9582 39.487 67.227 39.5107C67.4958 39.5344 67.6934 39.5502 68.1756 39.5502H68.31Z" fill="black"/>
<path d="M76.5156 40.8529C75.8358 40.8529 75.2824 40.8293 74.8398 40.774C74.4129 40.7108 74.073 40.6081 73.82 40.4581C73.575 40.3002 73.4011 40.087 73.2983 39.8185C73.2035 39.55 73.1639 39.2105 73.1639 38.792V35.1754H74.8082V38.2629C74.8082 38.5472 74.824 38.7762 74.8556 38.9499C74.8951 39.1236 74.9742 39.2579 75.0927 39.3447C75.2113 39.4316 75.3773 39.4869 75.5986 39.5105C75.8279 39.5342 76.1362 39.55 76.5156 39.55H76.8239C77.2112 39.55 77.5195 39.5342 77.7409 39.5105C77.9701 39.479 78.144 39.4158 78.2626 39.3289C78.3811 39.2342 78.4523 39.1078 78.4839 38.942C78.5155 38.7683 78.5313 38.5393 78.5313 38.255V35.1675H80.1756V38.7841C80.1756 39.2026 80.1281 39.5421 80.0412 39.8106C79.9542 40.0791 79.7803 40.2923 79.5353 40.4502C79.2902 40.6003 78.9582 40.7108 78.5155 40.7661C78.0887 40.8214 77.5274 40.845 76.8397 40.845H76.5156V40.8529Z" fill="black"/>
<path d="M85.6773 38.0811C85.9856 38.0811 86.2227 38.0732 86.4045 38.0495C86.5864 38.0258 86.7128 37.9942 86.8077 37.939C86.9025 37.8758 86.9579 37.7968 86.9737 37.7021C86.9974 37.5994 87.0132 37.4573 87.0132 37.2836V37.2125C87.0132 37.0388 86.9974 36.9045 86.9737 36.794C86.9579 36.6913 86.9025 36.6124 86.8077 36.5571C86.7128 36.4939 86.5864 36.4544 86.4045 36.4386C86.2306 36.4229 85.9856 36.4071 85.6773 36.4071H83.2584V38.0811H85.6773ZM83.2584 40.7896H81.63V35.1831H85.9619C86.4994 35.1831 86.95 35.2068 87.2899 35.2621C87.6377 35.3173 87.9065 35.4121 88.1041 35.5621C88.3017 35.7043 88.4361 35.9017 88.5072 36.1702C88.5863 36.4307 88.6258 36.7703 88.6258 37.1809V37.3309C88.6258 37.7495 88.5863 38.089 88.5072 38.3575C88.4361 38.6181 88.3017 38.8155 88.1041 38.9655C87.9065 39.1077 87.6377 39.2103 87.2899 39.2656C86.9421 39.3209 86.4994 39.3445 85.9619 39.3445H83.2584V40.7896Z" fill="black"/>
</svg>
