<svg width="142" height="59" viewBox="0 0 142 59" fill="none" xmlns="http://www.w3.org/2000/svg">
<rect x="0.462891" width="140.945" height="58.0363" rx="4.14545" fill="#E7E7E7"/>
<path d="M82.3865 30.1888C82.0243 25.6975 85.254 22.9447 86.9141 22.1297C82.3865 16.2438 75.6857 17.9643 73.6936 19.1415C71.7014 20.3187 70.162 19.6848 68.9849 19.1415C67.8077 18.5982 62.4651 16.8777 58.1186 20.4092C50.0595 27.1101 55.4926 40.6929 59.5675 45.4016C62.8273 49.1685 65.5741 48.7822 66.5399 48.1181C73.1502 45.6732 72.6975 47.0315 77.4062 48.3898C82.2809 49.7959 86.5519 41.7493 88.0007 37.8858C86.2803 37.1915 82.7488 34.6802 82.3865 30.1888Z" fill="black"/>
<path d="M70.7971 18.6891C70.4349 16.0932 71.5215 10.5213 78.7656 9C79.6712 13.3465 75.868 18.6891 70.7971 18.6891Z" fill="black"/>
</svg>
