<svg width="43" height="55" viewBox="0 0 43 55" fill="none" xmlns="http://www.w3.org/2000/svg">
<path fill-rule="evenodd" clip-rule="evenodd" d="M14.1806 1.00001C14.0589 0.999547 13.9384 1.02293 13.8259 1.0688C13.7134 1.11468 13.6112 1.18214 13.5252 1.26729C13.4391 1.35245 13.371 1.45362 13.3246 1.56497C13.2783 1.67631 13.2547 1.79564 13.2551 1.91607V3.76959H5.62085C3.11313 3.76959 1.05469 5.78233 1.05469 8.25545V49.4516C1.05469 51.9247 3.11313 53.9393 5.62085 53.9393H37.3805C39.8882 53.9393 41.9467 51.9247 41.9467 49.4516V8.25545C41.9467 5.78233 39.8882 3.76958 37.3805 3.76959H29.7444V1.91607C29.7449 1.79564 29.7213 1.67632 29.6749 1.56497C29.6286 1.45362 29.5604 1.35245 29.4744 1.26729C29.3884 1.18214 29.2862 1.11468 29.1737 1.0688C29.0612 1.02293 28.9406 0.999549 28.819 1.00001H14.1806ZM15.1007 2.82501H27.9007V6.54451H15.1007V2.82501ZM5.62085 5.59459H13.2551V7.45345C13.2547 7.57388 13.2783 7.69321 13.3246 7.80455C13.371 7.9159 13.4391 8.01707 13.5252 8.10223C13.6112 8.18739 13.7134 8.25484 13.8259 8.30072C13.9384 8.34659 14.0589 8.36997 14.1806 8.36951H28.819C28.9406 8.36997 29.0612 8.34659 29.1737 8.30072C29.2862 8.25484 29.3884 8.18738 29.4744 8.10223C29.5604 8.01707 29.6286 7.9159 29.6749 7.80455C29.7213 7.6932 29.7449 7.57388 29.7444 7.45345V5.59459H37.3805C38.9076 5.59459 40.1029 6.77069 40.1029 8.25545V49.4516C40.1029 50.9364 38.9076 52.1125 37.3805 52.1125H5.62085C4.0938 52.1125 2.89844 50.9364 2.89844 49.4516V8.25545C2.89844 6.77069 4.0938 5.59459 5.62085 5.59459ZM16.813 14.7428C16.6916 14.7465 16.5722 14.7739 16.4616 14.8235C16.351 14.873 16.2513 14.9437 16.1684 15.0315L12.0794 19.3552L10.016 17.3074C9.84397 17.1366 9.6107 17.0402 9.36712 17.0392C9.12354 17.0382 8.88944 17.1326 8.71598 17.3019C8.62977 17.3863 8.56123 17.4867 8.51429 17.5974C8.46735 17.708 8.44293 17.8268 8.44243 17.9468C8.44193 18.0668 8.46535 18.1858 8.51137 18.2968C8.55738 18.4079 8.62508 18.5089 8.71058 18.594L11.4456 21.3083C11.5329 21.3953 11.637 21.4639 11.7518 21.5102C11.8665 21.5564 11.9894 21.5793 12.1133 21.5775C12.2372 21.5756 12.3594 21.5491 12.4727 21.4995C12.5859 21.4499 12.6879 21.3782 12.7726 21.2887L17.5152 16.2773C17.6818 16.1011 17.7711 15.8669 17.7637 15.6258C17.7563 15.3846 17.6527 15.1562 17.4756 14.9905C17.3871 14.908 17.283 14.8436 17.1693 14.8011C17.0556 14.7586 16.9345 14.7388 16.813 14.7428ZM23.5308 17.2468C23.4096 17.2463 23.2895 17.2695 23.1773 17.315C23.0652 17.3606 22.9632 17.4276 22.8772 17.5122C22.7913 17.5967 22.723 17.6973 22.6763 17.808C22.6297 17.9188 22.6056 18.0375 22.6053 18.1575C22.6048 18.2779 22.6285 18.3973 22.6748 18.5086C22.7211 18.62 22.7893 18.7211 22.8753 18.8063C22.9614 18.8915 23.0636 18.9589 23.1761 19.0048C23.2886 19.0507 23.4091 19.074 23.5308 19.0736H33.6372C33.7583 19.0731 33.8781 19.049 33.9897 19.0027C34.1014 18.9564 34.2027 18.8888 34.288 18.8038C34.3733 18.7187 34.4408 18.6179 34.4867 18.507C34.5326 18.3961 34.556 18.2773 34.5555 18.1575C34.555 17.9164 34.4582 17.6853 34.2861 17.5147C34.1141 17.344 33.8808 17.2477 33.6372 17.2468H23.5308ZM16.813 26.1401C16.6916 26.1438 16.5722 26.1713 16.4616 26.2208C16.351 26.2704 16.2513 26.341 16.1684 26.4288L12.0794 30.7525L10.016 28.7047C9.84397 28.534 9.6107 28.4376 9.36712 28.4365C9.12354 28.4355 8.88944 28.5299 8.71598 28.6992C8.62977 28.7836 8.56123 28.884 8.51429 28.9947C8.46735 29.1054 8.44293 29.2241 8.44243 29.3441C8.44193 29.4642 8.46536 29.5831 8.51137 29.6942C8.55738 29.8052 8.62508 29.9062 8.71058 29.9913L11.4456 32.7056C11.5329 32.7926 11.637 32.8613 11.7518 32.9075C11.8665 32.9538 11.9894 32.9766 12.1133 32.9748C12.2372 32.973 12.3594 32.9465 12.4727 32.8968C12.5859 32.8472 12.6879 32.7755 12.7726 32.686L17.5152 27.6746C17.6818 27.4985 17.7711 27.2642 17.7637 27.0231C17.7563 26.782 17.6527 26.5536 17.4756 26.3878C17.3871 26.3053 17.283 26.241 17.1693 26.1985C17.0556 26.1559 16.9345 26.1361 16.813 26.1401ZM23.5308 28.6441C23.4091 28.6436 23.2886 28.667 23.1761 28.7129C23.0636 28.7588 22.9614 28.8262 22.8753 28.9114C22.7893 28.9965 22.7211 29.0977 22.6748 29.2091C22.6285 29.3204 22.6048 29.4398 22.6053 29.5602C22.6056 29.6802 22.6297 29.7989 22.6763 29.9097C22.723 30.0204 22.7913 30.1209 22.8772 30.2055C22.9632 30.2901 23.0652 30.3571 23.1773 30.4026C23.2895 30.4482 23.4096 30.4714 23.5308 30.4709H33.6372C33.8808 30.47 34.1141 30.3736 34.2861 30.203C34.4582 30.0324 34.555 29.8013 34.5555 29.5602C34.556 29.4404 34.5326 29.3216 34.4867 29.2107C34.4408 29.0998 34.3733 28.999 34.288 28.9139C34.2027 28.8288 34.1014 28.7612 33.9897 28.7149C33.8781 28.6687 33.7583 28.6446 33.6372 28.6441H23.5308ZM16.813 37.5374C16.6916 37.5412 16.5722 37.5686 16.4616 37.6181C16.351 37.6677 16.2513 37.7384 16.1684 37.8262L12.0794 42.1498L10.016 40.1021C9.84323 39.9321 9.60955 39.8367 9.36597 39.8367C9.12239 39.8367 8.88871 39.9321 8.71598 40.1021C8.54351 40.2723 8.44614 40.5032 8.44513 40.7444C8.44412 40.9855 8.53955 41.2172 8.71058 41.3888L11.4456 44.1103C11.5329 44.1973 11.637 44.2659 11.7518 44.3122C11.8665 44.3584 11.9894 44.3813 12.1133 44.3795C12.2372 44.3776 12.3594 44.3511 12.4727 44.3015C12.5859 44.2519 12.6879 44.1802 12.7726 44.0906L17.5152 39.079C17.5988 38.9917 17.6641 38.8888 17.7073 38.7764C17.7506 38.664 17.771 38.5442 17.7673 38.4239C17.7636 38.3037 17.736 38.1853 17.6859 38.0757C17.6358 37.9661 17.5644 37.8673 17.4756 37.7852C17.3871 37.7027 17.283 37.6383 17.1693 37.5958C17.0556 37.5533 16.9345 37.5334 16.813 37.5374ZM23.5308 40.0486C23.4097 40.0481 23.2898 40.0713 23.1777 40.1167C23.0657 40.1621 22.9638 40.2289 22.8779 40.3133C22.7919 40.3977 22.7236 40.4981 22.6769 40.6086C22.6301 40.7191 22.6058 40.8377 22.6053 40.9575C22.6048 41.0779 22.6285 41.1973 22.6748 41.3086C22.7211 41.42 22.7893 41.5212 22.8753 41.6063C22.9614 41.6915 23.0636 41.7589 23.1761 41.8048C23.2886 41.8507 23.4091 41.8741 23.5308 41.8736H33.6372C33.7583 41.8731 33.8781 41.8491 33.9897 41.8028C34.1014 41.7565 34.2027 41.6889 34.288 41.6038C34.3733 41.5187 34.4408 41.4179 34.4867 41.307C34.5326 41.1961 34.556 41.0774 34.5555 40.9575C34.5545 40.7167 34.4575 40.4861 34.2855 40.3158C34.1135 40.1456 33.8805 40.0495 33.6372 40.0486H23.5308Z" fill="#0485FE" stroke="#0485FE" stroke-width="0.5"/>
</svg>
