<svg width="59" height="63" viewBox="0 0 59 63" fill="none" xmlns="http://www.w3.org/2000/svg">
<path d="M13.7703 43.7038V30.2591M16.7789 30.2591H12.9312C12.408 30.2591 11.984 29.835 11.984 29.3118V21.5223C11.984 20.9992 12.408 20.5751 12.9312 20.5751H15.8387M42.4462 30.2591H45.6246C46.2059 30.2591 46.6771 29.7879 46.6771 29.2066V27.9086M39.8137 35.6182C41.8194 32.4842 44.8719 24.3171 41.0359 16.7203C31.822 12.7715 23.4543 13.0535 18.7533 13.8997C17.6867 15.3793 16.406 18.861 16.031 22.9256M37.2752 38.5328C36.0529 40.2251 32.5742 42.7636 28.0613 41.9175C17.4505 38.7581 15.3814 29.9672 16.031 22.9256M46.6771 27.9086V21.6276C46.6771 21.0463 46.2059 20.5751 45.6246 20.5751H42.2582C45.3608 17.8485 45.5489 7.13031 43.8565 2.7114C41.506 2.99345 38.9675 3.08748 36.335 2.42935C33.7024 1.77121 26.0869 -0.767314 20.6337 3.08748C11.0061 3.01226 13.5538 16.2815 16.031 22.9256M46.6771 27.9086C46.7398 30.5411 45.4548 36.3877 40.7539 37.7806C36.6922 38.9841 35.144 37.5612 34.3606 36.9344M42.8223 45.4902L39.8137 41.4474L23.5483 56.3964L15.6507 45.3022M42.8223 45.4902L35.1127 55.9263L18.5653 41.1653L15.6507 45.3022M42.8223 45.4902C46.2383 45.7096 53.4841 46.8817 55.1388 49.8151C57.2073 53.4818 59.7458 60.9094 54.2927 61.0974C49.9302 61.2478 18.8787 61.1601 3.89829 61.0974C2.8014 61.0974 0.701631 60.2136 1.07771 56.6785C1.5478 52.2596 0.983755 47.6526 15.6507 45.3022" stroke="#0485FE" stroke-width="1.68685" stroke-linecap="round" stroke-linejoin="round"/>
<path d="M26.5582 53.7642C26.448 54.3371 26.5765 55.3223 27.5516 55.8828M32.1052 53.7642C32.1893 54.3526 32.0423 55.3273 31.165 55.8828M31.165 55.8828C30.7341 56.1557 30.1271 56.3275 29.2848 56.3027C28.5257 56.2804 27.9632 56.1194 27.5516 55.8828M31.165 55.8828L32.4813 61.2857M27.5516 55.8828L26.5582 61.2857" stroke="#0485FE" stroke-width="1.68685" stroke-linecap="round" stroke-linejoin="round"/>
<circle cx="32.1989" cy="34.8659" r="2.63254" stroke="#0485FE" stroke-width="1.68685" stroke-linejoin="round"/>
</svg>
