<svg width="42" height="51" viewBox="0 0 42 51" fill="none" xmlns="http://www.w3.org/2000/svg">
<path fill-rule="evenodd" clip-rule="evenodd" d="M20.8178 0C20.5569 0.000290855 20.3007 0.0699326 20.0755 0.201793C15.7156 2.7488 10.758 4.09211 5.70922 4.09484C4.36155 4.09484 3.01823 3.98029 1.68964 3.78395C1.48024 3.75267 1.26655 3.76693 1.06316 3.82575C0.859765 3.88457 0.671454 3.98658 0.511071 4.1248C0.350688 4.26303 0.222008 4.43422 0.13381 4.6267C0.0456114 4.81919 -2.97066e-05 5.02843 1.45063e-08 5.24016V29.3178C1.45063e-08 35.543 5.30399 40.559 10.2851 44.1439C15.2662 47.7294 20.2206 49.923 20.2206 49.923C20.4087 50.0064 20.6121 50.0495 20.8178 50.0495C21.0236 50.0495 21.227 50.0064 21.415 49.923C21.415 49.923 26.3694 47.7294 31.3506 44.1439C36.3317 40.559 41.6357 35.543 41.6357 29.3178V5.24016C41.6357 5.02848 41.5901 4.81929 41.5019 4.62685C41.4137 4.43442 41.2851 4.26325 41.1248 4.12504C40.9645 3.98682 40.7762 3.8848 40.5729 3.82594C40.3696 3.76708 40.1559 3.75275 39.9466 3.78395C38.6153 3.98029 37.2725 4.08939 35.927 4.09484C30.8782 4.0943 25.9206 2.7488 21.5601 0.201793C21.3349 0.0699317 21.0788 0.000289869 20.8178 0ZM20.8178 3.16222C25.4461 5.69995 30.6432 7.03781 35.9319 7.03781C36.8503 7.03236 37.7682 6.98329 38.6823 6.90145V29.3178C38.6823 33.7639 34.3132 38.3774 29.6216 41.7545C25.8939 44.4379 22.1901 46.2944 20.8086 46.9527C19.4271 46.2944 15.7233 44.4379 11.9955 41.7545C7.30397 38.3774 2.93479 33.7639 2.93479 29.3178V6.9009C3.84887 6.98814 4.76623 7.03181 5.68359 7.03727C10.9712 7.03509 16.1683 5.69941 20.7966 3.16167L20.8178 3.16222ZM30.4321 16.7448C30.2389 16.7508 30.0487 16.7949 29.8725 16.8744C29.6963 16.954 29.5375 17.0674 29.4051 17.2084L19.0398 28.2396L13.4413 22.1006C13.1786 21.8119 12.812 21.6394 12.4221 21.621C12.0323 21.6026 11.651 21.7398 11.3623 22.0024C11.0736 22.2651 10.9011 22.6317 10.8827 23.0216C10.8643 23.4115 11.0015 23.7927 11.2641 24.0814L17.9337 31.3958C18.0716 31.5447 18.2387 31.6635 18.4246 31.7448C18.6105 31.826 18.8113 31.868 19.0142 31.868C19.2171 31.868 19.4178 31.826 19.6037 31.7448C19.7897 31.6635 19.9568 31.5447 20.0946 31.3958L31.5485 19.2061C31.6809 19.0652 31.7843 18.8996 31.8526 18.7187C31.921 18.5378 31.9531 18.3452 31.947 18.152C31.9409 17.9587 31.8968 17.7685 31.8172 17.5923C31.7376 17.416 31.6241 17.2572 31.4831 17.1249C31.1985 16.8577 30.8195 16.7145 30.4294 16.7268L30.4321 16.7448Z" fill="#0485FE"/>
</svg>
