<svg width="54" height="73" viewBox="0 0 54 73" fill="none" xmlns="http://www.w3.org/2000/svg">
<path d="M24.2554 58.9C24.2554 60.3594 25.4385 61.5425 26.8979 61.5425C28.3574 61.5425 29.5405 60.3594 29.5405 58.9L24.2554 58.9ZM28.7665 12.9889C27.7345 11.9569 26.0614 11.9569 25.0294 12.9889L8.21228 29.806C7.1803 30.838 7.1803 32.5111 8.21228 33.5431C9.24426 34.5751 10.9174 34.5751 11.9494 33.5431L26.8979 18.5946L41.8465 33.5431C42.8785 34.5751 44.5516 34.5751 45.5836 33.5431C46.6156 32.5111 46.6156 30.838 45.5836 29.806L28.7665 12.9889ZM29.5405 58.9L29.5405 14.8574L24.2554 14.8574L24.2554 58.9L29.5405 58.9Z" fill="white"/>
</svg>
