<svg width="23" height="43" viewBox="0 0 23 43" fill="none" xmlns="http://www.w3.org/2000/svg">
<path d="M10.1135 40.9832C10.1135 41.8331 10.8025 42.522 11.6523 42.522C12.5022 42.522 13.1912 41.8331 13.1912 40.9832L10.1135 40.9832ZM12.7405 1.11697C12.1395 0.516026 11.1652 0.516026 10.5642 1.11697L0.771274 10.9099C0.170329 11.5109 0.170329 12.4852 0.771274 13.0861C1.37222 13.6871 2.34654 13.6871 2.94749 13.0861L11.6523 4.38129L20.3572 13.0861C20.9581 13.6871 21.9325 13.6871 22.5334 13.0861C23.1344 12.4852 23.1344 11.5109 22.5334 10.9099L12.7405 1.11697ZM13.1912 40.9832L13.1912 2.20508L10.1135 2.20508L10.1135 40.9832L13.1912 40.9832Z" fill="#0485FE"/>
</svg>
