<svg width="47" height="64" viewBox="0 0 47 64" fill="none" xmlns="http://www.w3.org/2000/svg">
<path d="M20.9373 51.1829C20.9373 52.4678 21.9789 53.5093 23.2637 53.5093C24.5485 53.5093 25.59 52.4678 25.59 51.1829L20.9373 51.1829ZM24.9087 10.7652C24.0002 9.85666 22.5272 9.85666 21.6187 10.7652L6.81377 25.5701C5.90527 26.4786 5.90527 27.9516 6.81377 28.8601C7.72227 29.7686 9.19525 29.7686 10.1038 28.8601L23.2637 15.7001L36.4236 28.8601C37.3321 29.7686 38.8051 29.7686 39.7136 28.8601C40.6221 27.9516 40.6221 26.4786 39.7136 25.5701L24.9087 10.7652ZM23.2637 51.1829L25.59 51.1829L25.59 12.4102L23.2637 12.4102L20.9373 12.4102L20.9373 51.1829L23.2637 51.1829Z" fill="white"/>
</svg>
