<svg width="62" height="61" viewBox="0 0 62 61" fill="none" xmlns="http://www.w3.org/2000/svg">
<path d="M5.42331 52.6941L13.5935 23.8553" stroke="#0485FE" stroke-width="2" stroke-linecap="round"/>
<path d="M26.2764 52.7581L26.3536 27.5375M44.1237 19.5213L44.7687 26.6216C44.862 27.6495 45.7222 28.4375 46.7543 28.4407L47.4445 28.4428M50.325 17.1863L50.0193 26.5101C49.9839 27.5909 49.0957 28.4479 48.0142 28.4445L47.4445 28.4428M47.4445 28.4428L47.4214 36.009M21.7161 11.2138L42.2926 3.56698C46.3083 2.07463 50.7775 4.08912 52.3187 8.0863V8.0863C53.8933 12.1698 51.8122 16.7508 47.7009 18.2514L26.861 25.8577" stroke="#0485FE" stroke-width="2" stroke-linecap="round"/>
<rect x="1.95898" y="52.6853" width="58.882" height="6.92729" rx="2" transform="rotate(0.175486 1.95898 52.6853)" stroke="#0485FE" stroke-width="2"/>
<rect x="43.5586" y="42.4209" width="6.92729" height="10.3909" rx="2" transform="rotate(0.175486 43.5586 42.4209)" stroke="#0485FE" stroke-width="2"/>
<circle cx="21.1125" cy="19.8382" r="4.04092" transform="rotate(0.175486 21.1125 19.8382)" stroke="#0485FE" stroke-width="2"/>
<circle cx="45.3892" cy="10.675" r="2.88637" transform="rotate(0.175486 45.3892 10.675)" stroke="#0485FE" stroke-width="2"/>
<circle cx="21.1072" cy="19.8389" r="8.65912" transform="rotate(0.175486 21.1072 19.8389)" stroke="#0485FE" stroke-width="2"/>
</svg>
