<svg width="59" height="59" viewBox="0 0 59 59" fill="none" xmlns="http://www.w3.org/2000/svg">
<path d="M30.8413 47.6023V42.2387L24.1367 35.5342V32.1819" stroke="#0485FE" stroke-width="3"/>
<path d="M26.8169 13.4091V18.7728L33.5215 25.4773V28.8296" stroke="#0485FE" stroke-width="3"/>
<rect x="10.7285" y="12.0681" width="36.2045" height="36.2045" rx="2" stroke="#0485FE" stroke-width="3"/>
<path d="M18.1035 48.2727V58.3295" stroke="#0485FE" stroke-width="3"/>
<path d="M18.1035 2.68188V12.7387" stroke="#0485FE" stroke-width="3"/>
<path d="M29.5 48.2727V58.3295" stroke="#0485FE" stroke-width="3"/>
<path d="M29.5 2.68188V12.7387" stroke="#0485FE" stroke-width="3"/>
<path d="M40.2285 48.2727V58.3295" stroke="#0485FE" stroke-width="3"/>
<path d="M40.2285 2.68188V12.7387" stroke="#0485FE" stroke-width="3"/>
<path d="M11.3965 19.4426L1.33967 19.4424" stroke="#0485FE" stroke-width="3"/>
<path d="M56.9883 19.4438L46.9315 19.4436" stroke="#0485FE" stroke-width="3"/>
<path d="M11.3965 30.8403L1.33967 30.8401" stroke="#0485FE" stroke-width="3"/>
<path d="M56.9883 30.8416L46.9315 30.8413" stroke="#0485FE" stroke-width="3"/>
<path d="M11.3965 41.5676L1.33967 41.5674" stroke="#0485FE" stroke-width="3"/>
<path d="M56.9863 41.5688L46.9295 41.5686" stroke="#0485FE" stroke-width="3"/>
<circle cx="24.136" cy="29.5" r="4.02273" fill="#0485FE"/>
<circle cx="33.5227" cy="32.1819" r="4.02273" fill="#0485FE"/>
</svg>
