<svg width="62" height="49" viewBox="0 0 62 49" fill="none" xmlns="http://www.w3.org/2000/svg">
<rect x="1.06836" y="21.0312" width="59.8741" height="4.46641" rx="0.491935" transform="rotate(0.175486 1.06836 21.0312)" stroke="#0485FE" stroke-width="2.09073"/>
<rect x="5.45312" y="8.01025" width="10.6228" height="4.3457" rx="0.491935" transform="rotate(0.175486 5.45312 8.01025)" stroke="#0485FE" stroke-width="2.09073"/>
<rect x="3.14648" y="12.3467" width="10.985" height="4.3457" rx="0.491935" transform="rotate(0.175486 3.14648 12.3467)" stroke="#0485FE" stroke-width="2.09073"/>
<rect x="3.13867" y="16.6946" width="12.9164" height="4.3457" rx="0.491935" transform="rotate(0.175486 3.13867 16.6946)" stroke="#0485FE" stroke-width="2.09073"/>
<rect x="21.2422" y="15.782" width="4.46641" height="5.31141" rx="0.491935" transform="rotate(0.175486 21.2422 15.782)" stroke="#0485FE" stroke-width="2.09073"/>
<rect x="29.7402" y="1.80664" width="21.6078" height="15.4514" rx="3.0746" transform="rotate(0.175486 29.7402 1.80664)" stroke="#0485FE" stroke-width="2.09073"/>
<rect x="7.5625" y="29.865" width="12.7957" height="14.9685" rx="0.491935" transform="rotate(0.175486 7.5625 29.865)" stroke="#0485FE" stroke-width="2.09073"/>
<path d="M42.7877 17.3602L44.1648 20.9858L36.6202 20.9627L38.3213 17.3465M7.41732 37.4111L20.2129 37.4503M16.0009 33.2124L12.1381 33.2006M15.9783 40.5759L12.1155 40.5641M8.54283 44.3557L8.53304 47.5546M19.1052 44.388L19.0954 47.5869M3.28839 25.7495L3.22165 47.5383M58.7561 25.9194L58.6894 47.7082M43.8163 36.2551L45.8684 36.2614M56.6119 36.2943L54.4994 36.2878M45.8684 36.2614L46.8959 45.3406C46.9802 46.085 47.6087 46.6482 48.3579 46.6505L52.0518 46.6618C52.8073 46.6641 53.4426 46.0953 53.5236 45.3441L54.4994 36.2878M45.8684 36.2614L54.4994 36.2878" stroke="#0485FE" stroke-width="2.09073" stroke-linecap="round"/>
<path d="M51.5553 12.497L30.0684 12.4312" stroke="#0485FE" stroke-width="2.09073"/>
</svg>
