<svg width="219" height="128" viewBox="0 0 219 128" fill="none" xmlns="http://www.w3.org/2000/svg">
<path d="M111.5 75.5L111.711 75.9532L111.749 75.9354L111.784 75.9115L111.5 75.5ZM218.492 2.09016C218.542 1.81855 218.362 1.55799 218.09 1.5082L213.664 0.696721C213.392 0.646925 213.132 0.826745 213.082 1.09836C213.032 1.36998 213.212 1.63053 213.484 1.68033L217.418 2.40164L216.697 6.33607C216.647 6.60768 216.827 6.86824 217.098 6.91803C217.37 6.96783 217.631 6.78801 217.68 6.51639L218.492 2.09016ZM1.21122 127.453L111.711 75.9532L111.289 75.0468L0.788782 126.547L1.21122 127.453ZM111.784 75.9115L218.284 2.41151L217.716 1.58849L111.216 75.0885L111.784 75.9115Z" fill="#0485FE"/>
</svg>
