<svg width="706" height="407" viewBox="0 0 706 407" fill="none" xmlns="http://www.w3.org/2000/svg">
<path d="M349 235.5L349.44 236.398L349.495 236.371L349.547 236.337L349 235.5ZM705.979 3.20538C706.092 2.66487 705.746 2.13475 705.205 2.02132L696.397 0.172881C695.857 0.0594523 695.327 0.40567 695.213 0.946182C695.1 1.48669 695.446 2.01682 695.987 2.13025L703.816 3.7733L702.173 11.6028C702.059 12.1433 702.406 12.6734 702.946 12.7868C703.487 12.9002 704.017 12.554 704.13 12.0135L705.979 3.20538ZM1.43997 406.898L349.44 236.398L348.56 234.602L0.560026 405.102L1.43997 406.898ZM349.547 236.337L705.547 3.83726L704.453 2.16274L348.453 234.663L349.547 236.337Z" fill="white"/>
</svg>
