<svg width="1920" height="4846" viewBox="0 0 1920 4846" fill="none" xmlns="http://www.w3.org/2000/svg">
<g filter="url(#filter0_f_1432_1681)">
<path d="M1070.45 1086.49C1039.52 902.546 1320.93 782.955 1379.22 773.211C1437.51 763.467 1766.79 618.186 1797.72 802.129C1828.65 986.072 1290.28 1392.16 1231.99 1401.9C1173.7 1411.65 1101.38 1270.43 1070.45 1086.49Z" fill="url(#paint0_linear_1432_1681)"/>
<path d="M-106.28 1401.9C-137.206 1217.96 144.199 1098.37 202.49 1088.63C260.781 1078.88 590.064 933.6 620.99 1117.54C651.915 1301.49 113.552 1707.57 55.2606 1717.32C-3.03045 1727.06 -75.3546 1585.85 -106.28 1401.9Z" fill="url(#paint1_linear_1432_1681)"/>
<path d="M651.951 2157.96C621.026 1974.01 902.43 1854.42 960.721 1844.68C1019.01 1834.94 1348.3 1689.65 1379.22 1873.6C1410.15 2057.54 871.783 2463.63 813.492 2473.37C755.201 2483.12 682.877 2341.9 651.951 2157.96Z" fill="url(#paint2_linear_1432_1681)"/>
</g>
<g filter="url(#filter1_f_1432_1681)">
<path d="M1070.45 4100.81C1039.52 3916.87 1320.93 3797.28 1379.22 3787.53C1437.51 3777.79 1766.79 3632.51 1797.72 3816.45C1828.65 4000.39 1290.28 4406.48 1231.99 4416.22C1173.7 4425.97 1101.38 4284.75 1070.45 4100.81Z" fill="url(#paint3_linear_1432_1681)"/>
<path d="M651.951 5172.28C621.026 4988.33 902.43 4868.74 960.721 4859C1019.01 4849.26 1348.3 4703.97 1379.22 4887.92C1410.15 5071.86 871.783 5477.95 813.492 5487.69C755.201 5497.44 682.877 5356.22 651.951 5172.28Z" fill="url(#paint4_linear_1432_1681)"/>
</g>
<g filter="url(#filter2_f_1432_1681)">
<path d="M17.7225 812.762C196.51 982.544 121.732 761.032 248.177 628.644C374.622 496.257 654.407 503.126 475.62 333.344C296.832 163.561 49.393 133.247 -77.0519 265.635C-203.497 398.023 -161.065 642.98 17.7225 812.762Z" fill="url(#paint5_linear_1432_1681)" fill-opacity="0.4"/>
</g>
<defs>
<filter id="filter0_f_1432_1681" x="-408.646" y="409.547" width="2507.65" height="2364.3" filterUnits="userSpaceOnUse" color-interpolation-filters="sRGB">
<feFlood flood-opacity="0" result="BackgroundImageFix"/>
<feBlend mode="normal" in="SourceGraphic" in2="BackgroundImageFix" result="shape"/>
<feGaussianBlur stdDeviation="150" result="effect1_foregroundBlur_1432_1681"/>
</filter>
<filter id="filter1_f_1432_1681" x="149.584" y="3223.87" width="2149.42" height="2764.3" filterUnits="userSpaceOnUse" color-interpolation-filters="sRGB">
<feFlood flood-opacity="0" result="BackgroundImageFix"/>
<feBlend mode="normal" in="SourceGraphic" in2="BackgroundImageFix" result="shape"/>
<feGaussianBlur stdDeviation="250" result="effect1_foregroundBlur_1432_1681"/>
</filter>
<filter id="filter2_f_1432_1681" x="-449.863" y="-116.793" width="1283.52" height="1291.08" filterUnits="userSpaceOnUse" color-interpolation-filters="sRGB">
<feFlood flood-opacity="0" result="BackgroundImageFix"/>
<feBlend mode="normal" in="SourceGraphic" in2="BackgroundImageFix" result="shape"/>
<feGaussianBlur stdDeviation="150" result="effect1_foregroundBlur_1432_1681"/>
</filter>
<linearGradient id="paint0_linear_1432_1681" x1="1231.99" y1="1401.9" x2="1120.63" y2="735.684" gradientUnits="userSpaceOnUse">
<stop stop-color="#04FE9A"/>
<stop offset="1" stop-color="#0084FF"/>
</linearGradient>
<linearGradient id="paint1_linear_1432_1681" x1="1231.99" y1="1401.9" x2="1120.63" y2="735.684" gradientUnits="userSpaceOnUse">
<stop stop-color="#04FE9A"/>
<stop offset="1" stop-color="#0084FF"/>
</linearGradient>
<linearGradient id="paint2_linear_1432_1681" x1="1231.99" y1="1401.9" x2="1120.63" y2="735.684" gradientUnits="userSpaceOnUse">
<stop stop-color="#04FE9A"/>
<stop offset="1" stop-color="#0084FF"/>
</linearGradient>
<linearGradient id="paint3_linear_1432_1681" x1="1231.99" y1="4416.23" x2="1120.63" y2="3750" gradientUnits="userSpaceOnUse">
<stop stop-color="#04FE9A"/>
<stop offset="1" stop-color="#0084FF"/>
</linearGradient>
<linearGradient id="paint4_linear_1432_1681" x1="1231.99" y1="4416.23" x2="1120.63" y2="3750" gradientUnits="userSpaceOnUse">
<stop stop-color="#04FE9A"/>
<stop offset="1" stop-color="#0084FF"/>
</linearGradient>
<linearGradient id="paint5_linear_1432_1681" x1="-77.052" y1="265.636" x2="568.623" y2="882.327" gradientUnits="userSpaceOnUse">
<stop stop-color="#04FE9A"/>
<stop offset="1" stop-color="#0084FF"/>
</linearGradient>
</defs>
</svg>
