<svg width="29" height="30" viewBox="0 0 29 30" fill="none" xmlns="http://www.w3.org/2000/svg">
<path d="M22.2136 10.0421C18.6363 8.24201 14.1642 8.83684 11.1782 11.8266C8.26614 14.7423 7.62905 19.0734 9.26696 22.6084C9.03954 22.4981 8.81439 22.3745 8.59213 22.237C8.37147 22.1005 8.26114 22.0322 8.17771 21.9991C8.01821 21.9359 7.89724 21.9176 7.72619 21.9308C7.63674 21.9377 7.53539 21.964 7.33271 22.0166C6.05709 22.3477 5.41922 22.5132 4.95973 22.4196C4.16221 22.2571 3.53894 21.633 3.37663 20.8345C3.28312 20.3744 3.44844 19.7358 3.77906 18.4586C3.83162 18.2556 3.8579 18.1541 3.86478 18.0642C3.8779 17.8929 3.85926 17.7704 3.79578 17.6108C3.76248 17.5271 3.69439 17.4174 3.55823 17.198C1.0994 13.2364 3.00231 8.43383 5.40426 6.02886C9.36483 2.0633 15.7862 2.0633 19.7468 6.02886C20.9117 7.19524 21.7339 8.57477 22.2136 10.0421Z" fill="#25FFA3"/>
<path fill-rule="evenodd" clip-rule="evenodd" d="M21.2095 26.0191C17.944 28.0396 13.9206 26.3972 12.0233 24.4975C8.76166 21.2318 8.76166 15.9369 12.0233 12.6712C15.285 9.40544 20.5731 9.40544 23.8348 12.6712C25.8128 14.6518 27.38 18.6068 25.355 21.8693C25.2429 22.05 25.1868 22.1403 25.1594 22.2093C25.1071 22.3407 25.0918 22.4416 25.1026 22.5827C25.1082 22.6567 25.1299 22.7402 25.1732 22.9074C25.4454 23.9593 25.5816 24.4852 25.5046 24.8641C25.3709 25.5217 24.8576 26.0356 24.2009 26.1694C23.8224 26.2466 23.2972 26.1102 22.2467 25.8376C22.0798 25.7943 21.9963 25.7726 21.9226 25.7669C21.7817 25.756 21.6821 25.7711 21.5508 25.8232C21.482 25.8504 21.3912 25.9066 21.2095 26.0191ZM15.5497 18.5836C15.5497 19.2433 15.0149 19.7781 14.3552 19.7781C13.6955 19.7781 13.1607 19.2433 13.1607 18.5836C13.1607 17.9239 13.6955 17.3891 14.3552 17.3891C15.0149 17.3891 15.5497 17.9239 15.5497 18.5836ZM19.1333 18.5836C19.1333 19.2433 18.5985 19.7781 17.9388 19.7781C17.2791 19.7781 16.7443 19.2433 16.7443 18.5836C16.7443 17.9239 17.2791 17.3891 17.9388 17.3891C18.5985 17.3891 19.1333 17.9239 19.1333 18.5836ZM21.5224 19.7781C22.1821 19.7781 22.7169 19.2433 22.7169 18.5836C22.7169 17.9239 22.1821 17.3891 21.5224 17.3891C20.8627 17.3891 20.3279 17.9239 20.3279 18.5836C20.3279 19.2433 20.8627 19.7781 21.5224 19.7781Z" fill="#25FFA3"/>
</svg>
