<svg width="29" height="30" viewBox="0 0 29 30" fill="none" xmlns="http://www.w3.org/2000/svg">
<path d="M11.6688 15.0003C11.6688 13.5159 12.8721 12.3126 14.3565 12.3126C15.8408 12.3126 17.0442 13.5159 17.0442 15.0003C17.0442 16.4847 15.8408 17.688 14.3565 17.688C12.8721 17.688 11.6688 16.4847 11.6688 15.0003Z" fill="#25FFA3"/>
<path fill-rule="evenodd" clip-rule="evenodd" d="M10.2774 4.52697C11.4486 0.423302 17.2643 0.423301 18.4354 4.52697C18.7983 5.79844 20.1045 6.55261 21.3871 6.23113C25.5265 5.19352 28.4344 10.2301 25.4661 13.2961C24.5464 14.2461 24.5464 15.7545 25.4661 16.7044C28.4344 19.7705 25.5265 24.8071 21.3871 23.7694C20.1045 23.448 18.7983 24.2021 18.4354 25.4736C17.2643 29.5773 11.4486 29.5773 10.2774 25.4736C9.91457 24.2021 8.60829 23.448 7.32574 23.7694C3.18629 24.8071 0.278443 19.7705 3.24676 16.7044C4.16645 15.7545 4.16645 14.2461 3.24676 13.2961C0.278444 10.2301 3.18629 5.19352 7.32574 6.23113C8.60829 6.55261 9.91457 5.79844 10.2774 4.52697ZM14.3565 10.5208C11.8825 10.5208 9.87698 12.5263 9.87698 15.0003C9.87698 17.4742 11.8825 19.4798 14.3565 19.4798C16.8304 19.4798 18.836 17.4742 18.836 15.0003C18.836 12.5263 16.8304 10.5208 14.3565 10.5208Z" fill="#25FFA3"/>
</svg>
