<svg width="29" height="30" viewBox="0 0 29 30" fill="none" xmlns="http://www.w3.org/2000/svg">
<path fill-rule="evenodd" clip-rule="evenodd" d="M8.11213 5.49489C8.11213 3.65317 9.60514 2.16016 11.4469 2.16016H17.6178C19.2671 2.16016 20.6041 3.49718 20.6041 5.14648C20.6041 5.80621 21.139 6.34102 21.7987 6.34102H22.5027C24.3958 6.34102 26.0609 7.81027 25.9837 9.8238C25.8849 12.4053 25.3835 16.546 23.3727 20.2105C22.8276 21.2038 22.0997 22.1795 21.3128 23.0887L21.2535 23.1572C20.1215 24.4652 19.1776 25.5558 18.1629 26.2992C17.0715 27.0987 15.9066 27.497 14.3581 27.497C12.8097 27.497 11.6448 27.0987 10.5534 26.2992C9.53864 25.5558 8.59478 24.4652 7.46275 23.1572L7.40351 23.0887C6.6166 22.1795 5.88866 21.2038 5.3436 20.2105C3.39753 16.6639 2.86399 12.9199 2.74272 10.5177C2.64058 8.49443 4.3176 7.03782 6.20025 7.03782H6.5692C7.42134 7.03782 8.11213 6.34703 8.11213 5.49489ZM18.6393 13.1744C18.9497 12.7891 18.889 12.2251 18.5038 11.9147C18.1185 11.6042 17.5545 11.6649 17.244 12.0502L14.8293 15.047C14.3335 15.6624 14.0206 16.0472 13.7602 16.2903C13.6379 16.4046 13.5597 16.4554 13.5148 16.4779C13.4814 16.4946 13.4694 16.4946 13.463 16.4945H13.4613C13.4549 16.4946 13.4429 16.4946 13.4095 16.4779C13.3646 16.4554 13.2864 16.4046 13.1641 16.2903C12.9037 16.0472 12.5908 15.6624 12.095 15.047L11.4721 14.2739C11.1616 13.8886 10.5976 13.828 10.2124 14.1384C9.82707 14.4488 9.7664 15.0128 10.0769 15.3981L10.7387 16.2195C11.1837 16.7719 11.5763 17.2592 11.9411 17.5999C12.3328 17.9657 12.8198 18.2863 13.4622 18.2863C14.1045 18.2863 14.5915 17.9657 14.9832 17.5999C15.348 17.2592 15.7406 16.7719 16.1856 16.2196L18.6393 13.1744Z" fill="#25FFA3"/>
</svg>
