<svg width="29" height="30" viewBox="0 0 29 30" fill="none" xmlns="http://www.w3.org/2000/svg">
<g clip-path="url(#clip0_1582_1958)">
<path d="M4.69148 2.70739C11.0821 1.54545 17.63 1.54545 24.0206 2.70739C26.5519 3.16762 28.3918 5.37223 28.3918 7.94498V17.9013C28.3918 21.3329 25.364 23.9758 21.9639 23.5122C19.7362 23.2084 17.4949 23.0387 15.252 23.003V26.449C15.9978 26.5011 16.7402 26.6185 17.4705 26.8011L19.3515 27.2713C19.8315 27.3913 20.1233 27.8777 20.0033 28.3578C19.8833 28.8378 19.3969 29.1296 18.9169 29.0096L17.0359 28.5394C16.1562 28.3194 15.2561 28.2095 14.3561 28.2095C13.456 28.2095 12.5559 28.3194 11.6762 28.5394L9.79522 29.0096C9.3152 29.1296 8.82878 28.8378 8.70878 28.3578C8.58878 27.8777 8.88062 27.3913 9.36064 27.2713L11.2416 26.8011C11.9719 26.6185 12.7143 26.5011 13.4602 26.449V23.003C11.2172 23.0387 8.97591 23.2084 6.74824 23.5122C3.34812 23.9758 0.320312 21.3329 0.320312 17.9013V7.94498C0.320312 5.37223 2.16023 3.16762 4.69148 2.70739Z" fill="#25FFA3"/>
</g>
<defs>
<clipPath id="clip0_1582_1958">
<rect width="28.6687" height="28.6687" fill="white" transform="translate(0.0214844 0.667969)"/>
</clipPath>
</defs>
</svg>
