<svg width="29" height="30" viewBox="0 0 29 30" fill="none" xmlns="http://www.w3.org/2000/svg">
<path fill-rule="evenodd" clip-rule="evenodd" d="M14.4097 3.35547C16.6035 3.35546 18.3232 3.35545 19.6875 3.50327C21.0798 3.65411 22.2078 3.96746 23.171 4.66725C23.7541 5.0909 24.2669 5.60368 24.6906 6.18679C25.3904 7.14997 25.7037 8.27806 25.8545 9.67033C26.0024 11.0346 26.0024 12.7542 26.0023 14.948V15.0562C26.0024 17.25 26.0024 18.9697 25.8545 20.334C25.7037 21.7262 25.3904 22.8543 24.6906 23.8175C24.2669 24.4006 23.7541 24.9134 23.171 25.337C22.2078 26.0368 21.0798 26.3502 19.6875 26.501C18.3232 26.6488 16.6036 26.6488 14.4098 26.6488H14.3016C12.1078 26.6488 10.3881 26.6488 9.02385 26.501C7.63158 26.3502 6.50348 26.0368 5.5403 25.337C4.9572 24.9134 4.44441 24.4006 4.02076 23.8175C3.32097 22.8543 3.00762 21.7262 2.85678 20.334C2.70897 18.9697 2.70897 17.25 2.70898 15.0562V14.9481C2.70897 12.7543 2.70897 11.0346 2.85678 9.67033C3.00762 8.27806 3.32097 7.14997 4.02076 6.18679C4.44441 5.60368 4.9572 5.0909 5.5403 4.66725C6.50348 3.96746 7.63157 3.65411 9.02385 3.50327C10.3882 3.35545 12.1078 3.35546 14.3016 3.35547H14.4097ZM21.1327 11.9837C21.3506 11.5395 21.1671 11.0028 20.7229 10.7849C20.2786 10.567 19.7419 10.7504 19.524 11.1946L17.7796 14.7508C17.2389 15.8531 15.6497 15.7993 15.1849 14.6629C14.1347 12.0958 10.5446 11.9742 9.32308 14.4644L7.57867 18.0205C7.36076 18.4648 7.54423 19.0015 7.98845 19.2194C8.43268 19.4373 8.96944 19.2539 9.18735 18.8096L10.9318 15.2535C11.4725 14.1512 13.0616 14.205 13.5265 15.3414C14.5766 17.9085 18.1668 18.0301 19.3882 15.5399L21.1327 11.9837Z" fill="#25FFA3"/>
</svg>
