<svg width="29" height="30" viewBox="0 0 29 30" fill="none" xmlns="http://www.w3.org/2000/svg">
<path fill-rule="evenodd" clip-rule="evenodd" d="M6.06749 4.19536C6.19308 4.10411 6.32296 4.02016 6.45793 3.94293C6.50128 4.03949 6.56261 4.12995 6.6419 4.20924C8.18351 5.75078 9.39356 6.95891 10.4602 7.81264C11.5401 8.67694 12.5514 9.24425 13.7166 9.4288C14.4285 9.54155 15.1537 9.54155 15.8656 9.4288C16.9982 9.24941 17.9852 8.70842 19.0313 7.88457C20.0641 7.07124 21.2235 5.92487 22.6829 4.46647C22.7298 4.41968 22.7703 4.36899 22.8046 4.31546C23.246 4.65925 23.6371 5.06356 23.9664 5.5167C25.107 7.08671 25.107 9.3263 25.107 13.8055V16.1945C25.107 20.6737 25.107 22.9133 23.9664 24.4833C23.598 24.9903 23.1521 25.4362 22.645 25.8046C21.075 26.9453 18.8354 26.9453 14.3562 26.9453C9.87708 26.9453 7.63749 26.9453 6.06749 25.8046C5.56044 25.4362 5.11454 24.9903 4.74614 24.4833C3.60547 22.9133 3.60547 20.6737 3.60547 16.1945V13.8055C3.60547 9.3263 3.60547 7.08671 4.74614 5.5167C5.11454 5.00966 5.56044 4.56375 6.06749 4.19536ZM9.57812 11.715C9.08333 11.715 8.68223 12.1161 8.68223 12.6109C8.68223 13.1057 9.08333 13.5068 9.57812 13.5068H19.1344C19.6292 13.5068 20.0303 13.1057 20.0303 12.6109C20.0303 12.1161 19.6292 11.715 19.1344 11.715H9.57812ZM15.5508 16.4932C15.056 16.4932 14.6549 16.8943 14.6549 17.3891C14.6549 17.8839 15.056 18.285 15.5508 18.285H19.1344C19.6292 18.285 20.0303 17.8839 20.0303 17.3891C20.0303 16.8943 19.6292 16.4932 19.1344 16.4932H15.5508ZM9.57812 21.2713C9.08333 21.2713 8.68223 21.6724 8.68223 22.1672C8.68223 22.662 9.08333 23.0631 9.57812 23.0631H19.1344C19.6292 23.0631 20.0303 22.662 20.0303 22.1672C20.0303 21.6724 19.6292 21.2713 19.1344 21.2713H9.57812Z" fill="#25FFA3"/>
<path d="M14.3562 3.05469C17.5814 3.05469 19.6455 3.05469 21.1345 3.4805C19.7962 4.81529 18.7951 5.78986 17.9227 6.4769C17.0035 7.20084 16.2988 7.54604 15.5853 7.65906C15.0591 7.7424 14.5231 7.7424 13.9969 7.65906C13.2628 7.54279 12.5384 7.18089 11.5799 6.41373C10.6874 5.69943 9.66056 4.69171 8.28397 3.3171C9.70801 3.05469 11.6117 3.05469 14.3562 3.05469Z" fill="#25FFA3"/>
</svg>
