<svg width="23" height="25" viewBox="0 0 23 25" fill="none" xmlns="http://www.w3.org/2000/svg">
<path d="M22.0099 3.13597C15.9473 0.00562203 7.14661 0.00562203 1.08393 3.13597C0.950712 3.20461 0.866943 3.3419 0.866943 3.49231V11.9225C0.866943 14.735 2.00437 17.5676 4.06945 19.8994C6.06881 22.1566 8.77155 23.6952 11.4844 24.1211C11.5046 24.1241 11.5258 24.1262 11.546 24.1262C11.5672 24.1262 11.5874 24.1241 11.6076 24.1211C14.3205 23.6961 17.0233 22.1576 19.0226 19.8994C21.0875 17.5675 22.2251 14.735 22.2251 11.9225L22.2271 3.49231C22.2271 3.3419 22.1432 3.2046 22.0099 3.13597ZM21.4256 11.9215C21.4256 17.2394 16.9082 22.4434 11.547 23.3187C6.18581 22.4435 1.66845 17.2397 1.66845 11.9215V3.73759C7.43736 0.863604 15.6569 0.863604 21.4258 3.73759L21.4256 11.9215ZM8.75428 8.51438V9.8267C7.92669 9.85396 7.2626 10.5354 7.2626 11.3692V14.9973C7.2626 15.8483 7.95495 16.5418 8.80678 16.5418H14.2881C15.1389 16.5418 15.8323 15.8493 15.8323 14.9973L15.8313 11.3692C15.8313 10.5354 15.1672 9.85397 14.3396 9.8267V8.51438C14.3396 6.97391 13.0871 5.72103 11.5469 5.72103C10.0066 5.72103 8.75428 6.97482 8.75428 8.51438ZM15.0299 11.3692V14.9973C15.0299 15.4072 14.6968 15.7403 14.287 15.7403L8.80569 15.7413C8.39594 15.7413 8.06287 15.4082 8.06287 14.9983V11.3692C8.06287 10.9594 8.39594 10.6262 8.80569 10.6262H14.287C14.6968 10.6272 15.0299 10.9604 15.0299 11.3692ZM11.547 6.52267C12.6451 6.52267 13.5393 7.41606 13.5393 8.51539V9.8257H9.55572V8.51539C9.55572 7.41606 10.4489 6.52267 11.547 6.52267Z" fill="#0485FE"/>
</svg>
