<svg width="19" height="22" viewBox="0 0 19 22" fill="none" xmlns="http://www.w3.org/2000/svg">
<path fill-rule="evenodd" clip-rule="evenodd" d="M9.65979 0.431885C9.54842 0.432009 9.43909 0.461731 9.34299 0.518006C7.48227 1.60502 5.36644 2.17832 3.21173 2.17948C2.63657 2.17948 2.06327 2.13059 1.49625 2.0468C1.40688 2.03345 1.31569 2.03953 1.22888 2.06464C1.14208 2.08974 1.06171 2.13328 0.993262 2.19227C0.924813 2.25126 0.869895 2.32432 0.832254 2.40647C0.794613 2.48862 0.775134 2.57792 0.775146 2.66828V12.9442C0.775146 15.6009 3.03879 17.7417 5.16463 19.2716C7.29047 20.8018 9.40491 21.738 9.40491 21.738C9.48516 21.7736 9.57199 21.792 9.65979 21.792C9.74759 21.792 9.83441 21.7736 9.91467 21.738C9.91467 21.738 12.0291 20.8018 14.1549 19.2716C16.2808 17.7417 18.5444 15.6009 18.5444 12.9442V2.66828C18.5444 2.57794 18.525 2.48866 18.4873 2.40654C18.4497 2.32441 18.3948 2.25136 18.3264 2.19237C18.258 2.13338 18.1776 2.08984 18.0909 2.06472C18.0041 2.0396 17.9129 2.03349 17.8236 2.0468C17.2554 2.13059 16.6823 2.17716 16.1081 2.17948C13.9534 2.17925 11.8375 1.60502 9.97658 0.518006C9.88048 0.46173 9.77115 0.432008 9.65979 0.431885ZM9.65979 1.78146C11.635 2.86451 13.853 3.43548 16.1102 3.43548C16.5021 3.43316 16.8939 3.41221 17.284 3.37729V12.9442C17.284 14.8417 15.4193 16.8106 13.4171 18.2519C11.8261 19.3971 10.2454 20.1894 9.65583 20.4704C9.06624 20.1894 7.48553 19.3971 5.89458 18.2519C3.89234 16.8106 2.02766 14.8417 2.02766 12.9442V3.37705C2.41777 3.41428 2.80928 3.43292 3.20079 3.43525C5.45745 3.43432 7.67547 2.86428 9.65071 1.78122L9.65979 1.78146ZM13.763 7.57824C13.6805 7.58081 13.5993 7.59961 13.5241 7.63356C13.4489 7.6675 13.3812 7.71593 13.3247 7.77608L8.90097 12.484L6.51164 9.86398C6.39952 9.74078 6.24306 9.66716 6.07667 9.6593C5.91028 9.65144 5.74757 9.70999 5.62434 9.82207C5.50114 9.93419 5.42752 10.0906 5.41966 10.257C5.41181 10.4234 5.47035 10.5861 5.58243 10.7094L8.42891 13.831C8.48774 13.8945 8.55906 13.9452 8.63841 13.9799C8.71776 14.0146 8.80342 14.0325 8.89002 14.0325C8.97662 14.0325 9.06228 14.0146 9.14163 13.9799C9.22098 13.9452 9.29231 13.8945 9.35113 13.831L14.2394 8.62868C14.2959 8.56854 14.34 8.49785 14.3692 8.42065C14.3984 8.34346 14.4121 8.26127 14.4095 8.17878C14.4069 8.0963 14.3881 8.01513 14.3541 7.93992C14.3201 7.86471 14.2717 7.79693 14.2115 7.74045C14.0901 7.62643 13.9283 7.56531 13.7618 7.57054L13.763 7.57824Z" fill="#0485FE"/>
</svg>
