<svg width="29" height="22" viewBox="0 0 29 22" fill="none" xmlns="http://www.w3.org/2000/svg">
<path d="M2.93484 9.03999H3.79896L3.28049 9.55939C2.83087 10.0098 2.48522 10.5292 2.24355 11.0824V11.1176C1.93301 11.7749 1.7602 12.5027 1.7602 13.2304V13.2655V13.647V13.6821V16.3481C1.7602 17.0759 2.1747 17.698 2.76202 18.0443V19.4294C2.76202 20.4682 3.59102 21.2987 4.62796 21.2987H6.97863C8.01557 21.2987 8.84457 20.4682 8.84457 19.4294V18.2864H20.459V19.4294C20.459 20.4682 21.288 21.2987 22.3249 21.2987H24.6756C25.7125 21.2987 26.5415 20.4682 26.5415 19.4294V17.9753C27.0951 17.629 27.4408 17.0407 27.4408 16.3481V13.2317V13.1966V13.0572C27.4408 13.0221 27.4408 12.9883 27.4057 12.9531C27.3705 12.2957 27.2328 11.6722 26.956 11.0838V11.0486C26.7143 10.4941 26.3687 9.97465 25.9191 9.52561L25.4006 9.00621H26.2296C26.5064 9.00621 27.1977 8.93723 27.7499 8.38265C28.4763 7.65493 28.4061 6.68649 28.3724 6.51336C28.3372 6.30506 28.1644 6.13191 27.9227 6.13191H24.8119C24.4312 6.13191 24.0855 6.37403 23.9127 6.68649L22.5301 3.32797C21.8739 1.73459 20.3523 0.730967 18.6592 0.730967L10.4352 0.729614C8.74213 0.729614 7.22046 1.73324 6.56435 3.32662L5.18176 6.68514C5.00894 6.37404 4.66329 6.13056 4.28253 6.13056H1.17171C0.93003 6.13056 0.757214 6.30369 0.722096 6.51201C0.686993 6.68514 0.618133 7.65497 1.34454 8.3813C1.96698 8.97103 2.65805 9.03999 2.93484 9.03999ZM2.93484 11.7073H4.52537C5.38948 11.7073 6.08078 12.3647 6.11589 13.1966L2.65805 13.1952C2.65805 12.6758 2.76202 12.1916 2.93484 11.7073ZM7.94671 19.3941C7.94671 19.9135 7.4971 20.3639 6.97863 20.3639H4.62796C4.10949 20.3639 3.65987 19.9135 3.65987 19.3941V18.2512H7.94519L7.94671 19.3941ZM11.5072 17.2475L12.1634 15.6542H17.0377L17.6939 17.2475H11.5072ZM25.6086 19.3941C25.6086 19.9135 25.1589 20.3639 24.6405 20.3639H22.2898C21.7713 20.3639 21.3217 19.9135 21.3217 19.3941V18.2512H25.5047H25.6087L25.6086 19.3941ZM26.231 11.7073C26.4038 12.1915 26.5078 12.6772 26.5078 13.1966V13.2317L23.0161 13.2304C23.0849 12.3999 23.7762 11.7411 24.6066 11.7411H26.2308L26.231 11.7073ZM24.7107 7.17053C24.7107 7.10154 24.7796 7.03256 24.8484 7.03256H27.5096C27.4745 7.24086 27.3719 7.55196 27.1289 7.76027C26.7832 8.10654 26.3336 8.14172 26.2296 8.14172H24.7093L24.7107 7.17053ZM7.42838 3.63894C7.94685 2.39183 9.1215 1.59652 10.4703 1.59652H18.7306C20.0781 1.59652 21.2541 2.39321 21.7726 3.63894L23.6048 8.14042H5.56238L7.42838 3.63894ZM5.04263 9.04003H24.1206L25.2615 10.183C25.4694 10.3913 25.6423 10.5982 25.78 10.8065H24.639C23.2565 10.8065 22.1507 11.9143 22.1507 13.2994V13.6457C22.1507 13.8878 22.3586 14.0961 22.6003 14.0961H26.54V16.3468C26.54 16.9014 26.0903 17.3504 25.5381 17.3504H18.6968L17.7638 15.0645C17.6949 14.8914 17.5221 14.7872 17.3493 14.7872L11.8528 14.7886C11.68 14.7886 11.5072 14.8927 11.4383 15.0659L10.5054 17.3518H8.39636L3.65997 17.3504C3.10639 17.3504 2.65815 16.9 2.65815 16.3468V14.0961H6.59783C6.83951 14.0961 7.04745 13.8878 7.04745 13.6457V13.2994C7.04745 11.9143 5.94165 10.8065 4.55907 10.8065H3.41816C3.55588 10.5982 3.7287 10.3913 3.93663 10.183C4.49022 9.62975 4.83607 9.28349 5.04263 9.04003ZM4.31756 7.03275C4.38642 7.03275 4.45528 7.10173 4.45528 7.17071V8.14054H2.93499C2.79727 8.14054 2.38141 8.10537 2.00202 7.75909C1.76034 7.51697 1.65638 7.23969 1.62126 7.03138L4.31756 7.03275Z" fill="#0485FE"/>
</svg>
