<svg width="28" height="25" viewBox="0 0 28 25" fill="none" xmlns="http://www.w3.org/2000/svg">
<path fill-rule="evenodd" clip-rule="evenodd" d="M10.4131 17.1717C10.67 17.1717 10.8402 17.3419 10.8402 17.5988C10.8402 17.8558 10.67 18.026 10.4131 18.026H3.023C2.76605 18.026 2.59585 17.8558 2.59585 17.5988C2.59585 17.3419 2.76605 17.1717 3.023 17.1717H10.4131ZM0.547263 13.5845H7.93731C8.19427 13.5845 8.36446 13.7547 8.36446 14.0116C8.36446 14.2543 8.21265 14.4196 7.97932 14.4372L7.93731 14.4388H0.547263C0.290309 14.4388 0.120117 14.2686 0.120117 14.0116C0.120117 13.769 0.271924 13.6037 0.505255 13.586L0.547263 13.5845ZM3.023 9.99732H10.4131C10.67 9.99732 10.8402 10.1675 10.8402 10.4245C10.8402 10.6671 10.6884 10.8324 10.4551 10.85L10.4131 10.8516H3.023C2.76771 10.8516 2.59585 10.6798 2.59585 10.4245C2.59585 10.1818 2.74766 10.0165 2.98099 9.99888L3.023 9.99732ZM26.2548 9.33881C26.9999 10.7942 27.4136 12.4424 27.4136 14.1817C27.4136 20.1199 22.5865 24.947 16.6483 24.9437C13.7868 24.9437 11.0953 23.8341 9.04466 21.7835C8.87447 21.6133 8.87447 21.3564 9.04466 21.1862C9.21484 21.016 9.47179 21.016 9.64198 21.1862C11.5206 23.0666 13.9984 24.0911 16.6463 24.0911C22.1142 24.0911 26.5557 19.6496 26.5557 14.1817C26.5557 12.6901 26.221 11.2705 25.6212 9.99856L26.2548 9.33881ZM24.945 10.7028C25.4063 11.7836 25.6616 12.9735 25.6616 14.2233C25.6616 19.1789 21.6473 23.1934 16.6916 23.1934C14.8564 23.1934 13.1044 22.6378 11.6094 21.6133C11.3958 21.4865 11.3524 21.2295 11.4809 21.016C11.6094 20.8457 11.8663 20.8023 12.1216 20.9275C13.4447 21.8669 15.0265 22.3374 16.6917 22.3374C21.1767 22.3374 24.8074 18.7067 24.8074 14.2216C24.8074 13.2211 24.6267 12.2631 24.2962 11.3784L24.945 10.7028ZM24.8334 6.97199C25.2141 6.9199 25.5856 7.11777 25.7534 7.46265C25.9224 7.80867 25.8495 8.22298 25.574 8.4903C22.4322 11.6392 20.1614 14.1932 16.9826 17.378C16.6574 17.7078 16.1332 17.7321 15.779 17.4336L11.9277 14.1747C11.746 14.0231 11.6326 13.8056 11.6129 13.5695C11.5921 13.3334 11.6662 13.0996 11.8189 12.9191C11.9717 12.7374 12.1904 12.6252 12.4253 12.6055C12.6614 12.5858 12.8952 12.661 13.0757 12.8138L16.2975 15.5356C19.1279 12.6667 21.3487 10.2134 24.3148 7.24046C24.4525 7.0958 24.6355 7.00092 24.8334 6.97199ZM16.6916 5.25326C18.9547 5.25326 21.0216 6.09049 22.5994 7.47227L22.0093 8.08859C20.5855 6.85319 18.7265 6.10585 16.6917 6.10585C14.9829 6.10585 13.316 6.6198 11.9495 7.64426C11.7359 7.77274 11.4806 7.72936 11.3522 7.55917C11.2237 7.38899 11.2671 7.09032 11.4373 6.96185C12.9757 5.85058 14.8128 5.25326 16.6916 5.25326ZM18.6139 0.813354C18.8709 0.813354 19.0411 0.983547 19.0411 1.2405C19.0411 1.48318 18.8893 1.64847 18.6559 1.66608L18.6139 1.66765H17.0755V3.46132C19.5863 3.54467 21.8519 4.48944 23.6294 6.01329L23.7399 6.10928L23.8237 6.19318L23.2278 6.81597C21.4595 5.26115 19.1525 4.3139 16.6464 4.3139C13.9135 4.3139 11.3507 5.42516 9.4285 7.43241C9.25832 7.6026 9.00137 7.6026 8.83118 7.43241C8.66098 7.26223 8.66098 7.00528 8.83118 6.83509C10.7612 4.7808 13.3069 3.63203 16.0676 3.46934L16.2212 3.46132V1.66765H14.7262C14.4693 1.66765 14.2991 1.49745 14.2991 1.2405C14.2991 0.997822 14.4509 0.832533 14.6842 0.814916L14.7262 0.813354H18.6139Z" fill="#0485FE"/>
</svg>
