<svg width="26" height="27" viewBox="0 0 26 27" fill="none" xmlns="http://www.w3.org/2000/svg">
<path d="M6.72086 18.7536V13.0156M8.00488 13.0156H6.36274C6.13947 13.0156 5.95848 12.8346 5.95848 12.6114V9.28697C5.95848 9.0637 6.13947 8.8827 6.36274 8.8827H7.60362M18.9592 13.0156H20.3156C20.5637 13.0156 20.7648 12.8145 20.7648 12.5665V12.0125M17.8357 15.3028C18.6917 13.9653 19.9944 10.4797 18.3573 7.23755C14.425 5.55228 10.8538 5.67266 8.84752 6.03379C8.39229 6.66523 7.8457 8.15117 7.68568 9.88584M16.7523 16.5467C16.2306 17.269 14.746 18.3523 12.82 17.9912C8.29149 16.6428 7.40845 12.8911 7.68568 9.88584M20.7648 12.0125V9.33188C20.7648 9.08381 20.5637 8.8827 20.3156 8.8827H18.8789C20.2031 7.71907 20.2833 3.14474 19.5611 1.25883C18.5579 1.37921 17.4745 1.41934 16.351 1.13846C15.2275 0.857581 11.9773 -0.225813 9.65003 1.41934C5.54117 1.38724 6.62844 7.0503 7.68568 9.88584M20.7648 12.0125C20.7916 13.136 20.2432 15.6312 18.2369 16.2257C16.5035 16.7393 15.8427 16.1321 15.5084 15.8646M19.1197 19.516L17.8357 17.7906L10.8939 24.1706L7.52337 19.4357M19.1197 19.516L15.8294 23.9699L8.76727 17.6702L7.52337 19.4357M19.1197 19.516C20.5776 19.6096 23.6699 20.1098 24.3761 21.3618C25.2589 22.9267 26.3423 26.0966 24.015 26.1768C22.1532 26.241 8.90102 26.2036 2.50767 26.1768C2.03954 26.1768 1.1434 25.7997 1.30391 24.2909C1.50453 22.405 1.26381 20.4389 7.52337 19.4357" stroke="#0485FE" stroke-width="0.719916" stroke-linecap="round" stroke-linejoin="round"/>
</svg>
