<svg width="25" height="19" viewBox="0 0 25 19" fill="none" xmlns="http://www.w3.org/2000/svg">
<path d="M19.8559 16.5484L22.3273 18.4271C23.3998 16.6408 24.0183 14.5381 24.0183 12.2877C24.0183 5.80266 18.8825 0.545532 12.5471 0.545532C6.21176 0.545532 1.07593 5.80266 1.07593 12.2877C1.07593 14.5381 1.69443 16.6408 2.76694 18.4271L5.30388 16.7161" stroke="#0485FE" stroke-width="0.791117" stroke-linecap="round"/>
<path d="M24.0178 12.0167H20.9813" stroke="#0485FE" stroke-width="0.791117" stroke-linecap="round"/>
<path d="M15.9207 17.0775H9.17289" stroke="#0485FE" stroke-width="0.791117" stroke-linecap="round"/>
<path d="M4.1123 12.0167H1.07581" stroke="#0485FE" stroke-width="0.791117" stroke-linecap="round"/>
<path d="M5.71484 8.25122L3.01461 6.7504" stroke="#0485FE" stroke-width="0.791117" stroke-linecap="round"/>
<path d="M8.0564 4.81152L6.50551 2.48471" stroke="#0485FE" stroke-width="0.791117" stroke-linecap="round"/>
<path d="M12.3845 3.75415L12.4072 0.664944" stroke="#0485FE" stroke-width="0.791117" stroke-linecap="round"/>
<path d="M16.4204 4.80103L17.9022 2.09029" stroke="#0485FE" stroke-width="0.791117" stroke-linecap="round"/>
<path d="M19.6392 7.88574L22.2846 6.29026" stroke="#0485FE" stroke-width="0.791117" stroke-linecap="round"/>
<path d="M13.7029 11.6924L17.7513 9.07726" stroke="#0485FE" stroke-width="0.791117" stroke-linecap="round"/>
<circle cx="12.3784" cy="12.1854" r="1.12269" stroke="#0485FE" stroke-width="0.791117"/>
</svg>
