<svg width="53" height="53" viewBox="0 0 53 53" fill="none" xmlns="http://www.w3.org/2000/svg">
<rect width="52.5" height="52.5" rx="26.25" fill="white" fill-opacity="0.15"/>
<path fill-rule="evenodd" clip-rule="evenodd" d="M13.25 21C13.25 18.1005 15.5781 15.75 18.45 15.75H34.05C36.9219 15.75 39.25 18.1005 39.25 21V21.6562C39.25 22.0187 38.959 22.3125 38.6 22.3125L13.9 22.3125C13.541 22.3125 13.25 22.0187 13.25 21.6562V21ZM13.9 24.9375C13.541 24.9375 13.25 25.2313 13.25 25.5938V31.5C13.25 34.3995 15.5781 36.75 18.45 36.75H34.05C36.9219 36.75 39.25 34.3995 39.25 31.5V25.5937C39.25 25.2313 38.959 24.9375 38.6 24.9375L13.9 24.9375ZM27.55 30.1875C27.55 29.4626 28.132 28.875 28.85 28.875H32.75C33.468 28.875 34.05 29.4626 34.05 30.1875C34.05 30.9124 33.468 31.5 32.75 31.5H28.85C28.132 31.5 27.55 30.9124 27.55 30.1875Z" fill="#25FFA3"/>
<path fill-rule="evenodd" clip-rule="evenodd" d="M13.25 21C13.25 18.1005 15.5781 15.75 18.45 15.75H34.05C36.9219 15.75 39.25 18.1005 39.25 21V21.6562C39.25 22.0187 38.959 22.3125 38.6 22.3125L13.9 22.3125C13.541 22.3125 13.25 22.0187 13.25 21.6562V21ZM13.9 24.9375C13.541 24.9375 13.25 25.2313 13.25 25.5938V31.5C13.25 34.3995 15.5781 36.75 18.45 36.75H34.05C36.9219 36.75 39.25 34.3995 39.25 31.5V25.5937C39.25 25.2313 38.959 24.9375 38.6 24.9375L13.9 24.9375ZM27.55 30.1875C27.55 29.4626 28.132 28.875 28.85 28.875H32.75C33.468 28.875 34.05 29.4626 34.05 30.1875C34.05 30.9124 33.468 31.5 32.75 31.5H28.85C28.132 31.5 27.55 30.9124 27.55 30.1875Z" fill="black" fill-opacity="0.2"/>
</svg>
