<svg width="53" height="53" viewBox="0 0 53 53" fill="none" xmlns="http://www.w3.org/2000/svg">
<rect width="52.5" height="52.5" rx="26.25" fill="white" fill-opacity="0.15"/>
<path d="M25.0536 19.9627C25.1372 19.9144 25.2221 19.871 25.3081 19.8324V24.8936C23.2649 23.9913 23.0736 21.1059 25.0536 19.9627Z" fill="#25FFA3"/>
<path d="M25.0536 19.9627C25.1372 19.9144 25.2221 19.871 25.3081 19.8324V24.8936C23.2649 23.9913 23.0736 21.1059 25.0536 19.9627Z" fill="black" fill-opacity="0.2"/>
<path d="M27.1919 32.6677V27.6062C29.2353 28.5084 29.4268 31.3941 27.4466 32.5373C27.363 32.5856 27.2779 32.6291 27.1919 32.6677Z" fill="#25FFA3"/>
<path d="M27.1919 32.6677V27.6062C29.2353 28.5084 29.4268 31.3941 27.4466 32.5373C27.363 32.5856 27.2779 32.6291 27.1919 32.6677Z" fill="black" fill-opacity="0.2"/>
<path fill-rule="evenodd" clip-rule="evenodd" d="M12.75 26.25C12.75 18.7942 18.7942 12.75 26.25 12.75C33.7058 12.75 39.75 18.7942 39.75 26.25C39.75 33.7058 33.7058 39.75 26.25 39.75C18.7942 39.75 12.75 33.7058 12.75 26.25ZM27.1919 17.4593C27.1919 16.9391 26.7702 16.5174 26.25 16.5174C25.7298 16.5174 25.3081 16.9391 25.3081 17.4593V17.8462C24.8978 17.9492 24.4951 18.11 24.1118 18.3313C20.6936 20.3048 21.1281 25.3696 24.8324 26.7321L25.3081 26.9071V32.8046C24.6364 32.6152 24.0363 32.1736 23.6606 31.5229L23.1889 30.706C22.9288 30.2555 22.3528 30.1011 21.9023 30.3612C21.4518 30.6213 21.2975 31.1973 21.5576 31.6478L22.0292 32.4647C22.7557 33.7229 23.9803 34.5128 25.3081 34.7311V35.0407C25.3081 35.5609 25.7298 35.9826 26.25 35.9826C26.7702 35.9826 27.1919 35.5609 27.1919 35.0407V34.6539C27.6023 34.5509 28.005 34.3901 28.3885 34.1687C31.8066 32.1952 31.3722 27.1304 27.6679 25.7679L27.1919 25.5929V19.6953C27.8637 19.8847 28.4639 20.3263 28.8397 20.9772L29.3113 21.7941C29.5714 22.2445 30.1474 22.3989 30.5979 22.1388C31.0484 21.8787 31.2028 21.3027 30.9427 20.8522L30.471 20.0353C29.7446 18.777 28.5198 17.9871 27.1919 17.7689V17.4593Z" fill="#25FFA3"/>
<path fill-rule="evenodd" clip-rule="evenodd" d="M12.75 26.25C12.75 18.7942 18.7942 12.75 26.25 12.75C33.7058 12.75 39.75 18.7942 39.75 26.25C39.75 33.7058 33.7058 39.75 26.25 39.75C18.7942 39.75 12.75 33.7058 12.75 26.25ZM27.1919 17.4593C27.1919 16.9391 26.7702 16.5174 26.25 16.5174C25.7298 16.5174 25.3081 16.9391 25.3081 17.4593V17.8462C24.8978 17.9492 24.4951 18.11 24.1118 18.3313C20.6936 20.3048 21.1281 25.3696 24.8324 26.7321L25.3081 26.9071V32.8046C24.6364 32.6152 24.0363 32.1736 23.6606 31.5229L23.1889 30.706C22.9288 30.2555 22.3528 30.1011 21.9023 30.3612C21.4518 30.6213 21.2975 31.1973 21.5576 31.6478L22.0292 32.4647C22.7557 33.7229 23.9803 34.5128 25.3081 34.7311V35.0407C25.3081 35.5609 25.7298 35.9826 26.25 35.9826C26.7702 35.9826 27.1919 35.5609 27.1919 35.0407V34.6539C27.6023 34.5509 28.005 34.3901 28.3885 34.1687C31.8066 32.1952 31.3722 27.1304 27.6679 25.7679L27.1919 25.5929V19.6953C27.8637 19.8847 28.4639 20.3263 28.8397 20.9772L29.3113 21.7941C29.5714 22.2445 30.1474 22.3989 30.5979 22.1388C31.0484 21.8787 31.2028 21.3027 30.9427 20.8522L30.471 20.0353C29.7446 18.777 28.5198 17.9871 27.1919 17.7689V17.4593Z" fill="black" fill-opacity="0.2"/>
</svg>
