<svg width="53" height="53" viewBox="0 0 53 53" fill="none" xmlns="http://www.w3.org/2000/svg">
<rect width="52.5" height="52.5" rx="26.25" fill="white" fill-opacity="0.15"/>
<path fill-rule="evenodd" clip-rule="evenodd" d="M20.145 17.1359C20.145 15.3371 21.6032 13.8789 23.4019 13.8789H29.4289C31.0398 13.8789 32.3456 15.1847 32.3456 16.7956C32.3456 17.4399 32.8679 17.9622 33.5123 17.9622H34.1998C36.0488 17.9622 37.675 19.3972 37.5997 21.3638C37.5031 23.885 37.0134 27.9292 35.0495 31.5082C34.5172 32.4783 33.8062 33.4313 33.0377 34.3193L32.9798 34.3861C31.8742 35.6636 30.9524 36.7288 29.9613 37.4548C28.8953 38.2357 27.7576 38.6248 26.2453 38.6248C24.7329 38.6248 23.5952 38.2357 22.5293 37.4548C21.5382 36.7288 20.6164 35.6636 19.5108 34.3861L19.4529 34.3193C18.6843 33.4313 17.9734 32.4783 17.441 31.5082C15.5404 28.0444 15.0193 24.3876 14.9008 22.0415C14.8011 20.0654 16.439 18.6428 18.2777 18.6428H18.638C19.4703 18.6428 20.145 17.9681 20.145 17.1359ZM30.4265 24.6362C30.7297 24.2599 30.6705 23.7091 30.2942 23.4059C29.9179 23.1027 29.3671 23.1619 29.0639 23.5382L26.7054 26.4652C26.2212 27.0661 25.9156 27.442 25.6613 27.6795C25.5418 27.7911 25.4655 27.8407 25.4216 27.8627C25.389 27.879 25.3773 27.8789 25.3711 27.8789H25.3694C25.3631 27.8789 25.3514 27.879 25.3188 27.8627C25.2749 27.8407 25.1986 27.7911 25.0791 27.6795C24.8248 27.442 24.5192 27.0661 24.035 26.4652L23.4265 25.7101C23.1233 25.3338 22.5725 25.2745 22.1962 25.5777C21.8199 25.8809 21.7607 26.4318 22.0639 26.8081L22.7103 27.6103C23.1449 28.1498 23.5283 28.6257 23.8846 28.9585C24.2672 29.3157 24.7428 29.6289 25.3702 29.6289C25.9976 29.6289 26.4732 29.3157 26.8558 28.9585C27.2121 28.6257 27.5955 28.1498 28.0301 27.6104L30.4265 24.6362Z" fill="#25FFA3"/>
<path fill-rule="evenodd" clip-rule="evenodd" d="M20.145 17.1359C20.145 15.3371 21.6032 13.8789 23.4019 13.8789H29.4289C31.0398 13.8789 32.3456 15.1847 32.3456 16.7956C32.3456 17.4399 32.8679 17.9622 33.5123 17.9622H34.1998C36.0488 17.9622 37.675 19.3972 37.5997 21.3638C37.5031 23.885 37.0134 27.9292 35.0495 31.5082C34.5172 32.4783 33.8062 33.4313 33.0377 34.3193L32.9798 34.3861C31.8742 35.6636 30.9524 36.7288 29.9613 37.4548C28.8953 38.2357 27.7576 38.6248 26.2453 38.6248C24.7329 38.6248 23.5952 38.2357 22.5293 37.4548C21.5382 36.7288 20.6164 35.6636 19.5108 34.3861L19.4529 34.3193C18.6843 33.4313 17.9734 32.4783 17.441 31.5082C15.5404 28.0444 15.0193 24.3876 14.9008 22.0415C14.8011 20.0654 16.439 18.6428 18.2777 18.6428H18.638C19.4703 18.6428 20.145 17.9681 20.145 17.1359ZM30.4265 24.6362C30.7297 24.2599 30.6705 23.7091 30.2942 23.4059C29.9179 23.1027 29.3671 23.1619 29.0639 23.5382L26.7054 26.4652C26.2212 27.0661 25.9156 27.442 25.6613 27.6795C25.5418 27.7911 25.4655 27.8407 25.4216 27.8627C25.389 27.879 25.3773 27.8789 25.3711 27.8789H25.3694C25.3631 27.8789 25.3514 27.879 25.3188 27.8627C25.2749 27.8407 25.1986 27.7911 25.0791 27.6795C24.8248 27.442 24.5192 27.0661 24.035 26.4652L23.4265 25.7101C23.1233 25.3338 22.5725 25.2745 22.1962 25.5777C21.8199 25.8809 21.7607 26.4318 22.0639 26.8081L22.7103 27.6103C23.1449 28.1498 23.5283 28.6257 23.8846 28.9585C24.2672 29.3157 24.7428 29.6289 25.3702 29.6289C25.9976 29.6289 26.4732 29.3157 26.8558 28.9585C27.2121 28.6257 27.5955 28.1498 28.0301 27.6104L30.4265 24.6362Z" fill="black" fill-opacity="0.2"/>
</svg>
