<svg width="53" height="53" viewBox="0 0 53 53" fill="none" xmlns="http://www.w3.org/2000/svg">
<rect width="52.5" height="52.5" rx="26.25" fill="white" fill-opacity="0.15"/>
<path fill-rule="evenodd" clip-rule="evenodd" d="M26.25 15C23.1434 15 20.625 17.5184 20.625 20.625C20.625 23.7316 23.1434 26.25 26.25 26.25C29.3566 26.25 31.875 23.7316 31.875 20.625C31.875 17.5184 29.3566 15 26.25 15Z" fill="#25FFA3"/>
<path fill-rule="evenodd" clip-rule="evenodd" d="M26.25 15C23.1434 15 20.625 17.5184 20.625 20.625C20.625 23.7316 23.1434 26.25 26.25 26.25C29.3566 26.25 31.875 23.7316 31.875 20.625C31.875 17.5184 29.3566 15 26.25 15Z" fill="black" fill-opacity="0.2"/>
<path fill-rule="evenodd" clip-rule="evenodd" d="M26.2499 27.375C21.7914 27.375 18.9236 29.002 17.4056 31.4869C16.4635 33.0292 16.8241 34.6342 17.7873 35.7534C18.7113 36.827 20.2 37.5 21.7499 37.5H30.7499C32.2999 37.5 33.7886 36.827 34.7126 35.7534C35.6758 34.6342 36.0364 33.0292 35.0943 31.4869C33.5763 29.002 30.7085 27.375 26.2499 27.375Z" fill="#25FFA3"/>
<path fill-rule="evenodd" clip-rule="evenodd" d="M26.2499 27.375C21.7914 27.375 18.9236 29.002 17.4056 31.4869C16.4635 33.0292 16.8241 34.6342 17.7873 35.7534C18.7113 36.827 20.2 37.5 21.7499 37.5H30.7499C32.2999 37.5 33.7886 36.827 34.7126 35.7534C35.6758 34.6342 36.0364 33.0292 35.0943 31.4869C33.5763 29.002 30.7085 27.375 26.2499 27.375Z" fill="black" fill-opacity="0.2"/>
</svg>
