<svg width="62" height="62" viewBox="0 0 62 62" fill="none" xmlns="http://www.w3.org/2000/svg">
<g clip-path="url(#clip0_45_1454)">
<path d="M57.9599 19.6962C56.8665 18.6037 55.6081 17.7375 54.2428 17.1147C56.7154 15.4258 58.3419 12.5854 58.3419 9.3716C58.3419 4.20407 54.1378 0 48.9703 0C43.8028 0 39.5987 4.20407 39.5987 9.3716C39.5987 12.5092 41.1501 15.2893 43.5244 16.9912C40.32 18.2278 37.5679 20.5354 35.8128 23.6C35.2814 24.5261 34.2888 25.1016 33.2223 25.1016H28.7777C27.7109 25.1016 26.7187 24.5266 26.1883 23.6007C24.4325 20.5357 21.68 18.2281 18.4759 16.9913C20.8501 15.2895 22.4015 12.5093 22.4015 9.37175C22.4014 4.20407 18.1973 0 13.0298 0C7.86226 0 3.65818 4.20407 3.65818 9.3716C3.65818 12.5873 5.28658 15.4291 7.76168 17.1177C3.37323 19.1239 0.316406 23.5551 0.316406 28.6873V39.0778C0.316406 41.2025 1.72544 43.0042 3.65833 43.5974V58.3145C3.65833 60.3464 5.31136 61.9994 7.34307 61.9994H18.7166C20.7484 61.9994 22.4014 60.3464 22.4014 58.3145V32.0481C24.5484 33.4994 27.1021 34.2975 29.7375 34.2975L32.2623 34.2977C34.1169 34.2977 35.9144 33.9143 37.6044 33.1583C38.3063 32.8443 38.9724 32.4745 39.5994 32.051V58.3154C39.5994 60.3471 41.2523 62 43.284 62H54.6576C56.6893 62 58.3422 60.3471 58.3422 58.3154V43.5971C60.2752 43.0039 61.6844 41.2019 61.6844 39.0771V28.6868C61.6845 25.2909 60.3618 22.0981 57.9599 19.6962ZM48.9703 2.76939C52.6109 2.76939 55.5725 5.73117 55.5725 9.3716C55.5725 13.012 52.6109 15.9738 48.9703 15.9738C45.3297 15.9738 42.3681 13.012 42.3681 9.3716C42.3681 5.73117 45.3297 2.76939 48.9703 2.76939ZM6.42757 9.3716C6.42757 5.73117 9.38935 2.76939 13.0298 2.76939C16.6702 2.76939 19.632 5.73117 19.632 9.3716C19.632 13.012 16.6702 15.9738 13.0298 15.9738C9.38935 15.9738 6.42757 13.012 6.42757 9.3716ZM29.7375 31.5281C26.8154 31.5281 24.0206 30.2835 22.0657 28.1126C21.7366 27.7472 21.239 27.5622 20.7564 27.6565C20.0916 27.7864 19.6321 28.363 19.6321 29.0169V58.3145C19.6321 58.8202 19.2223 59.23 18.7166 59.23H15.2091C14.7704 59.23 14.4146 58.8744 14.4146 58.4355V44.711C14.4146 43.9735 13.8581 43.3295 13.1222 43.2819C12.3157 43.2297 11.6452 43.8684 11.6452 44.6635V58.4354C11.6452 58.8741 11.2896 59.2299 10.8507 59.2299H7.34307C6.83758 59.2299 6.42771 58.82 6.42771 58.3145V42.4196C6.42771 41.6549 5.8081 41.0347 5.04331 41.0349C3.96398 41.035 3.08579 40.157 3.08579 39.0776V28.786C3.08579 23.262 7.60572 18.6987 13.1295 18.7435C17.533 18.7791 21.6174 21.1714 23.8001 25.0029C24.8157 26.7858 26.7257 27.8707 28.7777 27.8707H30.7146C31.6663 27.8707 32.4993 28.5755 32.5885 29.5231C32.6908 30.6103 31.8346 31.528 30.7681 31.528H29.7375V31.5281ZM58.9152 39.0771C58.9152 40.1565 58.0368 41.0349 56.9572 41.0346C56.1926 41.0344 55.5729 41.6546 55.5729 42.4193V58.3154C55.5729 58.8209 55.1632 59.2306 54.6577 59.2306H51.1495C50.7108 59.2306 50.355 58.875 50.355 58.4361V44.711C50.355 43.9735 49.7983 43.3295 49.0623 43.2819C48.2558 43.2297 47.5856 43.8684 47.5856 44.6636V58.4362C47.5856 58.875 47.23 59.2308 46.7911 59.2308H43.284C42.7785 59.2308 42.3688 58.821 42.3688 58.3155V29.0665C42.3688 28.5506 42.1083 28.0552 41.6566 27.8062C41.081 27.4891 40.3785 27.6176 39.9526 28.0934C38.9802 29.1791 37.81 30.0328 36.4738 30.6306C36.0386 30.8252 35.5936 30.9852 35.1417 31.1168C35.2869 30.6701 35.3662 30.194 35.3662 29.6996C35.3662 28.9536 35.1865 28.2492 34.8699 27.6256C36.2625 27.2072 37.4731 26.2714 38.2155 24.9772C40.4174 21.1322 44.5384 18.7435 48.97 18.7435C51.6258 18.7435 54.1231 19.7776 56.0019 21.655C57.8806 23.5335 58.915 26.0308 58.915 28.687V39.0771H58.9152Z" fill="#0485FE"/>
</g>
<defs>
<clipPath id="clip0_45_1454">
<rect width="62" height="62" fill="#0485FE"/>
</clipPath>
</defs>
</svg>
