<svg width="50" height="51" viewBox="0 0 50 51" fill="none" xmlns="http://www.w3.org/2000/svg">
<rect x="2" y="34" width="8" height="16" rx="2" stroke="white" stroke-width="2"/>
<rect x="15" y="27" width="8" height="23" rx="2" stroke="white" stroke-width="2"/>
<rect x="28" y="20" width="8" height="30" rx="2" stroke="white" stroke-width="2"/>
<rect x="41" y="13" width="8" height="37" rx="2" stroke="white" stroke-width="2"/>
<path d="M1.00104 22.1334C0.522413 22.4089 0.357807 23.0203 0.633378 23.499C0.908948 23.9776 1.52034 24.1422 1.99896 23.8666L1.00104 22.1334ZM35.4656 4.25997C35.6092 3.72668 35.2933 3.17796 34.76 3.03438L26.0694 0.694623C25.5361 0.551044 24.9874 0.86697 24.8438 1.40027C24.7003 1.93356 25.0162 2.48228 25.5495 2.62585L33.2744 4.70564L31.1946 12.4306C31.051 12.9639 31.367 13.5126 31.9003 13.6562C32.4336 13.7997 32.9823 13.4838 33.1259 12.9505L35.4656 4.25997ZM1.99896 23.8666L34.999 4.86662L34.001 3.13338L1.00104 22.1334L1.99896 23.8666Z" fill="white"/>
</svg>
