<svg width="35" height="35" viewBox="0 0 35 35" fill="none" xmlns="http://www.w3.org/2000/svg">
<path fill-rule="evenodd" clip-rule="evenodd" d="M5.76758 7.38073C4.375 9.29746 4.375 12.0316 4.375 17.5C4.375 22.9684 4.375 25.7025 5.76758 27.6193C6.21733 28.2383 6.76171 28.7827 7.38073 29.2324C9.29746 30.625 12.0316 30.625 17.5 30.625C22.9684 30.625 25.7025 30.625 27.6193 29.2324C28.2383 28.7827 28.7827 28.2383 29.2324 27.6193C30.625 25.7025 30.625 22.9684 30.625 17.5C30.625 12.0316 30.625 9.29746 29.2324 7.38073C28.7827 6.76171 28.2383 6.21733 27.6193 5.76758C25.7025 4.375 22.9684 4.375 17.5 4.375C12.0316 4.375 9.29746 4.375 7.38073 5.76758C6.76171 6.21733 6.21733 6.76171 5.76758 7.38073ZM20.3583 10.0604C20.7709 9.64626 21.2747 9.25441 21.9454 9.14754C22.0831 9.12562 22.222 9.11458 22.3612 9.11458C22.5005 9.11458 22.6394 9.12562 22.777 9.14754C23.4478 9.25441 23.9516 9.64626 24.3642 10.0604C24.7618 10.4596 25.2007 11.0132 25.7095 11.655L27.1072 13.4177C27.4825 13.891 27.403 14.579 26.9297 14.9543C26.4563 15.3296 25.7684 15.2501 25.3931 14.7768L24.0341 13.0628C23.813 12.784 23.6227 12.5444 23.455 12.3381V23.8194C23.455 24.4235 22.9653 24.9132 22.3612 24.9132C21.7572 24.9132 21.2675 24.4235 21.2675 23.8194V12.3381C21.0997 12.5444 20.9095 12.784 20.6884 13.0628L19.3294 14.7768C18.9541 15.2501 18.2661 15.3296 17.7928 14.9543C17.3195 14.579 17.24 13.891 17.6153 13.4177L19.0129 11.655C19.5218 11.0132 19.9606 10.4596 20.3583 10.0604ZM13.7326 11.1803C13.7326 10.5763 13.243 10.0866 12.6389 10.0866C12.0348 10.0866 11.5451 10.5763 11.5451 11.1803L11.5451 22.6616C11.3774 22.4553 11.1871 22.2158 10.9661 21.937L9.60704 20.223C9.23174 19.7497 8.54379 19.6702 8.07046 20.0455C7.59713 20.4208 7.51766 21.1087 7.89296 21.5821L9.2906 23.3448C9.79943 23.9866 10.2383 24.5401 10.636 24.9393C11.0485 25.3535 11.5523 25.7454 12.2231 25.8522C12.3607 25.8741 12.4996 25.8852 12.6389 25.8852C12.7781 25.8852 12.9171 25.8741 13.0547 25.8522C13.7254 25.7453 14.2293 25.3535 14.6418 24.9393C15.0395 24.5401 15.4783 23.9866 15.9872 23.3448L17.3848 21.5821C17.7601 21.1087 17.6806 20.4208 17.2073 20.0455C16.734 19.6702 16.046 19.7497 15.6707 20.223L14.3117 21.937C14.0907 22.2158 13.9004 22.4553 13.7326 22.6616L13.7326 11.1803Z" fill="#0485FE"/>
</svg>
