<svg width="93" height="66" viewBox="0 0 93 66" fill="none" xmlns="http://www.w3.org/2000/svg">
<g clip-path="url(#clip0_61_74533)">
<path d="M68.6739 6.53149C69.2564 6.38041 69.8518 6.72969 70.0023 7.3121L71.5463 13.2596C72.4046 13.5496 73.2441 13.8973 74.0535 14.2977L79.3616 11.1818C79.7903 10.93 80.3337 10.9999 80.6852 11.3508L86.5065 17.1684C86.8572 17.5185 86.9271 18.0619 86.6749 18.4891L83.5568 23.7877C83.957 24.6008 84.3052 25.4382 84.5965 26.2887L90.5553 27.8353C91.0377 27.9604 91.3729 28.3933 91.3729 28.8888V37.1124C91.3729 37.6079 91.0377 38.0408 90.5569 38.1659L84.5981 39.7125C84.3068 40.5646 83.9587 41.4013 83.5592 42.2103L86.6766 47.5129C86.9279 47.9402 86.858 48.4828 86.5073 48.8337L80.686 54.6513C80.3345 55.0022 79.7903 55.0712 79.3624 54.8202L74.0535 51.7043C73.2531 52.0991 72.4143 52.4467 71.5472 52.7416L70.0023 58.6908C69.851 59.2724 69.2564 59.6225 68.6739 59.4714C68.0906 59.3203 67.7408 58.7265 67.8921 58.1441L69.5866 51.6174C69.6818 51.2519 69.9592 50.9619 70.3204 50.8506C71.4666 50.4972 72.5616 50.044 73.5752 49.503C73.9104 49.3243 74.3139 49.3324 74.6417 49.5249L79.7399 52.5182L84.3695 47.8922L81.3758 42.8008C81.1838 42.4751 81.1757 42.0738 81.353 41.74C81.9038 40.7027 82.3585 39.6102 82.7043 38.4917C82.8157 38.131 83.1061 37.854 83.4714 37.759L89.1919 36.2741V29.7344L83.4714 28.2496C83.1061 28.1545 82.8157 27.8775 82.7043 27.5169C82.3593 26.4016 81.9046 25.3066 81.3522 24.2621C81.1757 23.9282 81.1846 23.5277 81.3766 23.202L84.3703 18.1147L79.7407 13.4887L74.6425 16.482C74.3147 16.6745 73.9112 16.6826 73.576 16.5039C72.5437 15.9532 71.4495 15.4999 70.3245 15.1571C69.9617 15.0467 69.6826 14.7559 69.5875 14.3895L67.8929 7.86282C67.7408 7.27636 68.0914 6.68258 68.6739 6.53149ZM78.1894 33.0006C78.1894 26.9328 74.0885 21.6246 68.2167 20.0926C67.6343 19.9407 67.0388 20.2892 66.8866 20.8708C66.7353 21.4515 67.0835 22.0469 67.666 22.1988C72.5787 23.4806 76.01 27.9222 76.01 33.0006C76.01 38.0741 72.5787 42.5165 67.6652 43.8024C67.0827 43.9551 66.7345 44.5505 66.8875 45.1313C67.0404 45.7129 67.6359 46.0605 68.2183 45.9086C74.0885 44.3718 78.1894 39.0635 78.1894 33.0006ZM64.8252 1.62285C65.4272 1.62285 65.9153 2.11022 65.9153 2.71131V61.5273C65.9153 62.1284 65.4272 62.6157 64.8252 62.6157C64.2233 62.6157 63.7352 62.1284 63.7352 61.5273V55.626H34.6803C34.1866 55.626 33.7554 55.2954 33.6277 54.8194L27.8242 33.2077H18.7651C18.2721 33.2077 17.8402 32.8771 17.7125 32.4011L11.6877 9.98695C11.5998 9.6596 11.669 9.31113 11.8756 9.04226C12.0822 8.77339 12.402 8.61663 12.7404 8.61663H63.7343V2.71131C63.7352 2.11022 64.2233 1.62285 64.8252 1.62285ZM19.6014 31.0308H63.7352V28.2894H51.549C50.947 28.2894 50.4589 27.802 50.4589 27.2009V14.6235C50.4589 14.0224 50.947 13.535 51.549 13.535H63.7352V10.7936H14.1624L19.6014 31.0308ZM52.6391 15.7119V26.1124H53.7731V15.7119H52.6391ZM63.7352 26.1124V22.0006H55.9541V26.1124H63.7352ZM63.7352 19.8237V15.7119H55.9541V19.8237H63.7352ZM63.7352 53.4491V33.2077H30.0817L35.5174 53.4491H63.7352ZM28.7223 20.3346H24.1057C23.5037 20.3346 23.0156 19.8473 23.0156 19.2462V14.6235C23.0156 14.0224 23.5037 13.535 24.1057 13.535H28.7223C29.3243 13.535 29.8124 14.0224 29.8124 14.6235V19.2462C29.8124 19.8473 29.3243 20.3346 28.7223 20.3346ZM27.6322 18.1577V15.7119H25.1958V18.1577H27.6322ZM28.7223 28.2894H24.1057C23.5037 28.2894 23.0156 27.802 23.0156 27.2009V22.5822C23.0156 21.9812 23.5037 21.4938 24.1057 21.4938H28.7223C29.3243 21.4938 29.8124 21.9812 29.8124 22.5822V27.2009C29.8124 27.802 29.3243 28.2894 28.7223 28.2894ZM27.6322 26.1124V23.6707H25.1958V26.1124H27.6322ZM36.6799 20.3346H32.0633C31.4613 20.3346 30.9732 19.8473 30.9732 19.2462V14.6235C30.9732 14.0224 31.4613 13.535 32.0633 13.535H36.6799C37.2819 13.535 37.77 14.0224 37.77 14.6235V19.2462C37.77 19.8473 37.2819 20.3346 36.6799 20.3346ZM35.5898 18.1577V15.7119H33.1534V18.1577H35.5898ZM36.6799 28.2894H32.0633C31.4613 28.2894 30.9732 27.802 30.9732 27.2009V22.5822C30.9732 21.9812 31.4613 21.4938 32.0633 21.4938H36.6799C37.2819 21.4938 37.77 21.9812 37.77 22.5822V27.2009C37.77 27.802 37.2819 28.2894 36.6799 28.2894ZM35.5898 26.1124V23.6707H33.1534V26.1124H35.5898ZM44.6375 28.2894H40.0209C39.419 28.2894 38.9309 27.802 38.9309 27.2009V22.5822C38.9309 21.9812 39.419 21.4938 40.0209 21.4938H44.6375C45.2395 21.4938 45.7276 21.9812 45.7276 22.5822V27.2009C45.7276 27.802 45.2395 28.2894 44.6375 28.2894ZM43.5475 26.1124V23.6707H41.111V26.1124H43.5475ZM44.6375 20.3346H40.0209C39.419 20.3346 38.9309 19.8473 38.9309 19.2462V14.6235C38.9309 14.0224 39.419 13.535 40.0209 13.535H44.6375C45.2395 13.535 45.7276 14.0224 45.7276 14.6235V19.2462C45.7276 19.8473 45.2395 20.3346 44.6375 20.3346ZM43.5475 18.1577V15.7119H41.111V18.1577H43.5475ZM40.0209 35.9533H44.6375C45.2395 35.9533 45.7276 36.4406 45.7276 37.0417V49.6151C45.7276 50.2162 45.2395 50.7036 44.6375 50.7036H40.0209C39.419 50.7036 38.9309 50.2162 38.9309 49.6151V37.0417C38.9309 36.4406 39.419 35.9533 40.0209 35.9533ZM41.111 38.1302V48.5266H43.5475V38.1302H41.111ZM47.9786 35.9533H52.5952C53.1971 35.9533 53.6852 36.4406 53.6852 37.0417V49.6151C53.6852 50.2162 53.1971 50.7036 52.5952 50.7036H47.9786C47.3766 50.7036 46.8885 50.2162 46.8885 49.6151V37.0417C46.8885 36.4406 47.3766 35.9533 47.9786 35.9533ZM49.0686 38.1302V48.5266H51.5051V38.1302H49.0686ZM55.9362 35.9533H60.5528C61.1548 35.9533 61.6429 36.4406 61.6429 37.0417V49.6151C61.6429 50.2162 61.1548 50.7036 60.5528 50.7036H55.9362C55.3342 50.7036 54.8461 50.2162 54.8461 49.6151V37.0417C54.8461 36.4406 55.3342 35.9533 55.9362 35.9533ZM57.0263 38.1302V48.5266H59.4627V38.1302H57.0263Z" fill="white" stroke="white" stroke-width="0.5"/>
</g>
<mask id="mask0_61_74533" style="mask-type:alpha" maskUnits="userSpaceOnUse" x="0" y="0" width="76" height="66">
<rect width="75.7423" height="65.1959" fill="#D9D9D9"/>
</mask>
<g mask="url(#mask0_61_74533)">
<path d="M67.1568 68.1648C67.3351 68.8512 66.9228 69.5531 66.2354 69.7304L59.2153 71.5502C58.8731 72.5617 58.4627 73.5511 57.99 74.5051L61.6679 80.761C61.9651 81.2663 61.8826 81.9067 61.4684 82.3209L54.6018 89.1818C54.1885 89.595 53.5471 89.6775 53.0428 89.3803L46.7888 85.7053C45.8291 86.177 44.8406 86.5874 43.8368 86.9306L42.0113 93.9536C41.8636 94.5221 41.3526 94.9171 40.7678 94.9171H31.0613C30.4764 94.9171 29.9654 94.5221 29.8177 93.9555L27.9923 86.9325C26.9865 86.5893 25.999 86.179 25.0441 85.7082L18.7853 89.3822C18.281 89.6784 17.6405 89.596 17.2263 89.1828L10.3597 82.3219C9.94547 81.9077 9.86397 81.2663 10.1602 80.762L13.838 74.5051C13.3721 73.5616 12.9617 72.5732 12.6137 71.5511L5.59173 69.7304C4.90525 69.5521 4.49202 68.8512 4.67035 68.1648C4.84868 67.4773 5.54954 67.0651 6.23697 67.2434L13.9406 69.2405C14.3721 69.3527 14.7144 69.6796 14.8457 70.1053C15.2628 71.4562 15.7978 72.7467 16.4363 73.9413C16.6472 74.3363 16.6376 74.8119 16.4104 75.1982L12.8774 81.2068L18.3375 86.6631L24.347 83.1349C24.7315 82.9086 25.2051 82.899 25.5992 83.108C26.8235 83.7571 28.1131 84.2931 29.4333 84.7006C29.859 84.8319 30.1859 85.1742 30.2981 85.6047L32.0507 92.3467H39.7697L41.5223 85.6047C41.6345 85.1742 41.9614 84.8319 42.3871 84.7006C43.7035 84.294 44.9959 83.7581 46.2289 83.1071C46.6229 82.899 47.0956 82.9096 47.4801 83.1358L53.4848 86.6641L58.945 81.2078L55.4119 75.1992C55.1847 74.8128 55.1751 74.3373 55.386 73.9423C56.0361 72.7256 56.5711 71.4361 56.9757 70.1101C57.1061 69.6825 57.4493 69.3536 57.8817 69.2415L65.5854 67.2444C66.2776 67.0651 66.9784 67.4783 67.1568 68.1648ZM35.9145 79.3794C43.0765 79.3794 49.342 74.5463 51.1502 67.6259C51.3295 66.9395 50.9182 66.2377 50.2317 66.0584C49.5462 65.88 48.8434 66.2904 48.6642 66.9769C47.1512 72.7668 41.9087 76.8109 35.9145 76.8109C29.9261 76.8109 24.6826 72.7668 23.1649 66.9759C22.9846 66.2894 22.2819 65.8791 21.5964 66.0593C20.9099 66.2396 20.4995 66.9414 20.6788 67.6279C22.4928 74.5463 28.7583 79.3794 35.9145 79.3794ZM72.9506 63.6289C72.9506 64.3383 72.3753 64.9136 71.6658 64.9136H2.24373C1.53424 64.9136 0.958984 64.3383 0.958984 63.6289C0.958984 62.9194 1.53424 62.3441 2.24373 62.3441H9.20914V28.1009C9.20914 27.519 9.59936 27.0108 10.1612 26.8603L35.67 20.0205V9.34371C35.67 8.7627 36.0602 8.25359 36.6221 8.10307L63.0782 1.00247C63.4646 0.898925 63.8759 0.980419 64.1932 1.22395C64.5106 1.46747 64.6956 1.84426 64.6956 2.24311V62.3432H71.6658C72.3753 62.3441 72.9506 62.9194 72.9506 63.6289ZM38.2395 10.3293V62.3441H41.4753V47.9819C41.4753 47.2724 42.0506 46.6971 42.7601 46.6971H57.6056C58.3151 46.6971 58.8903 47.2724 58.8903 47.9819V62.3441H62.1261V3.91903L38.2395 10.3293ZM56.3208 49.2666H44.0448V50.6031H56.3208V49.2666ZM44.0448 62.3441H48.8981V53.1736H44.0448V62.3441ZM51.4676 62.3441H56.3208V53.1736H51.4676V62.3441ZM11.7786 62.3441H35.67V22.6811L11.7786 29.0875V62.3441ZM50.8645 21.079V15.638C50.8645 14.9285 51.4398 14.3532 52.1493 14.3532H57.6056C58.3151 14.3532 58.8903 14.9285 58.8903 15.638V21.079C58.8903 21.7885 58.3151 22.3637 57.6056 22.3637H52.1493C51.4398 22.3637 50.8645 21.7885 50.8645 21.079ZM53.434 19.7942H56.3208V16.9227H53.434V19.7942ZM41.4753 21.079V15.638C41.4753 14.9285 42.0506 14.3532 42.7601 14.3532H48.2116C48.9211 14.3532 49.4964 14.9285 49.4964 15.638V21.079C49.4964 21.7885 48.9211 22.3637 48.2116 22.3637H42.7601C42.0506 22.3637 41.4753 21.7885 41.4753 21.079ZM44.0448 19.7942H46.9269V16.9227H44.0448V19.7942ZM50.8645 30.4576V25.0166C50.8645 24.3071 51.4398 23.7319 52.1493 23.7319H57.6056C58.3151 23.7319 58.8903 24.3071 58.8903 25.0166V30.4576C58.8903 31.1671 58.3151 31.7423 57.6056 31.7423H52.1493C51.4398 31.7423 50.8645 31.1671 50.8645 30.4576ZM53.434 29.1728H56.3208V26.3013H53.434V29.1728ZM41.4753 30.4576V25.0166C41.4753 24.3071 42.0506 23.7319 42.7601 23.7319H48.2116C48.9211 23.7319 49.4964 24.3071 49.4964 25.0166V30.4576C49.4964 31.1671 48.9211 31.7423 48.2116 31.7423H42.7601C42.0506 31.7423 41.4753 31.1671 41.4753 30.4576ZM44.0448 29.1728H46.9269V26.3013H44.0448V29.1728ZM41.4753 39.8362V34.3952C41.4753 33.6857 42.0506 33.1105 42.7601 33.1105H48.2116C48.9211 33.1105 49.4964 33.6857 49.4964 34.3952V39.8362C49.4964 40.5457 48.9211 41.1209 48.2116 41.1209H42.7601C42.0506 41.1209 41.4753 40.5457 41.4753 39.8362ZM44.0448 38.5515H46.9269V35.68H44.0448V38.5515ZM50.8645 39.8362V34.3952C50.8645 33.6857 51.4398 33.1105 52.1493 33.1105H57.6056C58.3151 33.1105 58.8903 33.6857 58.8903 34.3952V39.8362C58.8903 40.5457 58.3151 41.1209 57.6056 41.1209H52.1493C51.4398 41.1209 50.8645 40.5457 50.8645 39.8362ZM53.434 38.5515H56.3208V35.68H53.434V38.5515ZM32.4294 34.3952V39.8362C32.4294 40.5457 31.8542 41.1209 31.1447 41.1209H16.304C15.5945 41.1209 15.0192 40.5457 15.0192 39.8362V34.3952C15.0192 33.6857 15.5945 33.1105 16.304 33.1105H31.1447C31.8542 33.1105 32.4294 33.6857 32.4294 34.3952ZM29.8599 35.68H17.5887V38.5515H29.8599V35.68ZM32.4294 43.7738V49.2148C32.4294 49.9243 31.8542 50.4996 31.1447 50.4996H16.304C15.5945 50.4996 15.0192 49.9243 15.0192 49.2148V43.7738C15.0192 43.0644 15.5945 42.4891 16.304 42.4891H31.1447C31.8542 42.4891 32.4294 43.0644 32.4294 43.7738ZM29.8599 45.0586H17.5887V47.9301H29.8599V45.0586ZM32.4294 53.1525V58.5934C32.4294 59.3029 31.8542 59.8782 31.1447 59.8782H16.304C15.5945 59.8782 15.0192 59.3029 15.0192 58.5934V53.1525C15.0192 52.443 15.5945 51.8677 16.304 51.8677H31.1447C31.8542 51.8677 32.4294 52.443 32.4294 53.1525ZM29.8599 54.4372H17.5887V57.3087H29.8599V54.4372Z" fill="white"/>
</g>
<defs>
<clipPath id="clip0_61_74533">
<rect width="58.4845" height="26.8454" fill="white" transform="matrix(0 -1 1 0 66.1543 61.3608)"/>
</clipPath>
</defs>
</svg>
