<svg width="82" height="63" viewBox="0 0 82 63" fill="none" xmlns="http://www.w3.org/2000/svg">
<path d="M21.1194 25.3386C21.0278 25.6394 20.7138 25.8618 20.3737 25.8618H18.3199C17.6004 25.8618 17.0117 26.4505 17.0117 27.17V35.647C17.0117 36.3665 17.6004 36.9551 18.3199 36.9551H20.3737C20.7138 36.9551 21.0278 37.1644 21.1194 37.4784C21.4856 38.6426 21.9566 39.7808 22.5191 40.8534C22.6761 41.1412 22.6107 41.5075 22.3621 41.7561L20.91 43.2081C20.3999 43.7183 20.3999 44.5425 20.91 45.0526L26.9014 51.044C27.4116 51.5542 28.2358 51.5542 28.7459 51.044L30.198 49.5919C30.4466 49.3434 30.8129 49.278 31.1006 49.435C32.1864 49.9975 33.3245 50.4684 34.4757 50.8347C34.7766 50.9263 34.999 51.2403 34.999 51.5804V53.6342C34.999 54.3537 35.5876 54.9424 36.3071 54.9424H44.7841C45.5036 54.9424 46.0922 54.3537 46.0922 53.6342V51.5804C46.0922 51.2403 46.3016 50.9263 46.6155 50.8347C47.7798 50.4684 48.9179 49.9975 49.9906 49.435C50.2784 49.278 50.6446 49.3434 50.8932 49.5919L52.3453 51.044C52.8555 51.5542 53.6796 51.5542 54.1898 51.044L60.1811 45.0526C60.6913 44.5425 60.6913 43.7183 60.1811 43.2081L58.7291 41.7561C58.4805 41.5075 58.4151 41.1412 58.5721 40.8534C59.1477 39.7546 59.6186 38.6034 59.9849 37.426C60.0765 37.1513 60.3512 36.955 60.6782 36.955H62.7713C63.4908 36.955 64.0795 36.3664 64.0795 35.6469V27.1699C64.0795 26.4504 63.4908 25.8617 62.7713 25.8617H60.7175C60.3774 25.8617 60.0634 25.6524 59.9718 25.3385C59.6056 24.1742 59.1346 23.0361 58.5721 21.9634C58.4151 21.6756 58.4805 21.3093 58.7291 21.0608L60.1811 19.6087C60.6913 19.0985 60.6913 18.2743 60.1811 17.7642L54.1898 11.7728C53.6796 11.2626 52.8554 11.2626 52.3453 11.7728L50.8932 13.2249C50.6446 13.4735 50.2783 13.5389 49.9906 13.3819C48.9048 12.8194 47.7667 12.3484 46.6155 11.9821C46.3146 11.8906 46.0922 11.5766 46.0922 11.2365V9.18268C46.0922 8.46318 45.5036 7.87451 44.7841 7.87451H36.3071C35.5876 7.87451 34.999 8.46318 34.999 9.18268V11.2758C34.999 11.6028 34.8027 11.8775 34.528 11.9691C33.3507 12.3354 32.1995 12.8063 31.1006 13.3819C30.8128 13.5389 30.4465 13.4735 30.1979 13.2249L29.7401 12.7671C28.6543 11.6813 27.006 11.6551 25.9595 12.6886L20.8968 17.7512C20.3866 18.2614 20.3866 19.0856 20.8968 19.5957L22.3489 21.0478C22.5975 21.2964 22.6629 21.6627 22.5059 21.9504C21.9434 23.0362 21.4724 24.1743 21.1061 25.3255L21.1194 25.3386ZM23.618 26.1235C23.9319 25.1162 24.3506 24.122 24.8346 23.1801C25.5279 21.8719 25.2793 20.2759 24.2066 19.2033L23.6964 18.6931L27.8957 14.6116L28.3535 15.0694C29.4131 16.129 31.0091 16.3776 32.3304 15.6974C33.2853 15.2002 34.2927 14.7816 35.313 14.4676C36.6996 14.0359 37.6284 12.7539 37.6284 11.2757V10.4908H43.489V11.2364C43.489 12.7409 44.4309 14.049 45.8438 14.4807C46.851 14.7947 47.8452 15.2133 48.7871 15.6973C50.0953 16.3906 51.6913 16.1421 52.764 15.0694L53.3003 14.533L57.4472 18.6799L56.9108 19.2162C55.8512 20.2758 55.6027 21.8719 56.2829 23.1931C56.78 24.135 57.1855 25.1161 57.4995 26.1365C57.9443 27.5493 59.2394 28.4912 60.7438 28.4912H61.4894V34.3518H60.7045C59.2263 34.3518 57.9443 35.2806 57.5126 36.6672C57.1986 37.6876 56.78 38.6949 56.2829 39.6499C55.5895 40.958 55.8381 42.554 56.9108 43.6267L57.4471 44.163L53.3002 48.3099L52.7639 47.7736C51.7043 46.714 50.1083 46.4654 48.7871 47.1457C47.8452 47.6428 46.864 48.0483 45.8437 48.3622C44.4309 48.807 43.489 50.1021 43.489 51.6065V52.3522H37.6284V51.6065C37.6284 50.1021 36.6865 48.7939 35.2737 48.3622C34.2664 48.0483 33.2722 47.6297 32.3303 47.1457C31.0221 46.4523 29.4261 46.7009 28.3535 47.7736L27.8171 48.3099L23.6702 44.163L24.2066 43.6267C25.2662 42.5671 25.5147 40.9711 24.8345 39.6499C24.3374 38.708 23.9319 37.7268 23.6179 36.7065C23.1731 35.2937 21.8781 34.3518 20.3736 34.3518H19.628V28.4912H20.3736C21.8781 28.4912 23.1862 27.5493 23.6179 26.1365L23.618 26.1235Z" fill="white"/>
<path d="M40.5583 45.7987C48.4989 45.7987 54.9486 39.3494 54.9486 31.4084C54.9486 23.4673 48.4993 17.0181 40.5583 17.0181C32.6172 17.0181 26.168 23.4673 26.168 31.4084C26.168 39.3494 32.6172 45.7987 40.5583 45.7987ZM40.5583 19.6352C47.0468 19.6352 52.3314 24.9203 52.3314 31.4084C52.3314 37.8965 47.0464 43.1815 40.5583 43.1815C34.0702 43.1815 28.7851 37.8965 28.7851 31.4084C28.7851 24.9203 34.0702 19.6352 40.5583 19.6352Z" fill="white"/>
<path d="M37.7843 37.151C38.1244 37.151 38.4515 37.0202 38.7131 36.7716L47.962 27.5227L46.1175 25.6782L37.7975 33.9982L35.0242 31.2249L33.1797 33.0694L36.8818 36.7715C37.1435 37.0332 37.4705 37.1509 37.8107 37.1509L37.7843 37.151Z" fill="white"/>
<path d="M75.4995 17.3983C75.1201 17.0189 74.5707 16.9142 74.0736 17.1105C73.5896 17.3067 73.2625 17.7907 73.2625 18.314V22.2385H70.5808C66.5909 9.09148 54.3854 0 40.5586 0C26.7317 0 14.5132 9.10488 10.5364 22.2519H5.23828V24.8682H11.5175C12.1062 24.8682 12.6294 24.4758 12.7864 23.9002C16.1484 11.3811 27.5685 2.62957 40.559 2.62957C53.5495 2.62957 64.9693 11.3811 68.3316 23.9002C68.4886 24.4758 68.9988 24.8682 69.6005 24.8682H74.5715C75.291 24.8682 75.8797 24.2796 75.8797 23.5601V21.4801L77.9597 23.5601L73.6559 27.8639L75.5004 29.7084L80.7331 24.4757C81.2432 23.9656 81.2432 23.1414 80.7331 22.6312L75.4995 17.3983Z" fill="white"/>
<path d="M7.0421 45.6932C7.52611 45.497 7.85316 45.013 7.85316 44.4897V40.5652H10.5349C14.5248 53.7122 26.7303 62.8037 40.5571 62.8037C54.384 62.8037 66.6025 53.7122 70.5794 40.5652H75.8774V37.9488H69.5982C69.0095 37.9488 68.4863 38.3413 68.3293 38.9168C64.9673 51.4359 53.5472 60.1875 40.5567 60.1875C27.5662 60.1875 16.1464 51.4359 12.7841 38.9168C12.6271 38.3412 12.1169 37.9488 11.5152 37.9488H6.54415C5.82465 37.9488 5.23598 38.5375 5.23598 39.257V41.337L3.15597 39.257L7.45983 34.9531L5.61533 33.1086L0.382643 38.3413C-0.127548 38.8515 -0.127548 39.6757 0.382643 40.1858L5.61533 45.4185C5.9947 45.7979 6.55721 45.9025 7.04122 45.7063L7.0421 45.6932Z" fill="white"/>
<path d="M0.00585938 22.251H2.6222V24.8673H0.00585938V22.251Z" fill="white"/>
<path d="M78.4961 37.9487H81.1124V40.5651H78.4961V37.9487Z" fill="white"/>
</svg>
