<svg width="30" height="31" viewBox="0 0 30 31" fill="none" xmlns="http://www.w3.org/2000/svg">
<path d="M5.83333 15.5C5.83333 17.1108 4.5275 18.4167 2.91667 18.4167C1.30584 18.4167 5.09966e-07 17.1108 5.09966e-07 15.5C5.09966e-07 13.8892 1.30584 12.5833 2.91667 12.5833C4.5275 12.5833 5.83333 13.8892 5.83333 15.5Z" fill="#0485FE"/>
<path d="M17.5 15.5C17.5 17.1108 16.1942 18.4167 14.5833 18.4167C12.9725 18.4167 11.6667 17.1108 11.6667 15.5C11.6667 13.8892 12.9725 12.5833 14.5833 12.5833C16.1942 12.5833 17.5 13.8892 17.5 15.5Z" fill="#0485FE"/>
<path d="M29.1667 15.5C29.1667 17.1108 27.8608 18.4167 26.25 18.4167C24.6392 18.4167 23.3333 17.1108 23.3333 15.5C23.3333 13.8892 24.6392 12.5833 26.25 12.5833C27.8608 12.5833 29.1667 13.8892 29.1667 15.5Z" fill="#0485FE"/>
<path d="M5.83333 3.83333C5.83333 5.44416 4.5275 6.75 2.91667 6.75C1.30584 6.75 1.01993e-06 5.44416 1.01993e-06 3.83333C1.01993e-06 2.2225 1.30584 0.916664 2.91667 0.916664C4.5275 0.916664 5.83333 2.2225 5.83333 3.83333Z" fill="#0485FE"/>
<path d="M17.5 3.83333C17.5 5.44416 16.1942 6.75 14.5833 6.75C12.9725 6.75 11.6667 5.44416 11.6667 3.83333C11.6667 2.2225 12.9725 0.916664 14.5833 0.916664C16.1942 0.916664 17.5 2.2225 17.5 3.83333Z" fill="#0485FE"/>
<path d="M29.1667 3.83333C29.1667 5.44416 27.8608 6.75 26.25 6.75C24.6392 6.75 23.3333 5.44416 23.3333 3.83333C23.3333 2.2225 24.6392 0.916664 26.25 0.916664C27.8608 0.916664 29.1667 2.2225 29.1667 3.83333Z" fill="#0485FE"/>
<path d="M5.83333 27.1667C5.83333 28.7775 4.5275 30.0833 2.91667 30.0833C1.30584 30.0833 0 28.7775 0 27.1667C0 25.5558 1.30584 24.25 2.91667 24.25C4.5275 24.25 5.83333 25.5558 5.83333 27.1667Z" fill="#0485FE"/>
<path d="M17.5 27.1667C17.5 28.7775 16.1942 30.0833 14.5833 30.0833C12.9725 30.0833 11.6667 28.7775 11.6667 27.1667C11.6667 25.5558 12.9725 24.25 14.5833 24.25C16.1942 24.25 17.5 25.5558 17.5 27.1667Z" fill="#0485FE"/>
<path d="M29.1667 27.1667C29.1667 28.7775 27.8608 30.0833 26.25 30.0833C24.6392 30.0833 23.3333 28.7775 23.3333 27.1667C23.3333 25.5558 24.6392 24.25 26.25 24.25C27.8608 24.25 29.1667 25.5558 29.1667 27.1667Z" fill="#0485FE"/>
</svg>
