<svg width="53" height="53" viewBox="0 0 53 53" fill="none" xmlns="http://www.w3.org/2000/svg">
<rect width="52.5" height="52.5" rx="26.25" fill="white" fill-opacity="0.15"/>
<path d="M21.3462 15.1992C20.0951 15.3635 18.8761 15.8434 17.8154 16.639L14.9385 18.7967C14.0329 19.4758 13.5 20.5417 13.5 21.6736V32.9577C13.5 35.8516 16.8038 37.5034 19.1189 35.7671C19.793 35.2615 20.5564 34.9352 21.3462 34.7882V15.1992Z" fill="#25FFA3"/>
<path d="M21.3462 15.1992C20.0951 15.3635 18.8761 15.8434 17.8154 16.639L14.9385 18.7967C14.0329 19.4758 13.5 20.5417 13.5 21.6736V32.9577C13.5 35.8516 16.8038 37.5034 19.1189 35.7671C19.793 35.2615 20.5564 34.9352 21.3462 34.7882V15.1992Z" fill="black" fill-opacity="0.2"/>
<path d="M23.3077 34.7882C24.0975 34.9352 24.8609 35.2615 25.535 35.7671L25.6615 35.862C26.7222 36.6576 27.9412 37.1375 29.1923 37.3018V17.7128C28.4025 17.5657 27.6391 17.2395 26.965 16.7339L26.8385 16.639C25.7778 15.8434 24.5588 15.3635 23.3077 15.1992V34.7882Z" fill="#25FFA3"/>
<path d="M23.3077 34.7882C24.0975 34.9352 24.8609 35.2615 25.535 35.7671L25.6615 35.862C26.7222 36.6576 27.9412 37.1375 29.1923 37.3018V17.7128C28.4025 17.5657 27.6391 17.2395 26.965 16.7339L26.8385 16.639C25.7778 15.8434 24.5588 15.3635 23.3077 15.1992V34.7882Z" fill="black" fill-opacity="0.2"/>
<path d="M31.1538 17.7128V37.3018C32.4049 37.1375 33.6239 36.6576 34.6846 35.862L37.5615 33.7043C38.4671 33.0252 39 31.9593 39 30.8274V19.5433C39 16.6494 35.6962 14.9975 33.3811 16.7339C32.707 17.2395 31.9436 17.5657 31.1538 17.7128Z" fill="#25FFA3"/>
<path d="M31.1538 17.7128V37.3018C32.4049 37.1375 33.6239 36.6576 34.6846 35.862L37.5615 33.7043C38.4671 33.0252 39 31.9593 39 30.8274V19.5433C39 16.6494 35.6962 14.9975 33.3811 16.7339C32.707 17.2395 31.9436 17.5657 31.1538 17.7128Z" fill="black" fill-opacity="0.2"/>
</svg>
