<svg width="63" height="54" viewBox="0 0 63 54" fill="none" xmlns="http://www.w3.org/2000/svg">
<path d="M6.09005 17.5645C6.26339 17.5645 6.41361 17.4951 6.52917 17.368C7.10695 16.6978 12.1799 10.7234 12.1799 7.54582C12.1799 4.18309 9.44121 1.45593 6.09001 1.45593C2.73881 1.45593 0.00012207 4.19462 0.00012207 7.54582C0.00012207 10.7121 5.07311 16.698 5.65086 17.368C5.75486 17.4836 5.91672 17.5645 6.09005 17.5645ZM6.09005 2.60006C8.8172 2.60006 11.0244 4.81876 11.0244 7.53437C11.0244 9.64909 7.78876 14.0171 6.09005 16.0742C4.39134 14.0173 1.15573 9.64917 1.15573 7.53437C1.15573 4.81876 3.3629 2.60006 6.09005 2.60006Z" fill="white"/>
<path d="M9.74194 7.6261C9.74194 5.61536 8.10099 3.97449 6.09033 3.97449C4.07967 3.97449 2.43872 5.61544 2.43872 7.6261C2.43872 9.63676 4.07967 11.2777 6.09033 11.2777C8.10099 11.2777 9.74194 9.64837 9.74194 7.6261ZM3.59429 7.6261C3.59429 6.25095 4.71518 5.13006 6.09033 5.13006C7.46548 5.13006 8.58637 6.25095 8.58637 7.6261C8.58637 9.00125 7.46548 10.1221 6.09033 10.1221C4.71518 10.1221 3.59429 9.00125 3.59429 7.6261Z" fill="white"/>
<path d="M55.5259 6.38953C55.5259 4.37879 53.885 2.73792 51.8743 2.73792C49.8637 2.73792 48.2227 4.37887 48.2227 6.38953C48.2227 8.40019 49.8637 10.0411 51.8743 10.0411C53.885 10.0411 55.5259 8.40019 55.5259 6.38953ZM49.3898 6.38953C49.3898 5.01438 50.5107 3.89349 51.8859 3.89349C53.261 3.89349 54.3819 5.01438 54.3819 6.38953C54.3819 7.76468 53.261 8.88557 51.8859 8.88557C50.4992 8.88557 49.3898 7.76468 49.3898 6.38953Z" fill="white"/>
<path d="M11.6029 39.2892C9.59217 39.2892 7.95129 40.9301 7.95129 42.9408C7.95129 44.9515 9.59225 46.5924 11.6029 46.5924C13.6136 46.5924 15.2545 44.9515 15.2545 42.9408C15.2545 40.9301 13.6136 39.2892 11.6029 39.2892ZM11.6029 45.4253C10.2278 45.4253 9.10687 44.3044 9.10687 42.9293C9.10687 41.5541 10.2278 40.4332 11.6029 40.4332C12.9781 40.4332 14.0989 41.5541 14.0989 42.9293C14.0989 44.3044 12.9781 45.4253 11.6029 45.4253Z" fill="white"/>
<path d="M57.8714 25.3993C57.7905 24.2669 57.6403 23.1806 57.4092 22.1175C56.7967 19.2054 55.6758 16.4436 54.0926 13.9127C55.7682 11.7056 57.9754 8.40066 57.9754 6.29741C57.9754 2.93467 55.2367 0.20752 51.8855 0.20752C48.7423 0.20752 46.1769 2.61111 45.8534 5.67336C41.7858 3.1311 37.1288 1.7791 32.2986 1.7791C24.4755 1.7791 17.1952 5.26897 12.3074 11.3587C12.2959 11.3703 12.2843 11.3934 12.2612 11.4049L12.2496 11.4165C8.5518 16.0041 6.5989 21.5508 6.5989 27.4673C6.5989 30.9803 7.30379 34.3661 8.66739 37.5321C6.7954 38.5721 5.5127 40.5481 5.5127 42.8362C5.5127 46.0024 10.5857 51.9883 11.1634 52.6584C11.279 52.7855 11.4292 52.8548 11.6025 52.8548C11.7759 52.8548 11.9261 52.7855 12.0417 52.6584C12.3999 52.2424 14.4568 49.8156 15.9938 47.2734C20.5698 51.0522 26.3248 53.1553 32.299 53.1553C40.1451 53.1553 47.4483 49.6423 52.3368 43.5291C53.3422 42.2926 54.232 40.9291 54.9947 39.4845C55.6765 40.3628 56.2195 41.0099 56.3929 41.1948C56.5085 41.3219 56.6587 41.3912 56.832 41.3912C57.0054 41.3912 57.1556 41.3219 57.2711 41.1948C57.8489 40.5245 62.9219 34.5502 62.9219 31.3726C62.9103 28.3796 60.7379 25.8952 57.872 25.3983L57.8714 25.3993ZM56.7043 25.2953C53.3993 25.3531 50.73 28.0572 50.73 31.3737C50.73 31.6048 50.7647 31.859 50.8109 32.1132H48.2802C48.4535 30.5994 48.5575 29.051 48.5575 27.4563C48.5575 25.8615 48.465 24.3131 48.2802 22.7993H56.3577C56.5195 23.6198 56.6349 24.4402 56.7043 25.2953ZM56.1034 21.6552H48.1412C47.6443 18.2463 46.7083 15.0916 45.4372 12.353H48.5457C49.8399 14.2366 51.1688 15.7965 51.4462 16.1202C51.5502 16.2473 51.712 16.3166 51.8853 16.3166C52.0586 16.3166 52.2089 16.2473 52.3244 16.1202C52.4631 15.97 52.8329 15.5193 53.3298 14.8953C54.5893 16.9985 55.5256 19.2632 56.1034 21.6552ZM26.7056 32.1245C26.6363 30.6339 26.59 29.0854 26.59 27.4676C26.59 25.8498 26.6363 24.3013 26.7056 22.8106H37.8797C37.949 24.3128 37.9953 25.8613 37.9953 27.4676C37.9953 29.0854 37.949 30.6338 37.8797 32.1245H26.7056ZM37.8109 33.2801C37.6029 36.7931 37.21 39.9247 36.7016 42.5824H27.8726C27.3642 39.9245 26.9712 36.793 26.7633 33.2801H37.8109ZM25.5504 22.8108C25.4811 24.3593 25.4348 25.9193 25.4348 27.4678C25.4348 29.0163 25.4695 30.5763 25.5504 32.1248H17.461C17.2761 30.611 17.1837 29.0625 17.1837 27.4678C17.1837 25.8731 17.2877 24.3131 17.461 22.8108H25.5504ZM17.623 21.6552C18.143 18.2117 19.1021 15.0569 20.4079 12.353H26.6942C26.1742 15.1841 25.8044 18.3619 25.6079 21.6552H17.623ZM25.6081 33.2805C25.8045 36.5739 26.1743 39.7517 26.6944 42.5828H20.408C19.1023 39.8788 18.1431 36.724 17.6231 33.2805H25.6081ZM26.7637 21.6552C26.9717 18.1423 27.3645 15.0107 27.873 12.353H36.702C37.2104 15.0108 37.6033 18.1424 37.8113 21.6552H26.7637ZM37.8801 12.353H44.1664C45.4722 15.057 46.4313 18.2117 46.9513 21.6552H38.9662C38.7698 18.3619 38.4117 15.184 37.8801 12.353ZM38.9664 33.2805H46.9515C46.4315 36.7241 45.4723 39.8788 44.1666 42.5828H37.8802C38.4118 39.7632 38.7699 36.5738 38.9664 33.2805ZM39.0357 32.1249C39.105 30.5764 39.1513 29.0164 39.1513 27.4679C39.1513 25.9194 39.1166 24.3595 39.0357 22.811H47.1251C47.31 24.3248 47.4024 25.8732 47.4024 27.4679C47.4024 29.0627 47.2984 30.6111 47.1251 32.1249H39.0357ZM51.8738 1.36337C54.601 1.36337 56.8082 3.58207 56.8082 6.29769C56.8082 8.03109 54.6472 11.2551 52.937 13.4969C52.9254 13.5085 52.9139 13.5316 52.9023 13.5432C52.5325 14.0285 52.1743 14.4676 51.8739 14.8374C50.1751 12.7805 46.9395 8.41241 46.9395 6.29762C46.9395 3.582 49.1582 1.36337 51.8738 1.36337ZM45.8764 7.04879C46.1191 8.28528 46.8818 9.77595 47.7831 11.1973H44.871C43.1839 7.96172 41.0114 5.38477 38.5385 3.7558C41.127 4.43759 43.6115 5.53497 45.8764 7.04879ZM43.5652 11.1973H37.6603C36.9322 7.71906 35.95 4.911 34.7251 3.29283C38.2149 4.21729 41.3119 7.08311 43.5652 11.1973ZM32.2869 2.94671C33.7775 2.94671 35.3491 6.0205 36.47 11.2092H28.104C29.2249 6.02065 30.7962 2.94671 32.2869 2.94671ZM26.9135 11.1973H21.0085C23.2618 7.08348 26.3588 4.21766 29.8485 3.29283C28.6236 4.91063 27.6415 7.73023 26.9135 11.1973ZM26.0699 3.73213C23.5739 5.36147 21.3898 7.94996 19.7027 11.1973H13.9363C17.195 7.52256 21.4128 4.94569 26.0699 3.73213ZM12.9884 12.3525H19.1476C17.8765 15.0912 16.952 18.246 16.4436 21.6548H8.45852C9.26746 18.2805 10.7928 15.1374 12.9884 12.3525ZM7.75371 27.4678C7.75371 25.8847 7.91549 24.3246 8.20439 22.8108H16.2938C16.1204 24.3246 16.0164 25.8731 16.0164 27.4678C16.0164 29.0625 16.1089 30.611 16.2938 32.1248H8.20439C7.9155 30.611 7.75371 29.051 7.75371 27.4678ZM8.45861 33.2803H16.4437C16.9406 36.6893 17.8766 39.844 19.1477 42.5826H17.6686C17.5299 39.347 14.8721 36.747 11.6018 36.747C10.9432 36.747 10.3191 36.8741 9.72985 37.0706C9.19829 35.8457 8.77063 34.5746 8.45861 33.2803ZM11.6018 51.3879C9.90306 49.331 6.66745 44.9629 6.66745 42.8481C6.66745 40.121 8.88615 37.9138 11.6018 37.9138C14.3174 37.9138 16.5361 40.1325 16.5361 42.8481C16.5361 44.9628 13.3005 49.3309 11.6018 51.3879ZM16.5708 46.2687C17.0446 45.3789 17.4028 44.5122 17.5761 43.7496H19.7139C21.401 46.9852 23.562 49.5621 26.0465 51.1911C22.5798 50.2666 19.3438 48.6029 16.5708 46.2687ZM21.0082 43.738H26.9132C27.6412 47.2162 28.6234 50.0243 29.8484 51.6425C26.3585 50.718 23.2615 47.8522 21.0082 43.738ZM32.2866 52.0004C30.7959 52.0004 29.2243 48.9266 28.1034 43.738H36.4694C35.3485 48.9149 33.7772 52.0004 32.2866 52.0004ZM37.66 43.738H43.565C41.3116 47.8518 38.2146 50.7176 34.7249 51.6425C35.9498 50.0247 36.9319 47.2166 37.66 43.738ZM38.5035 51.2032C40.9996 49.5738 43.172 46.9853 44.8707 43.738H50.6371C47.3784 47.4243 43.1606 49.9896 38.5035 51.2032ZM51.5731 42.5828H45.4255C46.6967 39.8441 47.6211 36.6893 48.1295 33.2805H51.1571C51.8043 34.9676 53.0754 36.909 54.2079 38.4575C53.4567 39.9366 52.5785 41.3117 51.5731 42.5828ZM56.8195 39.9249C56.4035 39.4165 55.8835 38.7693 55.3519 38.0529C55.3403 38.0414 55.3288 38.0298 55.3288 38.0182C53.6994 35.8226 51.8852 32.98 51.8852 31.3852C51.8852 28.6581 54.1039 26.4509 56.8195 26.4509C59.5351 26.4509 61.7538 28.6696 61.7538 31.3852C61.7538 33.4999 58.5182 37.8679 56.8195 39.9249Z" fill="white"/>
<path d="M56.819 27.8259C54.8082 27.8259 53.1674 29.4669 53.1674 31.4775C53.1674 33.4882 54.8083 35.1292 56.819 35.1292C58.8296 35.1292 60.4706 33.4882 60.4706 31.4775C60.4706 29.4669 58.8296 27.8259 56.819 27.8259ZM56.819 33.962C55.4438 33.962 54.3229 32.8412 54.3229 31.466C54.3229 30.0909 55.4438 28.97 56.819 28.97C58.1941 28.97 59.315 30.0909 59.315 31.466C59.315 32.8412 58.1941 33.962 56.819 33.962Z" fill="white"/>
</svg>
