<svg width="35" height="35" viewBox="0 0 35 35" fill="none" xmlns="http://www.w3.org/2000/svg">
<path d="M12.0312 4.81107C10.6361 4.99425 9.27665 5.52949 8.09375 6.41666L4.88542 8.82291C3.87557 9.58029 3.28125 10.7689 3.28125 12.0312V24.6152C3.28125 27.8425 6.96559 29.6847 9.54738 27.7483C10.2992 27.1845 11.1505 26.8206 12.0312 26.6566V4.81107Z" fill="#0485FE"/>
<path d="M14.2188 26.6566C15.0995 26.8206 15.9508 27.1845 16.7026 27.7483L16.8437 27.8542C18.0266 28.7413 19.3861 29.2766 20.7812 29.4598V7.61417C19.9005 7.45021 19.0492 7.08634 18.2974 6.52251L18.1562 6.41666C16.9734 5.52949 15.6139 4.99425 14.2188 4.81107V26.6566Z" fill="#0485FE"/>
<path d="M22.9688 7.61417V29.4598C24.3639 29.2766 25.7234 28.7413 26.9063 27.8542L30.1146 25.4479C31.1244 24.6905 31.7188 23.5019 31.7188 22.2396V9.65557C31.7188 6.42834 28.0344 4.58616 25.4526 6.52251C24.7008 7.08634 23.8495 7.4502 22.9688 7.61417Z" fill="#0485FE"/>
</svg>
