<svg width="48" height="64" viewBox="0 0 48 64" fill="none" xmlns="http://www.w3.org/2000/svg">
<path d="M25.9794 12.7H38.2927C39.0681 12.7 39.6975 12.0707 39.6975 11.2952C39.6975 10.5197 39.0681 9.89038 38.2927 9.89038H25.9794C25.2039 9.89038 24.5745 10.5197 24.5745 11.2952C24.5745 12.0707 25.2032 12.7 25.9794 12.7Z" fill="white"/>
<path d="M25.9794 20.9143H38.2927C39.0681 20.9143 39.6975 20.2849 39.6975 19.5094C39.6975 18.734 39.0681 18.1046 38.2927 18.1046H25.9794C25.2039 18.1046 24.5745 18.734 24.5745 19.5094C24.5745 20.2849 25.2032 20.9143 25.9794 20.9143Z" fill="white"/>
<path d="M38.2905 26.3193H9.382C8.60654 26.3193 7.97717 26.9487 7.97717 27.7242C7.97717 28.4996 8.60654 29.129 9.382 29.129H38.2905C39.066 29.129 39.6954 28.4996 39.6954 27.7242C39.6954 26.9487 39.0667 26.3193 38.2905 26.3193Z" fill="white"/>
<path d="M38.2905 34.5341H9.382C8.60654 34.5341 7.97717 35.1634 7.97717 35.9389C7.97717 36.7144 8.60654 37.3437 9.382 37.3437H38.2905C39.066 37.3437 39.6954 36.7144 39.6954 35.9389C39.6954 35.1634 39.0667 34.5341 38.2905 34.5341Z" fill="white"/>
<path d="M25.6324 42.7478H9.37858C8.60242 42.7478 7.97375 43.3772 7.97375 44.1526C7.97375 44.9281 8.60242 45.5575 9.37858 45.5575H25.6324C26.4079 45.5575 27.0373 44.9281 27.0373 44.1526C27.0373 43.3772 26.4079 42.7478 25.6324 42.7478Z" fill="white"/>
<path d="M31.2262 63.472C31.4299 63.5774 31.6512 63.6294 31.8718 63.6294C32.1569 63.6294 32.4414 63.5423 32.6823 63.3716L35.6339 61.2847L38.5847 63.3716C39.0125 63.675 39.5758 63.7122 40.0408 63.4727C40.5072 63.2311 40.8001 62.7499 40.8001 62.2252V55.0367H46.267C47.0425 55.0367 47.6718 54.4074 47.6718 53.6319V1.81694C47.6718 1.04147 47.0425 0.412109 46.267 0.412109H1.40385C0.628386 0.412109 -0.000976562 1.04147 -0.000976562 1.81694V53.6319C-0.000976562 54.4074 0.628386 55.0367 1.40385 55.0367H30.4669V62.2245C30.4669 62.7492 30.7598 63.2311 31.2262 63.472ZM35.6353 50.8672C33.1431 50.8672 31.1153 48.84 31.1153 46.3479C31.1153 43.8557 33.1431 41.8278 35.6353 41.8278C38.1274 41.8278 40.1546 43.8557 40.1546 46.3479C40.1546 48.84 38.1274 50.8672 35.6353 50.8672ZM36.4452 58.4174C35.9598 58.0733 35.3094 58.0733 34.8233 58.4174L33.2766 59.5111V53.6452C33.2766 53.6403 33.278 53.6361 33.278 53.6319C33.278 53.6277 33.2766 53.6228 33.2766 53.6186V53.2807C34.0176 53.5336 34.8092 53.6769 35.6346 53.6769C36.4592 53.6769 37.2501 53.5336 37.9905 53.2814V53.6045C37.9905 53.6136 37.9877 53.6228 37.9877 53.6319C37.9877 53.641 37.9905 53.6502 37.9905 53.6593V59.5104L36.4452 58.4174ZM2.80868 52.2271V3.22176H44.8629V52.2271H40.8008V51.5408C42.1354 50.2126 42.9636 48.3757 42.9636 46.3486C42.9636 42.3069 39.6756 39.0189 35.6346 39.0189C31.5929 39.0189 28.3049 42.3069 28.3049 46.3486C28.3049 48.375 29.1323 50.2118 30.4662 51.5394V52.2271H2.80868Z" fill="white"/>
<path d="M8.4781 20.7057C8.4781 21.4811 9.10746 22.1105 9.88293 22.1105H20.0033C20.7788 22.1105 21.4081 21.4811 21.4081 20.7057V16.7686C21.7509 16.7328 22.0817 16.5748 22.3248 16.2931C22.8319 15.7059 22.7666 14.8187 22.1794 14.3123L15.8598 8.85875C15.333 8.40499 14.5512 8.40499 14.0244 8.85875L7.70615 14.3123C7.11893 14.8194 7.05431 15.7066 7.56145 16.2938C7.80449 16.5755 8.13532 16.7286 8.4788 16.7644L8.4781 20.7057ZM14.9417 11.778L18.5985 14.9325V19.3008H16.3472V18.0765C16.3472 17.3011 15.7179 16.6717 14.9424 16.6717C14.167 16.6717 13.5376 17.3011 13.5376 18.0765V19.3008H11.2878V14.9318L14.9417 11.778Z" fill="white"/>
</svg>
