<svg width="35" height="35" viewBox="0 0 35 35" fill="none" xmlns="http://www.w3.org/2000/svg">
<path fill-rule="evenodd" clip-rule="evenodd" d="M16.4365 2.91667C14.3899 2.91667 12.7308 4.57576 12.7308 6.62235C12.7308 6.91895 12.5263 7.31466 12.0375 7.58015C11.887 7.66185 11.7387 7.74681 11.5925 7.83494C11.1049 8.12884 10.6473 8.10998 10.3785 7.95623C8.59384 6.93507 6.31958 7.54444 5.28452 9.32112L4.25724 11.0845C3.2202 12.8646 3.83221 15.1487 5.62034 16.1718C5.8796 16.3201 6.12336 16.6974 6.11148 17.2588C6.10978 17.339 6.10893 17.4194 6.10893 17.5C6.10893 17.5806 6.10979 17.661 6.11148 17.7412C6.12336 18.3026 5.87961 18.6799 5.62037 18.8282C3.83226 19.8513 3.22025 22.1354 4.25728 23.9155L5.28459 25.6789C6.31964 27.4556 8.59389 28.0649 10.3786 27.0438C10.6473 26.89 11.105 26.8712 11.5925 27.1651C11.7387 27.2532 11.887 27.3381 12.0375 27.4198C12.5263 27.6853 12.7308 28.0811 12.7308 28.3776C12.7308 30.4242 14.3899 32.0833 16.4365 32.0833H18.5637C20.6103 32.0833 22.2694 30.4242 22.2694 28.3776C22.2694 28.0811 22.474 27.6853 22.9628 27.4198C23.1132 27.3382 23.2616 27.2532 23.4077 27.1651C23.8953 26.8712 24.353 26.89 24.6217 27.0438C26.4064 28.0649 28.6806 27.4556 29.7157 25.6789L30.743 23.9155C31.78 22.1354 31.168 19.8513 29.3799 18.8282C29.1207 18.6799 28.8769 18.3026 28.8888 17.7412C28.8905 17.661 28.8913 17.5806 28.8913 17.5C28.8913 17.4194 28.8905 17.339 28.8888 17.2588C28.8769 16.6974 29.1207 16.3201 29.3799 16.1718C31.1681 15.1487 31.7801 12.8645 30.743 11.0844L29.7158 9.32111C28.6807 7.54443 26.4064 6.93506 24.6217 7.95622C24.353 8.10997 23.8953 8.12883 23.4078 7.83492C23.2616 7.7468 23.1132 7.66184 22.9628 7.58015C22.474 7.31466 22.2694 6.91895 22.2694 6.62235C22.2694 4.57576 20.6103 2.91667 18.5637 2.91667H16.4365ZM17.5 13.125C15.0838 13.125 13.125 15.0838 13.125 17.5C13.125 19.9162 15.0838 21.875 17.5 21.875C19.9163 21.875 21.875 19.9162 21.875 17.5C21.875 15.0838 19.9163 13.125 17.5 13.125Z" fill="#0485FE"/>
</svg>
