<svg width="53" height="53" viewBox="0 0 53 53" fill="none" xmlns="http://www.w3.org/2000/svg">
<rect width="52.5" height="52.5" rx="26.25" fill="white" fill-opacity="0.15"/>
<g clip-path="url(#clip0_1690_9946)">
<rect x="16.5" y="10.7227" width="19.5" height="31.0556" rx="4.33333" fill="#3D3D3D"/>
<path fill-rule="evenodd" clip-rule="evenodd" d="M16.5 14.6949C16.5 13.6414 16.9185 12.631 17.6634 11.8861C18.4084 11.1412 19.4187 10.7227 20.4722 10.7227H32.0278C33.0813 10.7227 34.0916 11.1412 34.8366 11.8861C35.5815 12.631 36 13.6414 36 14.6949V37.806C36 38.8595 35.5815 39.8698 34.8366 40.6148C34.0916 41.3597 33.0813 41.7782 32.0278 41.7782H20.4722C19.4187 41.7782 18.4084 41.3597 17.6634 40.6148C16.9185 39.8698 16.5 38.8595 16.5 37.806V14.6949ZM20.4722 12.8893C19.4756 12.8893 18.6667 13.6982 18.6667 14.6949V37.806C18.6667 38.8027 19.4756 39.6115 20.4722 39.6115H32.0278C33.0244 39.6115 33.8333 38.8027 33.8333 37.806V14.6949C33.8333 13.6982 33.0244 12.8893 32.0278 12.8893H20.4722Z" fill="#25FFA3"/>
<path fill-rule="evenodd" clip-rule="evenodd" d="M16.5 14.6949C16.5 13.6414 16.9185 12.631 17.6634 11.8861C18.4084 11.1412 19.4187 10.7227 20.4722 10.7227H32.0278C33.0813 10.7227 34.0916 11.1412 34.8366 11.8861C35.5815 12.631 36 13.6414 36 14.6949V37.806C36 38.8595 35.5815 39.8698 34.8366 40.6148C34.0916 41.3597 33.0813 41.7782 32.0278 41.7782H20.4722C19.4187 41.7782 18.4084 41.3597 17.6634 40.6148C16.9185 39.8698 16.5 38.8595 16.5 37.806V14.6949ZM20.4722 12.8893C19.4756 12.8893 18.6667 13.6982 18.6667 14.6949V37.806C18.6667 38.8027 19.4756 39.6115 20.4722 39.6115H32.0278C33.0244 39.6115 33.8333 38.8027 33.8333 37.806V14.6949C33.8333 13.6982 33.0244 12.8893 32.0278 12.8893H20.4722Z" fill="black" fill-opacity="0.2"/>
<path fill-rule="evenodd" clip-rule="evenodd" d="M21.9173 10.7227C21.63 10.7227 21.3545 10.8368 21.1513 11.04C20.9481 11.2431 20.834 11.5187 20.834 11.806V13.2504C20.834 14.6472 21.965 15.7782 23.3618 15.7782H29.1395C29.8099 15.7782 30.4529 15.5119 30.9269 15.0378C31.401 14.5638 31.6673 13.9208 31.6673 13.2504V11.806C31.6673 11.5187 31.5532 11.2431 31.35 11.04C31.1469 10.8368 30.8713 10.7227 30.584 10.7227H21.9173Z" fill="#25FFA3"/>
<path fill-rule="evenodd" clip-rule="evenodd" d="M21.9173 10.7227C21.63 10.7227 21.3545 10.8368 21.1513 11.04C20.9481 11.2431 20.834 11.5187 20.834 11.806V13.2504C20.834 14.6472 21.965 15.7782 23.3618 15.7782H29.1395C29.8099 15.7782 30.4529 15.5119 30.9269 15.0378C31.401 14.5638 31.6673 13.9208 31.6673 13.2504V11.806C31.6673 11.5187 31.5532 11.2431 31.35 11.04C31.1469 10.8368 30.8713 10.7227 30.584 10.7227H21.9173Z" fill="black" fill-opacity="0.2"/>
</g>
<defs>
<clipPath id="clip0_1690_9946">
<rect x="16.5" y="10.7227" width="19.5" height="31.0556" rx="4.33333" fill="white"/>
</clipPath>
</defs>
</svg>
