<svg width="35" height="35" viewBox="0 0 35 35" fill="none" xmlns="http://www.w3.org/2000/svg">
<path fill-rule="evenodd" clip-rule="evenodd" d="M10.2084 2.91669C6.18128 2.91669 2.91669 6.18128 2.91669 10.2084V24.7917C2.91669 28.8188 6.18128 32.0834 10.2084 32.0834H24.7917C28.8188 32.0834 32.0834 28.8188 32.0834 24.7917V10.2084C32.0834 6.18128 28.8188 2.91669 24.7917 2.91669H10.2084ZM24.267 12.0047C24.8857 12.5203 24.9693 13.4399 24.4537 14.0587L17.162 22.8087C16.9074 23.1142 16.5391 23.3024 16.1424 23.3299C15.7457 23.3574 15.355 23.2216 15.0607 22.9541L10.6857 18.9769C10.0898 18.4351 10.0458 17.5128 10.5876 16.9168C11.1294 16.3208 12.0517 16.2769 12.6477 16.8187L15.8961 19.7718L22.213 12.1915C22.7287 11.5727 23.6482 11.4891 24.267 12.0047Z" fill="#0485FE"/>
</svg>
