<svg width="53" height="53" viewBox="0 0 53 53" fill="none" xmlns="http://www.w3.org/2000/svg">
<rect width="52.5" height="52.5" rx="26.25" fill="white" fill-opacity="0.15"/>
<path fill-rule="evenodd" clip-rule="evenodd" d="M25.3979 14.5664C23.758 14.5664 22.4286 15.8958 22.4286 17.5357C22.4286 17.7733 22.2647 18.0904 21.873 18.3031C21.7525 18.3686 21.6336 18.4367 21.5165 18.5073C21.1258 18.7428 20.7591 18.7277 20.5438 18.6045C19.1138 17.7862 17.2914 18.2745 16.4621 19.6981L15.639 21.111C14.808 22.5374 15.2984 24.3676 16.7312 25.1874C16.9389 25.3062 17.1342 25.6085 17.1247 26.0584C17.1233 26.1227 17.1227 26.1871 17.1227 26.2516C17.1227 26.3162 17.1233 26.3806 17.1247 26.4449C17.1342 26.8948 16.9389 27.197 16.7312 27.3159C15.2984 28.1357 14.808 29.9659 15.639 31.3922L16.4621 32.8051C17.2915 34.2287 19.1138 34.717 20.5438 33.8988C20.7591 33.7756 21.1258 33.7605 21.5165 33.996C21.6336 34.0666 21.7525 34.1347 21.873 34.2001C22.2647 34.4129 22.4286 34.7299 22.4286 34.9676C22.4286 36.6075 23.758 37.9368 25.3979 37.9368H27.1024C28.7422 37.9368 30.0716 36.6075 30.0716 34.9676C30.0716 34.7299 30.2355 34.4129 30.6272 34.2001C30.7477 34.1347 30.8666 34.0666 30.9837 33.996C31.3744 33.7605 31.7411 33.7756 31.9564 33.8988C33.3864 34.717 35.2087 34.2288 36.0381 32.8052L36.8613 31.3922C37.6922 29.9659 37.2018 28.1357 35.769 27.3159C35.5613 27.1971 35.366 26.8948 35.3755 26.4449C35.3769 26.3806 35.3776 26.3162 35.3776 26.2516C35.3776 26.1871 35.3769 26.1227 35.3755 26.0584C35.366 25.6085 35.5613 25.3062 35.7691 25.1874C37.2019 24.3676 37.6922 22.5374 36.8613 21.111L36.0382 19.6981C35.2088 18.2745 33.3865 17.7862 31.9564 18.6045C31.7411 18.7277 31.3744 18.7428 30.9837 18.5073C30.8666 18.4367 30.7477 18.3686 30.6272 18.3031C30.2355 18.0904 30.0716 17.7733 30.0716 17.5357C30.0716 15.8958 28.7422 14.5664 27.1024 14.5664H25.3979ZM26.25 22.7461C24.314 22.7461 22.7445 24.3156 22.7445 26.2516C22.7445 28.1877 24.314 29.7572 26.25 29.7572C28.1861 29.7572 29.7556 28.1877 29.7556 26.2516C29.7556 24.3156 28.1861 22.7461 26.25 22.7461Z" fill="#25FFA3"/>
<path fill-rule="evenodd" clip-rule="evenodd" d="M25.3979 14.5664C23.758 14.5664 22.4286 15.8958 22.4286 17.5357C22.4286 17.7733 22.2647 18.0904 21.873 18.3031C21.7525 18.3686 21.6336 18.4367 21.5165 18.5073C21.1258 18.7428 20.7591 18.7277 20.5438 18.6045C19.1138 17.7862 17.2914 18.2745 16.4621 19.6981L15.639 21.111C14.808 22.5374 15.2984 24.3676 16.7312 25.1874C16.9389 25.3062 17.1342 25.6085 17.1247 26.0584C17.1233 26.1227 17.1227 26.1871 17.1227 26.2516C17.1227 26.3162 17.1233 26.3806 17.1247 26.4449C17.1342 26.8948 16.9389 27.197 16.7312 27.3159C15.2984 28.1357 14.808 29.9659 15.639 31.3922L16.4621 32.8051C17.2915 34.2287 19.1138 34.717 20.5438 33.8988C20.7591 33.7756 21.1258 33.7605 21.5165 33.996C21.6336 34.0666 21.7525 34.1347 21.873 34.2001C22.2647 34.4129 22.4286 34.7299 22.4286 34.9676C22.4286 36.6075 23.758 37.9368 25.3979 37.9368H27.1024C28.7422 37.9368 30.0716 36.6075 30.0716 34.9676C30.0716 34.7299 30.2355 34.4129 30.6272 34.2001C30.7477 34.1347 30.8666 34.0666 30.9837 33.996C31.3744 33.7605 31.7411 33.7756 31.9564 33.8988C33.3864 34.717 35.2087 34.2288 36.0381 32.8052L36.8613 31.3922C37.6922 29.9659 37.2018 28.1357 35.769 27.3159C35.5613 27.1971 35.366 26.8948 35.3755 26.4449C35.3769 26.3806 35.3776 26.3162 35.3776 26.2516C35.3776 26.1871 35.3769 26.1227 35.3755 26.0584C35.366 25.6085 35.5613 25.3062 35.7691 25.1874C37.2019 24.3676 37.6922 22.5374 36.8613 21.111L36.0382 19.6981C35.2088 18.2745 33.3865 17.7862 31.9564 18.6045C31.7411 18.7277 31.3744 18.7428 30.9837 18.5073C30.8666 18.4367 30.7477 18.3686 30.6272 18.3031C30.2355 18.0904 30.0716 17.7733 30.0716 17.5357C30.0716 15.8958 28.7422 14.5664 27.1024 14.5664H25.3979ZM26.25 22.7461C24.314 22.7461 22.7445 24.3156 22.7445 26.2516C22.7445 28.1877 24.314 29.7572 26.25 29.7572C28.1861 29.7572 29.7556 28.1877 29.7556 26.2516C29.7556 24.3156 28.1861 22.7461 26.25 22.7461Z" fill="black" fill-opacity="0.2"/>
</svg>
