<svg width="53" height="53" viewBox="0 0 53 53" fill="none" xmlns="http://www.w3.org/2000/svg">
<rect width="52.5" height="52.5" rx="26.25" fill="white" fill-opacity="0.15"/>
<path d="M19.1389 26.2497C19.1389 27.5587 18.0777 28.6199 16.7687 28.6199C15.4596 28.6199 14.3984 27.5587 14.3984 26.2497C14.3984 24.9406 15.4596 23.8794 16.7687 23.8794C18.0777 23.8794 19.1389 24.9406 19.1389 26.2497Z" fill="#25FFA3"/>
<path d="M19.1389 26.2497C19.1389 27.5587 18.0777 28.6199 16.7687 28.6199C15.4596 28.6199 14.3984 27.5587 14.3984 26.2497C14.3984 24.9406 15.4596 23.8794 16.7687 23.8794C18.0777 23.8794 19.1389 24.9406 19.1389 26.2497Z" fill="black" fill-opacity="0.2"/>
<path d="M28.6199 26.2497C28.6199 27.5587 27.5587 28.6199 26.2497 28.6199C24.9406 28.6199 23.8794 27.5587 23.8794 26.2497C23.8794 24.9406 24.9406 23.8794 26.2497 23.8794C27.5587 23.8794 28.6199 24.9406 28.6199 26.2497Z" fill="#25FFA3"/>
<path d="M28.6199 26.2497C28.6199 27.5587 27.5587 28.6199 26.2497 28.6199C24.9406 28.6199 23.8794 27.5587 23.8794 26.2497C23.8794 24.9406 24.9406 23.8794 26.2497 23.8794C27.5587 23.8794 28.6199 24.9406 28.6199 26.2497Z" fill="black" fill-opacity="0.2"/>
<path d="M38.1009 26.2497C38.1009 27.5587 37.0397 28.6199 35.7307 28.6199C34.4216 28.6199 33.3604 27.5587 33.3604 26.2497C33.3604 24.9406 34.4216 23.8794 35.7307 23.8794C37.0397 23.8794 38.1009 24.9406 38.1009 26.2497Z" fill="#25FFA3"/>
<path d="M38.1009 26.2497C38.1009 27.5587 37.0397 28.6199 35.7307 28.6199C34.4216 28.6199 33.3604 27.5587 33.3604 26.2497C33.3604 24.9406 34.4216 23.8794 35.7307 23.8794C37.0397 23.8794 38.1009 24.9406 38.1009 26.2497Z" fill="black" fill-opacity="0.2"/>
<path d="M19.1389 16.7687C19.1389 18.0777 18.0777 19.1389 16.7687 19.1389C15.4596 19.1389 14.3984 18.0777 14.3984 16.7687C14.3984 15.4596 15.4596 14.3984 16.7687 14.3984C18.0777 14.3984 19.1389 15.4596 19.1389 16.7687Z" fill="#25FFA3"/>
<path d="M19.1389 16.7687C19.1389 18.0777 18.0777 19.1389 16.7687 19.1389C15.4596 19.1389 14.3984 18.0777 14.3984 16.7687C14.3984 15.4596 15.4596 14.3984 16.7687 14.3984C18.0777 14.3984 19.1389 15.4596 19.1389 16.7687Z" fill="black" fill-opacity="0.2"/>
<path d="M28.6199 16.7687C28.6199 18.0777 27.5587 19.1389 26.2497 19.1389C24.9406 19.1389 23.8794 18.0777 23.8794 16.7687C23.8794 15.4596 24.9406 14.3984 26.2497 14.3984C27.5587 14.3984 28.6199 15.4596 28.6199 16.7687Z" fill="#25FFA3"/>
<path d="M28.6199 16.7687C28.6199 18.0777 27.5587 19.1389 26.2497 19.1389C24.9406 19.1389 23.8794 18.0777 23.8794 16.7687C23.8794 15.4596 24.9406 14.3984 26.2497 14.3984C27.5587 14.3984 28.6199 15.4596 28.6199 16.7687Z" fill="black" fill-opacity="0.2"/>
<path d="M38.1009 16.7687C38.1009 18.0777 37.0397 19.1389 35.7307 19.1389C34.4216 19.1389 33.3604 18.0777 33.3604 16.7687C33.3604 15.4596 34.4216 14.3984 35.7307 14.3984C37.0397 14.3984 38.1009 15.4596 38.1009 16.7687Z" fill="#25FFA3"/>
<path d="M38.1009 16.7687C38.1009 18.0777 37.0397 19.1389 35.7307 19.1389C34.4216 19.1389 33.3604 18.0777 33.3604 16.7687C33.3604 15.4596 34.4216 14.3984 35.7307 14.3984C37.0397 14.3984 38.1009 15.4596 38.1009 16.7687Z" fill="black" fill-opacity="0.2"/>
<path d="M19.1389 35.7307C19.1389 37.0397 18.0777 38.1009 16.7687 38.1009C15.4596 38.1009 14.3984 37.0397 14.3984 35.7307C14.3984 34.4216 15.4596 33.3604 16.7687 33.3604C18.0777 33.3604 19.1389 34.4216 19.1389 35.7307Z" fill="#25FFA3"/>
<path d="M19.1389 35.7307C19.1389 37.0397 18.0777 38.1009 16.7687 38.1009C15.4596 38.1009 14.3984 37.0397 14.3984 35.7307C14.3984 34.4216 15.4596 33.3604 16.7687 33.3604C18.0777 33.3604 19.1389 34.4216 19.1389 35.7307Z" fill="black" fill-opacity="0.2"/>
<path d="M28.6199 35.7307C28.6199 37.0397 27.5587 38.1009 26.2497 38.1009C24.9406 38.1009 23.8794 37.0397 23.8794 35.7307C23.8794 34.4216 24.9406 33.3604 26.2497 33.3604C27.5587 33.3604 28.6199 34.4216 28.6199 35.7307Z" fill="#25FFA3"/>
<path d="M28.6199 35.7307C28.6199 37.0397 27.5587 38.1009 26.2497 38.1009C24.9406 38.1009 23.8794 37.0397 23.8794 35.7307C23.8794 34.4216 24.9406 33.3604 26.2497 33.3604C27.5587 33.3604 28.6199 34.4216 28.6199 35.7307Z" fill="black" fill-opacity="0.2"/>
<path d="M38.1009 35.7307C38.1009 37.0397 37.0397 38.1009 35.7307 38.1009C34.4216 38.1009 33.3604 37.0397 33.3604 35.7307C33.3604 34.4216 34.4216 33.3604 35.7307 33.3604C37.0397 33.3604 38.1009 34.4216 38.1009 35.7307Z" fill="#25FFA3"/>
<path d="M38.1009 35.7307C38.1009 37.0397 37.0397 38.1009 35.7307 38.1009C34.4216 38.1009 33.3604 37.0397 33.3604 35.7307C33.3604 34.4216 34.4216 33.3604 35.7307 33.3604C37.0397 33.3604 38.1009 34.4216 38.1009 35.7307Z" fill="black" fill-opacity="0.2"/>
</svg>
