<svg width="67" height="67" viewBox="0 0 67 67" fill="none" xmlns="http://www.w3.org/2000/svg">
<path d="M34.8041 53.4477V47.4818L27.3467 40.0244V36.2957" stroke="#0485FE" stroke-width="2.62501"/>
<path d="M30.3297 15.4151V21.381L37.7871 28.8384V32.5671" stroke="#0485FE" stroke-width="2.62501"/>
<rect x="12.4316" y="13.9233" width="40.27" height="40.27" rx="1.75" stroke="#0485FE" stroke-width="2.62501"/>
<path d="M20.6348 54.1934V65.3795" stroke="#0485FE" stroke-width="2.62501"/>
<path d="M20.6348 3.48315V14.6693" stroke="#0485FE" stroke-width="2.62501"/>
<path d="M33.3125 54.1934V65.3795" stroke="#0485FE" stroke-width="2.62501"/>
<path d="M33.3125 3.48315V14.6693" stroke="#0485FE" stroke-width="2.62501"/>
<path d="M45.2441 54.1934V65.3795" stroke="#0485FE" stroke-width="2.62501"/>
<path d="M45.2441 3.48315V14.6693" stroke="#0485FE" stroke-width="2.62501"/>
<path d="M13.1777 22.126L1.99163 22.1258" stroke="#0485FE" stroke-width="2.62501"/>
<path d="M63.8887 22.1277L52.7026 22.1275" stroke="#0485FE" stroke-width="2.62501"/>
<path d="M13.1777 34.8037L1.99163 34.8035" stroke="#0485FE" stroke-width="2.62501"/>
<path d="M63.8877 34.8049L52.7016 34.8048" stroke="#0485FE" stroke-width="2.62501"/>
<path d="M13.1777 46.7356L1.99163 46.7354" stroke="#0485FE" stroke-width="2.62501"/>
<path d="M63.8877 46.7371L52.7016 46.7369" stroke="#0485FE" stroke-width="2.62501"/>
<circle cx="27.3465" cy="33.3131" r="4.47444" fill="#0485FE"/>
<circle cx="37.7869" cy="36.2957" r="4.47444" fill="#0485FE"/>
</svg>
