<svg width="67" height="66" viewBox="0 0 67 66" fill="none" xmlns="http://www.w3.org/2000/svg">
<path d="M37.4222 24.9233H15.2393C10.6179 24.5767 1.375 26.795 1.375 38.441C1.375 50.087 1.375 56.6956 1.375 58.5442C1.375 62.3569 3.03872 64.4365 6.92073 64.4365C11.7732 64.4365 13.8529 62.3569 19.052 56.4645C23.2113 51.7507 30.4901 50.8033 33.6095 50.9188C37.1912 50.9188 45.5328 52.6518 50.2467 59.584C54.4892 65.8229 61.3382 64.0899 63.4178 61.6636C64.8043 59.9306 64.8043 59.4453 64.8043 53.345V39.1341C64.9198 34.3972 62.378 24.9233 51.2865 24.9233C50.5352 24.9233 49.8299 24.9233 49.1687 24.9233C44.5942 24.9233 40.8883 21.215 40.8883 16.6405V14.8716C40.8883 12.383 38.8709 10.3657 36.3824 10.3657H35.8625C33.6611 10.3657 31.8765 12.1503 31.8765 14.3517V14.3517C31.8765 16.5531 30.0919 18.3376 27.8905 18.3376H27.3706C24.8821 18.3376 22.8647 16.3203 22.8647 13.8317V8.97923V0.660645" stroke="#0485FE" stroke-width="2.62501"/>
<path d="M13.1598 38.7847V39.6597H14.0348V38.7847H13.1598ZM13.1598 42.944H14.0348V42.069H13.1598V42.944ZM17.3191 42.944V42.069H16.4441V42.944H17.3191ZM17.3191 38.7847H16.4441V39.6597H17.3191V38.7847ZM14.0348 34.6265C14.0348 33.9612 14.5741 33.4219 15.2394 33.4219V31.6719C13.6076 31.6719 12.2848 32.9947 12.2848 34.6265H14.0348ZM14.0348 38.7847V34.6265H12.2848V38.7847H14.0348ZM9.69293 39.6597H13.1598V37.9097H9.69293V39.6597ZM8.48828 40.8643C8.48828 40.199 9.02762 39.6597 9.69293 39.6597V37.9097C8.06112 37.9097 6.73828 39.2325 6.73828 40.8643H8.48828ZM9.69293 42.069C9.02762 42.069 8.48828 41.5296 8.48828 40.8643H6.73828C6.73828 42.4961 8.06112 43.819 9.69293 43.819V42.069ZM13.1598 42.069H9.69293V43.819H13.1598V42.069ZM14.0348 46.4112V42.944H12.2848V46.4112H14.0348ZM15.2394 47.6158C14.5741 47.6158 14.0348 47.0765 14.0348 46.4112H12.2848C12.2848 48.043 13.6076 49.3658 15.2394 49.3658V47.6158ZM16.4441 46.4112C16.4441 47.0765 15.9047 47.6158 15.2394 47.6158V49.3658C16.8712 49.3658 18.1941 48.043 18.1941 46.4112H16.4441ZM16.4441 42.944V46.4112H18.1941V42.944H16.4441ZM21.4776 42.069H17.3191V43.819H21.4776V42.069ZM22.6822 40.8643C22.6822 41.5296 22.1429 42.069 21.4776 42.069V43.819C23.1094 43.819 24.4322 42.4961 24.4322 40.8643H22.6822ZM21.4776 39.6597C22.1429 39.6597 22.6822 40.199 22.6822 40.8643H24.4322C24.4322 39.2325 23.1094 37.9097 21.4776 37.9097V39.6597ZM17.3191 39.6597H21.4776V37.9097H17.3191V39.6597ZM16.4441 34.6265V38.7847H18.1941V34.6265H16.4441ZM15.2394 33.4219C15.9047 33.4219 16.4441 33.9612 16.4441 34.6265H18.1941C18.1941 32.9947 16.8712 31.6719 15.2394 31.6719V33.4219Z" fill="#0485FE"/>
<circle cx="49.9008" cy="34.6291" r="2.77286" stroke="#0485FE" stroke-width="1.75"/>
<circle cx="49.9008" cy="45.7206" r="2.77286" stroke="#0485FE" stroke-width="1.75"/>
<circle cx="55.443" cy="40.1733" r="2.77286" transform="rotate(90 55.443 40.1733)" stroke="#0485FE" stroke-width="1.75"/>
<circle cx="44.3551" cy="40.1733" r="2.77286" transform="rotate(90 44.3551 40.1733)" stroke="#0485FE" stroke-width="1.75"/>
</svg>
