<svg width="75" height="63" viewBox="0 0 75 63" fill="none" xmlns="http://www.w3.org/2000/svg">
<circle cx="17.848" cy="17.8363" r="7.16634" stroke="#0485FE" stroke-width="2.62501"/>
<circle cx="17.8486" cy="17.9736" r="15.8486" stroke="#0485FE" stroke-width="2.62501"/>
<path d="M9.99121 31.3418V56.9598C9.99121 59.4039 11.9726 61.3853 14.4167 61.3853H20.5874C23.0316 61.3853 25.013 59.4039 25.013 56.9598V31.3418" stroke="#0485FE" stroke-width="2.62501"/>
<path d="M73.2519 30.9283V4.67906C73.2519 3.34589 72.1712 2.26514 70.838 2.26514H56.8595C48.7494 2.26514 42.1748 8.8397 42.1748 16.9498V18.6576C42.1748 26.7677 48.7494 33.3422 56.8595 33.3422H70.838C72.1712 33.3422 73.2519 32.2615 73.2519 30.9283Z" stroke="#0485FE" stroke-width="2.62501"/>
<path d="M65.0547 2.40186V33.5479" stroke="#0485FE" stroke-width="2.62501"/>
<path d="M42.1064 15.4277V53.9468C42.1064 57.6383 45.099 60.6308 48.7904 60.6308V60.6308C52.4819 60.6308 55.4744 57.6383 55.4744 53.9468V33.2058" stroke="#0485FE" stroke-width="2.62501"/>
</svg>
