<svg width="74" height="72" viewBox="0 0 74 72" fill="none" xmlns="http://www.w3.org/2000/svg">
<path d="M6.11523 61.889L15.7231 27.5752" stroke="#0485FE" stroke-width="2.62501" stroke-linecap="round"/>
<path d="M30.9036 61.8903V31.9074M51.9997 22.3129L52.8458 31.3205C52.9303 32.2196 53.6851 32.9068 54.5882 32.9068H55.9801M59.3635 19.5145L59.0159 31.2088C58.9878 32.1547 58.2129 32.9068 57.2667 32.9068H55.9801M55.9801 32.9068V41.9017M25.3311 12.5184L49.7649 3.35283C54.5334 1.56408 59.8537 3.94266 61.7005 8.68895V8.68895C63.5872 13.5378 61.1299 18.9913 56.2478 20.7902L31.5007 29.9085" stroke="#0485FE" stroke-width="2.62501" stroke-linecap="round"/>
<rect x="2" y="61.8916" width="70.0002" height="8.23531" rx="1.75" stroke="#0485FE" stroke-width="2.62501"/>
<rect x="51.4102" y="49.5359" width="8.23531" height="12.353" rx="1.75" stroke="#0485FE" stroke-width="2.62501"/>
<circle cx="24.6457" cy="22.7715" r="4.80393" stroke="#0485FE" stroke-width="2.62501"/>
<circle cx="53.4675" cy="11.7908" r="3.43138" stroke="#0485FE" stroke-width="2.62501"/>
<circle cx="24.6467" cy="22.7722" r="10.2941" stroke="#0485FE" stroke-width="2.62501"/>
</svg>
