<svg width="68" height="45" viewBox="0 0 68 45" fill="none" xmlns="http://www.w3.org/2000/svg">
<mask id="path-1-inside-1_43_284" fill="white">
<path fill-rule="evenodd" clip-rule="evenodd" d="M22.9962 5.4458L24.4012 2.49524C24.9816 1.27639 26.2112 0.5 27.5612 0.5H39.8307C41.1806 0.5 42.4103 1.27639 42.9907 2.49524L44.3957 5.4458H61.8751C65.2579 5.4458 68.0001 8.18806 68.0001 11.5708V38.158C68.0001 41.5408 65.2579 44.283 61.8751 44.283H34.3126H6.75001C3.36726 44.283 0.625 41.5408 0.625 38.158V11.5708C0.625 8.18806 3.36726 5.4458 6.75001 5.4458H22.9962Z"/>
</mask>
<path d="M24.4012 2.49524L26.7712 3.62382V3.62382L24.4012 2.49524ZM22.9962 5.4458V8.07081H24.6536L25.3662 6.57438L22.9962 5.4458ZM42.9907 2.49524L40.6207 3.62381L40.6207 3.62382L42.9907 2.49524ZM44.3957 5.4458L42.0257 6.57438L42.7383 8.07081H44.3957V5.4458ZM22.0312 1.36666L20.6262 4.31722L25.3662 6.57438L26.7712 3.62382L22.0312 1.36666ZM27.5612 -2.12501C25.1987 -2.12501 23.0469 -0.766317 22.0312 1.36666L26.7712 3.62382C26.9163 3.3191 27.2237 3.12501 27.5612 3.12501V-2.12501ZM39.8307 -2.12501H27.5612V3.12501H39.8307V-2.12501ZM45.3607 1.36667C44.345 -0.766324 42.1931 -2.12501 39.8307 -2.12501V3.12501C40.1682 3.12501 40.4756 3.31911 40.6207 3.62381L45.3607 1.36667ZM46.7657 4.31722L45.3607 1.36666L40.6207 3.62382L42.0257 6.57438L46.7657 4.31722ZM44.3957 8.07081H61.8751V2.8208H44.3957V8.07081ZM61.8751 8.07081C63.8081 8.07081 65.3751 9.63781 65.3751 11.5708H70.6252C70.6252 6.73831 66.7076 2.8208 61.8751 2.8208V8.07081ZM65.3751 11.5708V38.158H70.6252V11.5708H65.3751ZM65.3751 38.158C65.3751 40.091 63.8081 41.658 61.8751 41.658V46.9081C66.7076 46.9081 70.6252 42.9905 70.6252 38.158H65.3751ZM61.8751 41.658H34.3126V46.9081H61.8751V41.658ZM34.3126 41.658H6.75001V46.9081H34.3126V41.658ZM6.75001 41.658C4.81701 41.658 3.25001 40.091 3.25001 38.158H-2.00001C-2.00001 42.9905 1.91751 46.9081 6.75001 46.9081V41.658ZM3.25001 38.158V11.5708H-2.00001V38.158H3.25001ZM3.25001 11.5708C3.25001 9.63781 4.81701 8.07081 6.75001 8.07081V2.8208C1.91751 2.8208 -2.00001 6.73831 -2.00001 11.5708H3.25001ZM6.75001 8.07081H22.9962V2.8208H6.75001V8.07081Z" fill="#0485FE" mask="url(#path-1-inside-1_43_284)"/>
<mask id="path-3-inside-2_43_284" fill="white">
<rect x="5.875" y="10.125" width="11.7443" height="4.94496" rx="1.75"/>
</mask>
<rect x="5.875" y="10.125" width="11.7443" height="4.94496" rx="1.75" stroke="#0485FE" stroke-width="4.94496" mask="url(#path-3-inside-2_43_284)"/>
<mask id="path-4-inside-3_43_284" fill="white">
<rect x="50.6914" y="1.7373" width="11.7443" height="4.94496" rx="1.75"/>
</mask>
<rect x="50.6914" y="1.7373" width="11.7443" height="4.94496" rx="1.75" stroke="#0485FE" stroke-width="4.94496" mask="url(#path-4-inside-3_43_284)"/>
<circle cx="33.9874" cy="24.6068" r="11.0499" stroke="#0485FE" stroke-width="2.62501"/>
</svg>
