<svg width="60" height="54" viewBox="0 0 60 54" fill="none" xmlns="http://www.w3.org/2000/svg">
<path d="M9.61328 23.0913C10.1708 15.9838 15.4978 2.26221 33.5851 2.26221C51.6724 2.26221 57.495 15.9838 57.9906 23.0913C58.2177 28.9564 54.5342 41.4648 37.9831 44.5782" stroke="#0485FE" stroke-width="2.84937" stroke-linecap="round"/>
<path d="M45.0443 4.3999C43.2686 5.38654 40.3491 7.67775 42.8763 8.94942C38.1067 9.44274 39.0978 11.3612 40.027 11.7997C37.3634 12.7316 36.9918 14.5404 39.0359 14.9789C34.576 19.3092 35.1954 25.5031 39.0359 25.6127C42.8763 25.7223 43.248 24.5164 44.363 28.4082C45.4779 32.3 41.8233 38.2198 52.2916 37.0687" stroke="#0485FE" stroke-width="2.84937" stroke-linecap="round" stroke-linejoin="round"/>
<path d="M20.7626 5.11279C23.0544 5.58784 27.6382 7.22859 27.6382 9.99119C27.6382 12.7538 24.4172 13.8099 22.8067 13.9926C20.7419 15.1985 16.7487 18.0159 17.2938 19.6384C17.9751 21.6665 26.2755 22.982 26.2135 25.0649C26.164 26.7312 29.0422 27.1113 30.4876 27.093" stroke="#0485FE" stroke-width="2.84937" stroke-linecap="round" stroke-linejoin="round"/>
<path d="M29.3787 34.5041C30.0287 34.5041 30.5556 33.9771 30.5556 33.3271C30.5556 32.6772 30.0287 32.1502 29.3787 32.1502V34.5041ZM1.1678 32.4949C0.708185 32.9546 0.708185 33.6997 1.1678 34.1594L8.65762 41.6492C9.11723 42.1088 9.86241 42.1088 10.322 41.6492C10.7816 41.1896 10.7816 40.4444 10.322 39.9848L3.6644 33.3271L10.322 26.6695C10.7816 26.2099 10.7816 25.4647 10.322 25.0051C9.86241 24.5455 9.11723 24.5455 8.65762 25.0051L1.1678 32.4949ZM29.3787 32.1502H2V34.5041H29.3787V32.1502Z" fill="#0485FE"/>
<path d="M5.22092 45.7731C4.57093 45.7731 4.04401 45.2462 4.04401 44.5962C4.04401 43.9462 4.57093 43.4193 5.22092 43.4193V45.7731ZM33.4318 43.764C33.8914 44.2236 33.8914 44.9688 33.4318 45.4284L25.942 52.9182C25.4824 53.3778 24.7372 53.3778 24.2776 52.9182C23.818 52.4586 23.818 51.7134 24.2776 51.2538L30.9352 44.5962L24.2776 37.9386C23.818 37.479 23.818 36.7338 24.2776 36.2742C24.7372 35.8146 25.4824 35.8146 25.942 36.2742L33.4318 43.764ZM5.22092 43.4193H32.5996V45.7731H5.22092V43.4193Z" fill="#0485FE"/>
</svg>
