<svg width="320" height="173" viewBox="0 0 320 173" fill="none" xmlns="http://www.w3.org/2000/svg">
<path d="M222.235 94.7948L222.527 96.0864L222.872 96.0086L223.132 95.7695L222.235 94.7948ZM324.433 2.08913C324.463 1.35842 323.896 0.74125 323.165 0.710634L311.258 0.211706C310.527 0.181089 309.91 0.748623 309.879 1.47933C309.848 2.21003 310.416 2.8272 311.147 2.85782L321.731 3.30131L321.288 13.8858C321.257 14.6165 321.825 15.2337 322.555 15.2643C323.286 15.2949 323.903 14.7274 323.934 13.9966L324.433 2.08913ZM113.675 119.327L113.383 118.035L113.246 118.066L113.118 118.125L113.675 119.327ZM223.132 95.7695L324.006 3.00843L322.213 1.05895L221.339 93.82L223.132 95.7695ZM1.61652 172.735L114.232 120.528L113.118 118.125L0.502617 170.332L1.61652 172.735ZM113.967 120.618L222.527 96.0864L221.943 93.5031L113.383 118.035L113.967 120.618Z" fill="url(#paint0_linear_425_7185)" fill-opacity="0.35"/>
<defs>
<linearGradient id="paint0_linear_425_7185" x1="162.085" y1="2.03369" x2="162.085" y2="171.534" gradientUnits="userSpaceOnUse">
<stop stop-color="#00AB00"/>
<stop offset="1" stop-color="#006F00"/>
</linearGradient>
</defs>
</svg>
