<svg width="317" height="173" viewBox="0 0 317 173" fill="none" xmlns="http://www.w3.org/2000/svg">
<path d="M212.93 94.9408L213.217 96.2334L213.558 96.1575L213.818 95.9227L212.93 94.9408ZM316.786 2.24587C316.822 1.51544 316.26 0.893674 315.529 0.857123L303.626 0.261498C302.896 0.224947 302.274 0.787449 302.237 1.51788C302.201 2.24831 302.763 2.87008 303.494 2.90663L314.074 3.43607L313.545 14.0166C313.508 14.747 314.071 15.3688 314.801 15.4053C315.532 15.4419 316.153 14.8794 316.19 14.1489L316.786 2.24587ZM102.584 119.473L102.297 118.18L102.161 118.21L102.034 118.268L102.584 119.473ZM213.818 95.9227L316.351 3.16168L314.575 1.1977L212.041 93.9588L213.818 95.9227ZM-11.3343 172.885L103.133 120.677L102.034 118.268L-12.4333 170.475L-11.3343 172.885ZM102.871 120.765L213.217 96.2334L212.642 93.6481L102.297 118.18L102.871 120.765Z" fill="#0485FE" fill-opacity="0.3"/>
</svg>
