<svg width="611" height="325" viewBox="0 0 611 325" fill="none" xmlns="http://www.w3.org/2000/svg">
<path d="M414.926 179.124L415.469 181.565L416.114 181.421L416.604 180.978L414.926 179.124ZM610.997 4.12494C611.066 2.74596 610.004 1.57213 608.625 1.50312L586.153 0.378638C584.774 0.309634 583.6 1.37158 583.531 2.75057C583.462 4.12956 584.524 5.30339 585.903 5.37239L605.878 6.37193L604.879 26.3469C604.81 27.7259 605.872 28.8998 607.251 28.9688C608.63 29.0378 609.803 27.9758 609.872 26.5968L610.997 4.12494ZM206.604 225.438L206.062 222.998L205.806 223.054L205.567 223.163L206.604 225.438ZM416.604 180.978L610.177 5.85391L606.823 2.14609L413.249 177.27L416.604 180.978ZM-8.46259 326.275L207.642 227.713L205.567 223.163L-10.5374 321.725L-8.46259 326.275ZM207.147 227.878L415.469 181.565L414.384 176.684L206.062 222.998L207.147 227.878Z" fill="#0485FE" fill-opacity="0.3"/>
</svg>
