<svg width="613" height="325" viewBox="0 0 613 325" fill="none" xmlns="http://www.w3.org/2000/svg">
<path d="M419.559 179.124L420.11 181.563L420.76 181.416L421.251 180.964L419.559 179.124ZM612.498 4.10466C612.556 2.72516 611.484 1.55999 610.105 1.50219L587.624 0.560264C586.245 0.502462 585.08 1.57391 585.022 2.95341C584.964 4.33291 586.036 5.49808 587.415 5.55588L607.398 6.39315L606.56 26.3756C606.502 27.7551 607.574 28.9203 608.953 28.9781C610.333 29.0359 611.498 27.9644 611.556 26.5849L612.498 4.10466ZM214.607 225.438L214.056 222.999L213.797 223.058L213.556 223.17L214.607 225.438ZM421.251 180.964L611.692 5.84022L608.308 2.15978L417.866 177.284L421.251 180.964ZM3.05147 326.268L215.659 227.706L213.556 223.17L0.948525 321.732L3.05147 326.268ZM215.159 227.876L420.11 181.563L419.008 176.686L214.056 222.999L215.159 227.876Z" fill="url(#paint0_linear_231_1192)" fill-opacity="0.35"/>
<defs>
<linearGradient id="paint0_linear_231_1192" x1="306" y1="4" x2="306" y2="324" gradientUnits="userSpaceOnUse">
<stop stop-color="#00AB00"/>
<stop offset="1" stop-color="#006F00"/>
</linearGradient>
</defs>
</svg>
