<svg width="26" height="9" viewBox="0 0 26 9" fill="none" xmlns="http://www.w3.org/2000/svg">
<path d="M1 4.00732C0.723858 4.00732 0.5 4.23118 0.5 4.50732C0.5 4.78347 0.723858 5.00732 1 5.00732L1 4.00732ZM25.3536 4.86088C25.5488 4.66562 25.5488 4.34904 25.3536 4.15377L22.1716 0.971792C21.9763 0.77653 21.6597 0.77653 21.4645 0.971792C21.2692 1.16705 21.2692 1.48364 21.4645 1.6789L24.2929 4.50733L21.4645 7.33575C21.2692 7.53102 21.2692 7.8476 21.4645 8.04286C21.6597 8.23812 21.9763 8.23812 22.1716 8.04286L25.3536 4.86088ZM1 5.00732L25 5.00733L25 4.00733L1 4.00732L1 5.00732Z" fill="black"/>
</svg>
