<svg width="67" height="9" viewBox="0 0 67 9" fill="none" xmlns="http://www.w3.org/2000/svg">
<path id="Line 2" d="M1 4C0.723858 4 0.5 4.22386 0.5 4.5C0.5 4.77614 0.723858 5 1 5V4ZM66.3536 4.85355C66.5488 4.65829 66.5488 4.34171 66.3536 4.14645L63.1716 0.964466C62.9763 0.769204 62.6597 0.769204 62.4645 0.964466C62.2692 1.15973 62.2692 1.47631 62.4645 1.67157L65.2929 4.5L62.4645 7.32843C62.2692 7.52369 62.2692 7.84027 62.4645 8.03553C62.6597 8.2308 62.9763 8.2308 63.1716 8.03553L66.3536 4.85355ZM1 5H66V4H1V5Z" fill="white"/>
</svg>
