<svg width="46" height="46" viewBox="0 0 46 46" fill="none" xmlns="http://www.w3.org/2000/svg">
<path fill-rule="evenodd" clip-rule="evenodd" d="M13.4549 4.17578C8.32804 4.17578 4.17188 8.33195 4.17188 13.4588V32.025C4.17188 37.1519 8.32804 41.308 13.4549 41.308H32.0211C37.148 41.308 41.3041 37.1519 41.3041 32.025V13.4588C41.3041 8.33195 37.148 4.17578 32.0211 4.17578H13.4549ZM31.353 15.7458C32.1408 16.4023 32.2472 17.573 31.5908 18.3607L22.3077 29.5004C21.9836 29.8893 21.5147 30.129 21.0096 30.164C20.5046 30.1989 20.0071 30.0261 19.6325 29.6856L14.0627 24.6221C13.304 23.9323 13.248 22.7581 13.9378 21.9994C14.6275 21.2407 15.8017 21.1848 16.5605 21.8745L20.696 25.6341L28.7382 15.9835C29.3946 15.1958 30.5653 15.0894 31.353 15.7458Z" fill="#1ECC82"/>
</svg>
