<svg width="60" height="51" viewBox="0 0 60 51" fill="none" xmlns="http://www.w3.org/2000/svg">
<circle cx="14.3465" cy="14.6433" r="5.77615" stroke="white" stroke-width="2"/>
<circle cx="14.3465" cy="14.7547" r="12.7742" stroke="white" stroke-width="2"/>
<path d="M8.01465 25.5293V44.687C8.01465 47.4803 10.2791 49.7447 13.0724 49.7447H15.0646C17.8579 49.7447 20.1224 47.4803 20.1224 44.687V25.5293" stroke="white" stroke-width="2"/>
<path d="M59.0007 24.382V4.85105C59.0007 3.32742 57.7655 2.09229 56.2419 2.09229H46.4764C39.5595 2.09229 33.9521 7.69959 33.9521 14.6165C33.9521 21.5335 39.5594 27.1408 46.4764 27.1408H56.2419C57.7655 27.1408 59.0007 25.9057 59.0007 24.382Z" stroke="white" stroke-width="2"/>
<path d="M52.3916 2.20361V27.3077" stroke="white" stroke-width="2"/>
<path d="M33.8965 12.7002V43.747C33.8965 46.7224 36.3085 49.1344 39.2839 49.1344V49.1344C42.2592 49.1344 44.6712 46.7224 44.6712 43.747V27.0295" stroke="white" stroke-width="2"/>
</svg>
