<svg width="61" height="61" viewBox="0 0 61 61" fill="none" xmlns="http://www.w3.org/2000/svg">
<path d="M31.8859 49.2159V43.6704L24.9541 36.7386V33.2727" stroke="white" stroke-width="2"/>
<path d="M27.7274 13.8637V19.4092L34.6592 26.341V29.8069" stroke="white" stroke-width="2"/>
<rect x="11.0908" y="12.4773" width="37.4318" height="37.4318" rx="2" stroke="white" stroke-width="2"/>
<path d="M18.7158 49.9092V60.3069" stroke="white" stroke-width="2"/>
<path d="M18.7158 2.77271V13.1704" stroke="white" stroke-width="2"/>
<path d="M30.5 49.9092V60.3069" stroke="white" stroke-width="2"/>
<path d="M30.5 2.77271V13.1704" stroke="white" stroke-width="2"/>
<path d="M41.5908 49.9092V60.3069" stroke="white" stroke-width="2"/>
<path d="M41.5908 2.77271V13.1704" stroke="white" stroke-width="2"/>
<path d="M11.7842 20.1018L1.38645 20.1016" stroke="white" stroke-width="2"/>
<path d="M58.9209 20.103L48.5232 20.1028" stroke="white" stroke-width="2"/>
<path d="M11.7842 31.8857L1.38645 31.8855" stroke="white" stroke-width="2"/>
<path d="M58.9209 31.887L48.5232 31.8868" stroke="white" stroke-width="2"/>
<path d="M11.7842 42.9768L1.38645 42.9766" stroke="white" stroke-width="2"/>
<path d="M58.9199 42.978L48.5222 42.9778" stroke="white" stroke-width="2"/>
<circle cx="24.955" cy="30.4999" r="4.15909" fill="white"/>
<circle cx="34.6591" cy="33.2726" r="4.15909" fill="white"/>
</svg>
