<svg width="360" height="2174" viewBox="0 0 360 2174" fill="none" xmlns="http://www.w3.org/2000/svg">
<g filter="url(#filter0_f_1432_1681)">
<path d="M364.283 428.764C371.842 480.116 -36.9197 833.884 -63.4582 842.474C-89.9968 851.064 275.738 511.223 268.179 459.871C260.62 408.519 276.006 359.927 302.544 351.337C329.083 342.747 356.724 377.412 364.283 428.764Z" fill="url(#paint0_linear_1432_1681)"/>
</g>
<g filter="url(#filter1_f_1432_1681)">
<ellipse cx="116.063" cy="121.99" rx="68.6796" ry="27.6725" transform="rotate(-12.6025 116.063 121.99)" fill="url(#paint1_linear_1432_1681)"/>
</g>
<g filter="url(#filter2_f_1432_1681)">
<ellipse cx="299.453" cy="161.052" rx="68.6796" ry="23.7142" transform="rotate(-12.6025 299.453 161.052)" fill="url(#paint2_linear_1432_1681)"/>
</g>
<g filter="url(#filter3_f_1432_1681)">
<path d="M397.815 1273.06C54.0109 1139.27 57.1881 1629.59 16.319 1650.67C-24.5501 1671.75 17.6764 1257.15 -9.13493 1177C-35.9462 1096.85 -24.5503 1014.79 16.3187 993.708C57.1878 972.628 371.003 1192.91 397.815 1273.06Z" fill="url(#paint3_linear_1432_1681)" fill-opacity="0.3"/>
</g>
<g filter="url(#filter4_f_1432_1681)">
<path d="M250.5 1754.5C63.5 1681.73 125.316 2051.18 103.086 2062.65C80.857 2074.11 353.237 1723.21 338.654 1679.61C324.071 1636.02 330.269 1591.38 352.499 1579.92C374.728 1568.45 235.917 1710.91 250.5 1754.5Z" fill="url(#paint4_linear_1432_1681)" fill-opacity="0.3"/>
</g>
<defs>
<filter id="filter0_f_1432_1681" x="-174.092" y="240.775" width="647.736" height="711.115" filterUnits="userSpaceOnUse" color-interpolation-filters="sRGB">
<feFlood flood-opacity="0" result="BackgroundImageFix"/>
<feBlend mode="normal" in="SourceGraphic" in2="BackgroundImageFix" result="shape"/>
<feGaussianBlur stdDeviation="54.6283" result="effect1_foregroundBlur_1432_1681"/>
</filter>
<filter id="filter1_f_1432_1681" x="-42.2854" y="0.0505676" width="316.696" height="243.875" filterUnits="userSpaceOnUse" color-interpolation-filters="sRGB">
<feFlood flood-opacity="0" result="BackgroundImageFix"/>
<feBlend mode="normal" in="SourceGraphic" in2="BackgroundImageFix" result="shape"/>
<feGaussianBlur stdDeviation="45.5235" result="effect1_foregroundBlur_1432_1681"/>
</filter>
<filter id="filter2_f_1432_1681" x="141.179" y="42.4334" width="316.547" height="237.239" filterUnits="userSpaceOnUse" color-interpolation-filters="sRGB">
<feFlood flood-opacity="0" result="BackgroundImageFix"/>
<feBlend mode="normal" in="SourceGraphic" in2="BackgroundImageFix" result="shape"/>
<feGaussianBlur stdDeviation="45.5235" result="effect1_foregroundBlur_1432_1681"/>
</filter>
<filter id="filter3_f_1432_1681" x="-81.1484" y="934.793" width="536.465" height="774.156" filterUnits="userSpaceOnUse" color-interpolation-filters="sRGB">
<feFlood flood-opacity="0" result="BackgroundImageFix"/>
<feBlend mode="normal" in="SourceGraphic" in2="BackgroundImageFix" result="shape"/>
<feGaussianBlur stdDeviation="20.4344" result="effect1_foregroundBlur_1432_1681"/>
</filter>
<filter id="filter4_f_1432_1681" x="-9.20312" y="1468.27" width="475.117" height="705.656" filterUnits="userSpaceOnUse" color-interpolation-filters="sRGB">
<feFlood flood-opacity="0" result="BackgroundImageFix"/>
<feBlend mode="normal" in="SourceGraphic" in2="BackgroundImageFix" result="shape"/>
<feGaussianBlur stdDeviation="55.5" result="effect1_foregroundBlur_1432_1681"/>
</filter>
<linearGradient id="paint0_linear_1432_1681" x1="302.544" y1="351.337" x2="359.624" y2="527.683" gradientUnits="userSpaceOnUse">
<stop stop-color="#04FE9A"/>
<stop offset="1" stop-color="#0084FF"/>
</linearGradient>
<linearGradient id="paint1_linear_1432_1681" x1="116.063" y1="94.3171" x2="116.063" y2="149.662" gradientUnits="userSpaceOnUse">
<stop stop-color="#0485FE"/>
<stop offset="1" stop-color="#00FFBB"/>
</linearGradient>
<linearGradient id="paint2_linear_1432_1681" x1="299.453" y1="137.338" x2="299.453" y2="184.767" gradientUnits="userSpaceOnUse">
<stop stop-color="#0485FE"/>
<stop offset="1" stop-color="#00FFBB"/>
</linearGradient>
<linearGradient id="paint3_linear_1432_1681" x1="-52.6253" y1="1471.4" x2="189.555" y2="1523.12" gradientUnits="userSpaceOnUse">
<stop offset="0.0192308" stop-color="#04FE9A"/>
<stop offset="0.442308" stop-color="#0084FF"/>
</linearGradient>
<linearGradient id="paint4_linear_1432_1681" x1="314.999" y1="1839.74" x2="446.724" y2="1867.88" gradientUnits="userSpaceOnUse">
<stop offset="0.0192308" stop-color="#04FE9A"/>
<stop offset="0.442308" stop-color="#0084FF"/>
</linearGradient>
</defs>
</svg>
