<svg width="56" height="41" viewBox="0 0 56 41" fill="none" xmlns="http://www.w3.org/2000/svg">
<path d="M38.3957 6.87951L38.6669 7.11587C38.9082 7.03289 39.1495 6.96752 39.4082 6.965C42.0873 6.92477 45.5823 6.73367 48.1744 6.97757C48.8609 7.04295 49.7714 7.1913 50.1968 7.77717L55.6794 18.979C55.4431 23.6207 56.1446 28.8733 55.7316 33.4471C55.4555 36.4996 50.8037 34.7647 48.759 35.2525C48.2266 36.0269 47.9978 36.8818 47.4132 37.6588C44.1594 41.9937 37.9803 41.3148 35.5251 36.5248C35.244 35.9766 35.3435 35.1645 34.5823 35.2173L22.6718 35.2525C22.127 36.0822 21.8732 36.9522 21.2439 37.7644C18.729 41.0231 14.0448 41.4933 10.9976 38.7123C9.92045 37.7292 9.51746 36.4845 8.83089 35.2525C6.54232 34.9583 3.61942 35.5617 1.41294 35.2147C0.671645 35.0966 0.355723 34.561 0.0920403 33.9123L0 1.97384C0.0920403 0.950459 0.393037 0.502888 1.30598 0.0905199L36.6295 0C37.3808 0.00754332 38.3957 0.880054 38.3957 1.60673V6.87951ZM34.8534 31.6468V3.86721L34.5748 3.58559H3.54977V31.6493H8.86074C11.1195 24.8175 20.4553 24.5636 22.3708 31.6493H34.8559L34.8534 31.6468ZM41.749 10.7417H38.3957V27.3169C42.2539 25.0262 47.5276 27.2465 48.458 31.6493H52.1843V21.2898H43.7067C43.0724 21.2898 41.749 20.4097 41.749 19.6881V10.7417ZM51.0649 17.5206L47.8062 10.9252C47.341 10.5078 45.948 10.8448 45.2888 10.7392V17.5206H51.0649ZM13.3035 30.9603C9.69905 34.3598 15.8782 39.7558 18.612 35.2902C20.7364 31.8203 16.2687 28.1668 13.3035 30.9603ZM39.3907 30.9603C35.7863 34.3598 41.9654 39.7558 44.6992 35.2902C46.8236 31.8203 42.3559 28.1668 39.3907 30.9603Z" fill="#0485FE"/>
</svg>
