<svg width="48" height="60" viewBox="0 0 48 60" fill="none" xmlns="http://www.w3.org/2000/svg">
<g clip-path="url(#clip0_1_781)">
<path d="M29.1372 7.99572H36.2227C37.1816 7.99572 38.0498 9.01904 38.1742 9.93822L41.5433 28.5482C43.0931 29.4127 47.0349 29.5143 47.1852 31.7172L40.2034 51.8791C43.2641 51.8791 44.3837 55.2329 47.193 55.3917V59.0971C45.8324 59.2247 44.4666 58.7247 43.3263 58.006C41.6936 56.9775 41.4163 55.5115 39.1331 55.5714C37.3345 55.6183 36.1579 57.6102 34.5511 58.3914C32.1227 59.5736 29.6089 59.3106 27.4086 57.8107C25.8769 56.7692 25.5582 55.4881 23.4045 55.574C21.0332 55.6703 19.8229 58.67 16.7933 59.0788C13.051 59.5814 12.3253 57.8967 9.78815 56.2015C6.65488 54.108 5.34352 57.3629 2.97478 58.4565C2.09362 58.8627 0.987003 59.1726 0.0177366 59.0945V55.3891C2.84519 55.186 3.91294 51.8504 7.00734 51.8765L0.152501 32.7327C-0.907472 29.1627 3.84297 29.9335 5.61305 28.3451L9.03658 9.74553C9.0599 8.98519 10.1121 7.99832 10.7911 7.99832H18.071V2.43641C18.071 1.93386 19.0376 0.939173 19.5689 0.819394C20.6911 0.564212 25.7784 0.644933 27.1079 0.76992C28.0487 0.858452 29.1372 1.61358 29.1372 2.6317V7.99572ZM25.2549 4.48567H21.7614V7.99572H25.2549V4.48567ZM34.7662 11.8989L12.4627 11.9172L9.72595 27.1109L23.6067 22.6244L37.4848 27.1109L34.7662 11.8989ZM21.7614 27.1109L4.30687 33.0764L11.3664 52.6733C12.9681 53.7851 13.7974 55.561 16.0314 55.3995C17.6952 55.2798 18.3301 54.0169 19.4497 53.168C20.2194 52.5847 21.0669 52.4051 21.7614 51.7853V27.1109ZM25.4493 27.1109V52.077C28.269 52.4571 28.9972 55.876 32.0994 55.3449C33.6103 55.0871 34.5485 53.4024 35.8469 52.6759L42.9246 33.066L25.4467 27.1109H25.4493Z" fill="#0485FE"/>
<path d="M30.8879 15.406H16.3281V19.1113H30.8879V15.406Z" fill="#0485FE"/>
</g>
<defs>
<clipPath id="clip0_1_781">
<rect width="47.1934" height="58.5198" fill="white" transform="translate(0 0.652588)"/>
</clipPath>
</defs>
</svg>
