<svg width="1920" height="4935" viewBox="0 0 1920 4935" fill="none" xmlns="http://www.w3.org/2000/svg">
<g filter="url(#filter0_f_1432_1681)">
<path d="M811.619 4107.14C770.536 4167.48 -985.653 3335.31 -1081.4 3270.12C-1177.15 3204.93 423.793 3931.4 464.876 3871.06C505.959 3810.72 616.884 3814.65 712.635 3879.84C808.386 3945.03 852.702 4046.8 811.619 4107.14Z" fill="url(#paint0_linear_1432_1681)"/>
</g>
<g filter="url(#filter1_f_1432_1681)">
<path d="M1526.76 5358.2C1469.27 5442.65 -988.408 4278.08 -1122.4 4186.85C-1256.4 4095.62 984.022 5112.27 1041.52 5027.82C1099.01 4943.38 1254.24 4948.88 1388.24 5040.12C1522.24 5131.35 1584.25 5273.76 1526.76 5358.2Z" fill="url(#paint1_linear_1432_1681)"/>
</g>
<g filter="url(#filter2_f_1432_1681)">
<path d="M2868.58 2391.81C2967.34 2601.02 1238.15 4470.41 1109.3 4531.23C980.446 4592.06 2500.73 2821.29 2401.97 2612.08C2303.21 2402.86 2327.61 2183.96 2456.46 2123.13C2585.31 2062.31 2769.82 2182.6 2868.58 2391.81Z" fill="url(#paint2_linear_1432_1681)"/>
</g>
<g filter="url(#filter3_f_1432_1681)">
<path d="M2045.47 553.691C2045.17 510.19 2857.92 325.457 2907.03 325.116C2956.14 324.775 2223.01 508.953 2223.31 552.455C2223.61 595.957 2184.05 631.498 2134.94 631.84C2085.83 632.181 2045.77 597.193 2045.47 553.691Z" fill="url(#paint3_linear_1432_1681)"/>
</g>
<g filter="url(#filter4_f_1432_1681)">
<ellipse cx="-29.7644" cy="815.599" rx="377.165" ry="151.968" transform="rotate(-12.6025 -29.7644 815.599)" fill="url(#paint4_linear_1432_1681)"/>
</g>
<g filter="url(#filter5_f_1432_1681)">
<ellipse cx="1644.49" cy="928.385" rx="377.165" ry="130.23" transform="rotate(-12.6025 1644.49 928.385)" fill="url(#paint5_linear_1432_1681)"/>
</g>
<g filter="url(#filter6_f_1432_1681)">
<ellipse cx="1498.65" cy="1846.95" rx="664.599" ry="229.478" transform="rotate(150 1498.65 1846.95)" fill="url(#paint6_linear_1432_1681)"/>
</g>
<g filter="url(#filter7_f_1432_1681)">
<path d="M1006.17 1414.22C1084.25 1602.2 -567.151 3195.49 -686.175 3244.93C-805.199 3294.37 653.225 1781.23 575.142 1593.25C497.059 1405.27 530.248 1212.81 649.272 1163.37C768.295 1113.93 928.082 1226.23 1006.17 1414.22Z" fill="url(#paint7_linear_1432_1681)"/>
</g>
<defs>
<filter id="filter0_f_1432_1681" x="-1385.53" y="2965.98" width="2512.49" height="1444.29" filterUnits="userSpaceOnUse" color-interpolation-filters="sRGB">
<feFlood flood-opacity="0" result="BackgroundImageFix"/>
<feBlend mode="normal" in="SourceGraphic" in2="BackgroundImageFix" result="shape"/>
<feGaussianBlur stdDeviation="150" result="effect1_foregroundBlur_1432_1681"/>
</filter>
<filter id="filter1_f_1432_1681" x="-1428.18" y="3881.05" width="3276.4" height="1781.53" filterUnits="userSpaceOnUse" color-interpolation-filters="sRGB">
<feFlood flood-opacity="0" result="BackgroundImageFix"/>
<feBlend mode="normal" in="SourceGraphic" in2="BackgroundImageFix" result="shape"/>
<feGaussianBlur stdDeviation="150" result="effect1_foregroundBlur_1432_1681"/>
</filter>
<filter id="filter2_f_1432_1681" x="501.539" y="1507.34" width="2971.11" height="3625.42" filterUnits="userSpaceOnUse" color-interpolation-filters="sRGB">
<feFlood flood-opacity="0" result="BackgroundImageFix"/>
<feBlend mode="normal" in="SourceGraphic" in2="BackgroundImageFix" result="shape"/>
<feGaussianBlur stdDeviation="300" result="effect1_foregroundBlur_1432_1681"/>
</filter>
<filter id="filter3_f_1432_1681" x="1545.47" y="-174.885" width="1863.93" height="1306.73" filterUnits="userSpaceOnUse" color-interpolation-filters="sRGB">
<feFlood flood-opacity="0" result="BackgroundImageFix"/>
<feBlend mode="normal" in="SourceGraphic" in2="BackgroundImageFix" result="shape"/>
<feGaussianBlur stdDeviation="250" result="effect1_foregroundBlur_1432_1681"/>
</filter>
<filter id="filter4_f_1432_1681" x="-899.357" y="145.959" width="1739.19" height="1339.28" filterUnits="userSpaceOnUse" color-interpolation-filters="sRGB">
<feFlood flood-opacity="0" result="BackgroundImageFix"/>
<feBlend mode="normal" in="SourceGraphic" in2="BackgroundImageFix" result="shape"/>
<feGaussianBlur stdDeviation="250" result="effect1_foregroundBlur_1432_1681"/>
</filter>
<filter id="filter5_f_1432_1681" x="775.301" y="276.957" width="1738.38" height="1302.85" filterUnits="userSpaceOnUse" color-interpolation-filters="sRGB">
<feFlood flood-opacity="0" result="BackgroundImageFix"/>
<feBlend mode="normal" in="SourceGraphic" in2="BackgroundImageFix" result="shape"/>
<feGaussianBlur stdDeviation="250" result="effect1_foregroundBlur_1432_1681"/>
</filter>
<filter id="filter6_f_1432_1681" x="411.656" y="959.703" width="2174" height="1774.5" filterUnits="userSpaceOnUse" color-interpolation-filters="sRGB">
<feFlood flood-opacity="0" result="BackgroundImageFix"/>
<feBlend mode="normal" in="SourceGraphic" in2="BackgroundImageFix" result="shape"/>
<feGaussianBlur stdDeviation="250" result="effect1_foregroundBlur_1432_1681"/>
</filter>
<filter id="filter7_f_1432_1681" x="-917.526" y="927.265" width="2150.81" height="2543.29" filterUnits="userSpaceOnUse" color-interpolation-filters="sRGB">
<feFlood flood-opacity="0" result="BackgroundImageFix"/>
<feBlend mode="normal" in="SourceGraphic" in2="BackgroundImageFix" result="shape"/>
<feGaussianBlur stdDeviation="112.219" result="effect1_foregroundBlur_1432_1681"/>
</filter>
<linearGradient id="paint0_linear_1432_1681" x1="712.636" y1="3879.84" x2="563.861" y2="4098.35" gradientUnits="userSpaceOnUse">
<stop stop-color="#04FE9A"/>
<stop offset="1" stop-color="#0084FF"/>
</linearGradient>
<linearGradient id="paint1_linear_1432_1681" x1="1388.24" y1="5040.12" x2="1180.04" y2="5345.91" gradientUnits="userSpaceOnUse">
<stop stop-color="#04FE9A"/>
<stop offset="1" stop-color="#0084FF"/>
</linearGradient>
<linearGradient id="paint2_linear_1432_1681" x1="2456.46" y1="2123.13" x2="2814.09" y2="2880.76" gradientUnits="userSpaceOnUse">
<stop stop-color="#04FE9A"/>
<stop offset="1" stop-color="#0084FF"/>
</linearGradient>
<linearGradient id="paint3_linear_1432_1681" x1="2134.94" y1="631.84" x2="2133.84" y2="474.307" gradientUnits="userSpaceOnUse">
<stop stop-color="#04FE9A"/>
<stop offset="1" stop-color="#0084FF"/>
</linearGradient>
<linearGradient id="paint4_linear_1432_1681" x1="-29.7644" y1="663.63" x2="-29.7644" y2="967.567" gradientUnits="userSpaceOnUse">
<stop stop-color="#0485FE"/>
<stop offset="1" stop-color="#00FFBB"/>
</linearGradient>
<linearGradient id="paint5_linear_1432_1681" x1="1644.49" y1="798.154" x2="1644.49" y2="1058.61" gradientUnits="userSpaceOnUse">
<stop stop-color="#0485FE"/>
<stop offset="1" stop-color="#00FFBB"/>
</linearGradient>
<linearGradient id="paint6_linear_1432_1681" x1="1498.65" y1="1617.48" x2="1498.65" y2="2076.43" gradientUnits="userSpaceOnUse">
<stop stop-color="#0485FE"/>
<stop offset="1" stop-color="#00FFBB"/>
</linearGradient>
<linearGradient id="paint7_linear_1432_1681" x1="649.272" y1="1163.36" x2="932.037" y2="1844.1" gradientUnits="userSpaceOnUse">
<stop stop-color="#04FE9A"/>
<stop offset="1" stop-color="#0084FF"/>
</linearGradient>
</defs>
</svg>
