<svg width="72" height="64" viewBox="0 0 72 64" fill="none" xmlns="http://www.w3.org/2000/svg">
<path d="M2 7.23828H13.6209L23.4811 42.0478H62.2527L70 7.23828" stroke="#0485FE" stroke-width="4" stroke-linecap="round"/>
<circle cx="29.1192" cy="56.2144" r="4.88095" stroke="#0485FE" stroke-width="4"/>
<circle cx="56.6427" cy="56.2144" r="4.88095" stroke="#0485FE" stroke-width="4"/>
<path d="M33.5713 16.6571C32.8322 16.6571 32.1534 17.0647 31.806 17.7171C31.4586 18.3694 31.4993 19.1602 31.9118 19.7734L40.0228 31.8306C40.3947 32.3835 41.0177 32.7149 41.684 32.7143C42.3504 32.7137 42.9727 32.3812 43.3437 31.8276L51.4232 19.7705C51.8343 19.157 51.8739 18.367 51.5262 17.7155C51.1786 17.064 50.5002 16.6571 49.7618 16.6571H45.2541V4C45.2541 2.89543 44.3587 2 43.2541 2H40.016C38.9115 2 38.016 2.89543 38.016 4V16.6571H33.5713Z" stroke="#0485FE" stroke-width="4" stroke-linecap="round" stroke-linejoin="round"/>
</svg>
