<svg width="88" height="107" viewBox="0 0 88 107" fill="none" xmlns="http://www.w3.org/2000/svg">
<mask id="mask0_108_662" style="mask-type:alpha" maskUnits="userSpaceOnUse" x="2" y="10" width="81" height="75">
<path d="M26.4008 30.9113L2.80078 37.6483V84.8076H82.0008V10.7002H52.8008V16.2483L56.0008 22.9854V30.9113H26.4008Z" fill="#D9D9D9"/>
</mask>
<g mask="url(#mask0_108_662)">
<path fill-rule="evenodd" clip-rule="evenodd" d="M30.7384 50.6579L32.4322 51.3514C33.1853 50.7539 34.3946 49.3637 35.3666 50.3266C39.3603 54.2834 39.3603 53.5558 37.2666 56.141L37.9666 57.819C38.9259 57.9243 40.7759 57.7881 40.7728 59.1535C40.7728 64.748 41.2947 64.2341 37.9666 64.5963L37.2666 66.2744C37.8697 67.0206 39.2728 68.2187 38.301 69.1817C34.3072 73.1384 35.0416 73.1384 32.4322 71.0641L30.7385 71.7576C30.6322 72.7081 30.7697 74.5409 29.3916 74.5378C23.7447 74.5378 24.2634 75.0549 23.8978 71.7576L22.2041 71.0641C21.451 71.6616 20.2416 73.0517 19.2697 72.0889C15.2759 68.1321 15.2759 68.8597 17.3697 66.2745L16.6697 64.5964C15.7103 64.4912 13.8603 64.6274 13.8634 63.262C13.8634 57.6674 13.3416 58.1813 16.6697 57.8191L17.3697 56.141C16.7666 55.3949 15.3634 54.1967 16.3384 53.2338C20.3322 49.277 19.5978 49.277 22.2071 51.3514L23.9009 50.6579C24.0071 49.7074 23.8696 47.8745 25.2478 47.8745C30.8946 47.8745 30.3759 47.3575 30.7415 50.6548L30.7384 50.6579ZM30.7103 53.0883C28.5509 52.2028 28.6759 53.0759 28.354 50.1749H26.279L26.1102 51.6703C25.979 52.8963 24.6884 52.4939 22.6946 53.7075C21.7978 54.2524 21.0665 53.3917 20.1759 52.6796L18.7103 54.1316C20.5259 56.3762 20.0478 55.6332 19.1228 57.8469C18.2291 59.9862 19.1135 59.8624 16.1822 60.1813V62.2371L17.6915 62.4043C18.9322 62.5343 18.5228 63.8099 19.7478 65.7883C20.2978 66.6768 19.429 67.4014 18.7103 68.2837L20.1759 69.7357C22.4321 67.94 21.6915 68.4075 23.9259 69.327C26.0821 70.2156 25.9603 69.3301 26.2821 72.2404H28.3571L28.5259 70.7451C28.6571 69.5159 29.9446 69.9246 31.9446 68.7079C32.8415 68.1629 33.5728 69.0237 34.4633 69.7358L35.9289 68.2837C34.1133 66.0422 34.5914 66.7822 35.5164 64.5685C36.4102 62.4291 35.5258 62.5529 38.4571 62.234V60.1782L36.9477 60.011C35.7071 59.881 36.1196 58.6054 34.8915 56.627C34.3415 55.7385 35.2102 55.014 35.929 54.1316L34.4634 52.6796C32.1978 54.4784 32.9478 54.0048 30.7165 53.0883H30.7103ZM27.3165 55.1162C23.9196 55.1162 21.1665 57.8439 21.1665 61.2093C21.1665 66.6181 27.8009 69.3492 31.6665 65.519C35.5321 61.6892 32.7759 55.1162 27.3165 55.1162ZM30.0228 58.5281C27.6196 56.1472 23.4852 57.8408 23.4852 61.2093C23.4852 64.5809 27.6165 66.2744 30.0228 63.8905C31.5165 62.4105 31.5165 60.008 30.0228 58.525V58.5281ZM68.37 52.1564H73.0387L73.0418 20.3599H61.7386V35.5555L66.7824 33.5555C67.5386 33.2552 68.3761 33.8156 68.373 34.6206V52.1567L68.37 52.1564ZM75.3606 52.1564L75.3637 20.3599C76.6324 20.3599 78.4293 20.6664 78.4293 19.2113V13.0656C78.4293 12.4309 77.9106 11.917 77.27 11.917H57.5108C56.8701 11.917 56.3514 12.4309 56.3514 13.0656V19.2113C56.3514 20.6695 58.1483 20.3599 59.417 20.3599V36.4749L53.867 38.6731V34.6203C53.867 33.8154 53.0295 33.258 52.2764 33.5552L39.3604 38.673V34.6203C39.3604 33.8153 38.5228 33.2579 37.7697 33.5552L24.8537 38.6729V34.6202C24.8537 33.8152 24.0162 33.2579 23.2631 33.5551L8.83829 39.2704C8.36641 39.4159 8.02581 39.8525 8.02581 40.3664V82.0457C8.02581 82.6804 8.54456 83.1943 9.18517 83.1943H78.8164C79.457 83.1943 79.9757 82.6803 79.9757 82.0457V53.3015C79.9757 52.6668 79.457 52.1529 78.8164 52.1529H75.3632L75.3606 52.1564ZM77.6544 54.4567V80.9H72.4388V68.3358C72.4388 67.7011 71.92 67.1872 71.2794 67.1872H52.9858C52.3452 67.1872 51.8264 67.7011 51.8264 68.3358V80.9H46.6108V54.4567H77.6544ZM10.348 80.9H44.292V53.3051C44.292 52.6704 44.8107 52.1564 45.4513 52.1564H66.0513V36.3173L52.7041 41.5218C52.1072 41.754 51.5448 41.0078 51.5448 40.3731V36.3204C50.051 36.9117 38.7416 41.5248 38.1976 41.5248C37.5569 41.5248 37.0382 41.0109 37.0382 40.3762V36.3235C35.5444 36.9148 24.235 41.5279 23.691 41.5279C23.0504 41.5279 22.5316 41.014 22.5316 40.3793V36.3265L10.3476 41.1564V80.9097L10.348 80.9ZM54.1512 80.9V69.4851H60.9761V80.9H54.1512ZM63.2984 80.9V69.4851H70.1233V80.9H63.2984ZM66.1671 57.4036H71.2858C71.9264 57.4036 72.4452 57.9175 72.4452 58.5522V63.6235C72.4452 64.2582 71.9264 64.7721 71.2858 64.7721H66.1671C65.5265 64.7721 65.0077 64.2582 65.0077 63.6235V58.5522C65.0077 57.9175 65.5265 57.4036 66.1671 57.4036ZM70.1233 59.7039V62.4749H67.3264V59.7039H70.1233ZM52.9921 57.4036H58.1108C58.7515 57.4036 59.2702 57.9175 59.2702 58.5522V63.6235C59.2702 64.2582 58.7514 64.7721 58.1108 64.7721H52.9921C52.3515 64.7721 51.8328 64.2582 51.8328 63.6235V58.5522C51.8328 57.9175 52.3515 57.4036 52.9921 57.4036ZM56.9484 59.7039V62.4749H54.1515V59.7039H56.9484ZM76.1108 18.0619H58.6732V14.2135H76.1108V18.0619ZM27.5452 22.9506L12.6612 22.9475C10.5861 22.9475 9.58932 20.4676 11.0112 19.0433C12.1174 17.9381 13.5361 18.805 13.7643 17.3932C14.1174 15.2074 16.183 13.9318 18.2236 14.2569C20.7424 14.6594 20.5955 16.8575 22.1018 16.2663C23.5456 15.7028 25.2049 16.387 25.7956 17.7152C26.3581 18.9784 27.3049 17.9722 28.58 18.6007C29.5175 19.1363 29.7081 19.672 29.8112 20.2013C30.0925 21.6224 29.0144 22.9444 27.5425 22.9444L27.5452 22.9506ZM30.8202 23.9011C32.392 22.3438 32.6264 19.9009 31.3796 18.0898C32.6952 15.9287 35.5546 15.068 37.8827 16.0619C40.1014 17.0092 40.0389 18.8267 41.4452 18.2756C43.4296 17.4985 45.7045 18.4428 46.5139 20.2756C46.9514 21.2663 47.8483 20.9041 48.4421 20.9041C49.1889 20.9041 49.9139 21.1611 50.4921 21.6286C52.817 23.5203 51.4765 27.3099 48.4389 27.3099H29.6109C28.2422 27.3099 27.0578 26.4739 26.5891 25.2479C28.236 25.2479 29.486 25.2231 30.8235 23.898L30.8202 23.9011ZM29.6202 16.5572C32.2889 12.7026 38.1858 12.1515 41.4386 15.873C44.0542 15.2507 46.7948 16.3622 48.2292 18.6099C53.3043 18.5077 55.9292 24.4707 52.3668 28.0005C51.3605 28.9975 49.973 29.6136 48.4386 29.6136H29.6106C26.97 29.6136 24.7137 27.7653 24.1762 25.2513H12.6602C8.58516 25.2513 6.46332 20.344 9.36956 17.4306C9.98831 16.8114 10.7883 16.3655 11.682 16.1736C13.0633 11.7277 18.9414 10.4397 22.0948 13.8826C24.173 13.4491 26.323 14.3222 27.5073 16.0684C28.2479 16.0653 28.9573 16.2294 29.6198 16.5606L29.6202 16.5572Z" fill="#0485FE"/>
</g>
</svg>
