<svg width="132" height="113" viewBox="0 0 132 113" fill="none" xmlns="http://www.w3.org/2000/svg">
<path d="M66.0042 33.3862C72.5433 33.3862 77.8589 27.9991 77.8589 21.3828C77.8589 14.7617 72.5386 9.37939 66.0042 9.37939C59.4652 9.37939 54.1496 14.7665 54.1496 21.3828C54.1449 28.0039 59.4652 33.3862 66.0042 33.3862ZM66.0042 11.6477C71.3059 11.6477 75.6183 16.0143 75.6183 21.3823C75.6183 26.7504 71.3057 31.1169 66.0042 31.1169C60.7026 31.1169 56.3902 26.7503 56.3902 21.3823C56.3902 16.0142 60.7028 11.6477 66.0042 11.6477ZM42.5718 58.9728H52.2562L52.1343 65.5512C52.125 65.9404 52.3171 66.3059 52.6359 66.5195L65.0811 74.8254C65.0858 74.8302 65.0905 74.8302 65.0952 74.8349C65.1327 74.8587 65.1748 74.8824 65.217 74.9061C65.2217 74.9109 65.2264 74.9109 65.2311 74.9109C65.278 74.9346 65.3202 74.9489 65.3717 74.9631C65.3811 74.9678 65.3905 74.9678 65.3998 74.9726C65.442 74.9821 65.4795 74.9916 65.5217 75.0011C65.5311 75.0011 65.5405 75.0058 65.5499 75.0058C65.592 75.0106 65.6342 75.0153 65.6811 75.0153H65.7045C65.7514 75.0153 65.7936 75.0106 65.8405 75.0058C65.8498 75.0058 65.8639 75.0011 65.8733 75.0011C65.9108 74.9963 65.9483 74.9868 65.9811 74.9773C65.9905 74.9726 65.9999 74.9726 66.0092 74.9726C66.0561 74.9583 66.0983 74.9441 66.1405 74.9251C66.1405 74.9251 66.1452 74.9251 66.1452 74.9204C66.1874 74.9014 66.2249 74.8824 66.2624 74.8587C66.267 74.8539 66.2717 74.8539 66.2764 74.8492L79.0216 67.1174C79.3544 66.9181 79.5607 66.5574 79.5654 66.1634L79.7013 58.9727H89.4279C89.7326 58.9727 90.0232 58.8493 90.2388 58.6215C90.4498 58.3984 90.5623 58.0994 90.5482 57.7909C90.2904 51.3691 87.6185 45.3694 83.0342 40.9041C78.4358 36.4283 72.3889 33.9603 66.005 33.9603C59.6206 33.9603 53.5742 36.4283 48.9758 40.9041C44.3914 45.3704 41.7195 51.365 41.4571 57.7909C41.443 58.0994 41.5555 58.3984 41.7664 58.6215C41.9774 58.8493 42.2672 58.9728 42.5718 58.9728ZM71.0814 54.4591C71.0768 54.4544 71.0768 54.4449 71.0721 54.4401C71.058 54.4022 71.0439 54.3689 71.0252 54.331C71.0205 54.3167 71.0111 54.3025 71.0064 54.2882C70.9877 54.2503 70.9643 54.217 70.9408 54.1791C70.9268 54.1553 70.9127 54.1364 70.8939 54.1174C70.8799 54.1031 70.8705 54.0889 70.8564 54.0699C70.8049 54.013 70.7533 53.956 70.6877 53.9085L66.483 50.7048L68.0299 49.784L72.6893 53.4481L73.0502 54.7533L71.4659 55.6314L71.0814 54.4591ZM73.833 51.4785L68.8034 47.5248C68.4424 47.24 67.9456 47.2068 67.5471 47.4441L63.9002 49.618C63.5767 49.8126 63.3705 50.1543 63.3517 50.534C63.3283 50.9137 63.497 51.2792 63.797 51.507L67.9454 54.6681L66.0424 55.698L55.744 49.5373L66.2674 43.1488L76.5517 50.0119L73.833 51.4785ZM54.6378 51.5022L64.8848 57.6297L64.6223 71.7924L54.3895 64.9672L54.6378 51.5022ZM66.8586 71.8543L67.1211 57.6819L69.3758 56.4622L69.7696 57.6487C69.8774 57.9667 70.1164 58.223 70.4211 58.3417C70.5524 58.3939 70.693 58.4224 70.8289 58.4224C71.0164 58.4224 71.1993 58.3749 71.368 58.2847L74.907 56.3245C75.3664 56.0729 75.5867 55.5319 75.4461 55.024L75.0055 53.4198L77.5836 52.0244L77.3398 65.4945L66.8586 71.8543ZM66.0055 36.2338C77.6258 36.2338 87.1747 45.1331 88.2331 56.7099H79.7441L79.866 50.1315V50.1267C79.866 50.084 79.866 50.0366 79.8613 49.9938C79.8613 49.9843 79.8566 49.9796 79.8566 49.9701C79.8519 49.9369 79.8472 49.8989 79.8378 49.8609C79.8331 49.8467 79.8331 49.8372 79.8285 49.8277C79.8191 49.7945 79.8097 49.766 79.8003 49.7375C79.7956 49.728 79.791 49.7138 79.7863 49.7043C79.7722 49.6711 79.7581 49.6379 79.7441 49.6046C79.7394 49.5999 79.7394 49.5904 79.7347 49.5857V49.5809C79.716 49.5429 79.6925 49.5097 79.6691 49.4717C79.6644 49.4622 79.655 49.4575 79.6503 49.448C79.6316 49.4195 79.6081 49.3958 79.5847 49.3673C79.5753 49.3578 79.5706 49.3483 79.5613 49.3388C79.5378 49.3151 79.5144 49.2914 79.4863 49.2677C79.4769 49.2629 79.4722 49.2534 79.4628 49.2487C79.43 49.2202 79.3925 49.1917 79.3503 49.1632L66.9099 40.862C66.549 40.6199 66.0896 40.6104 65.7193 40.8383L52.9789 48.57C52.9414 48.5937 52.9039 48.6222 52.8664 48.6507C52.857 48.6554 52.8523 48.6649 52.843 48.6697C52.8148 48.6934 52.7914 48.7171 52.7633 48.7409C52.7539 48.7504 52.7492 48.7551 52.7398 48.7646C52.7164 48.7883 52.693 48.8168 52.6695 48.8453C52.6648 48.85 52.6601 48.8595 52.6555 48.8643C52.632 48.8975 52.6086 48.9307 52.5851 48.9687C52.5851 48.9687 52.5851 48.9734 52.5805 48.9734C52.5758 48.9829 52.5711 48.9877 52.5711 48.9972C52.5523 49.0304 52.5383 49.0589 52.5242 49.0921C52.5195 49.1016 52.5148 49.1158 52.5101 49.1253C52.5008 49.1538 52.4867 49.187 52.4773 49.2155C52.4726 49.225 52.468 49.2392 52.468 49.2487C52.4586 49.2867 52.4492 49.3199 52.4445 49.3579C52.4445 49.3626 52.4398 49.3674 52.4398 49.3769C52.4351 49.4196 52.4305 49.4671 52.4305 49.5098V49.5145L52.2945 56.7052H43.7632C44.8367 45.1338 54.3854 36.2338 66.0055 36.2338ZM101.944 74.1617C100.337 72.0401 97.3224 71.6129 95.199 73.2125L81.525 83.5025C80.9719 82.8048 80.2453 82.3112 79.3547 82.0407L62.6903 77.0665C59.17 76.0176 56.8825 75.7233 55.4996 76.1315L43.8043 79.3969V77.2469C43.8043 76.6204 43.3028 76.1125 42.684 76.1125H30.0744C29.4557 76.1125 28.9541 76.6204 28.9541 77.2469V101.272C28.9541 101.899 29.4557 102.407 30.0744 102.407H42.684C43.3028 102.407 43.8043 101.899 43.8043 101.272V98.1444L51.595 96.0038L70.411 101.106C70.8844 101.234 71.3438 101.291 71.8032 101.291C74.3532 101.291 76.6642 99.4828 78.5766 97.9925C78.8813 97.7552 79.1766 97.5226 79.4625 97.3091L100.992 81.11C102.164 80.2271 102.928 78.827 103.031 77.3604C103.12 76.1264 102.737 74.9971 101.944 74.1617ZM41.5651 100.138H31.1964V78.3816H41.5651V100.138ZM100.796 77.1896C100.735 77.9965 100.299 78.7986 99.6522 79.2828L78.123 95.4819C77.8277 95.705 77.5183 95.9471 77.2042 96.1939C75.2449 97.7269 73.023 99.4641 70.9886 98.9135L51.6434 93.6689L51.5965 93.854L51.545 93.6641L43.8059 95.7904V81.7505L56.1107 78.3142C56.6404 78.1576 58.117 78.0721 62.0544 79.2445L78.714 84.2187C79.8812 84.5652 80.486 85.7091 80.5187 87.6218C80.3172 88.2388 79.8953 88.7514 79.3281 89.0789C78.7375 89.4206 78.0578 89.5108 77.4062 89.3494L75.2734 88.7514V88.7561L64.0234 85.6141L63.4281 87.8022L76.7505 91.5233C76.7786 91.5328 76.8114 91.5375 76.8442 91.547L76.9802 91.585C79.5629 92.3064 82.2442 90.7639 82.9521 88.1535C83.2099 87.2089 83.1818 86.2265 82.8818 85.3152L96.527 75.0442C97.6848 74.1709 99.3254 74.4177 100.188 75.5901C100.221 75.6328 100.258 75.6755 100.296 75.7135C100.769 76.1786 100.83 76.7719 100.797 77.1895L100.796 77.1896Z" fill="#0485FE"/>
</svg>
