<svg width="115" height="109" viewBox="0 0 115 109" fill="none" xmlns="http://www.w3.org/2000/svg">
<g clip-path="url(#clip0_108_647)">
<path fill-rule="evenodd" clip-rule="evenodd" d="M75.1214 71.8342H80.8388V50.6064C80.8388 50.0496 81.288 49.5952 81.8475 49.5952H86.6746L77.9842 36.8631L69.2939 49.5952H74.121C74.6764 49.5952 75.1297 50.0496 75.1297 50.6064V71.8342H75.1214ZM81.8474 73.8525H74.1128C73.5574 73.8525 73.1041 73.3981 73.1041 72.8413V51.6136H67.3744C67.0028 51.6136 66.6598 51.4048 66.4842 51.0732C66.3086 50.7415 66.3331 50.3403 66.5414 50.0333L77.1475 34.505C77.3354 34.2307 77.6457 34.0669 77.9765 34.0669C78.3073 34.0669 78.6177 34.2307 78.8096 34.505L89.4116 50.0333C89.6239 50.3444 89.6484 50.7415 89.4728 51.0732C89.2972 51.4048 88.9542 51.6136 88.5825 51.6136H82.8529V72.8413C82.8529 73.3981 82.3996 73.8525 81.8442 73.8525H81.8474Z" fill="#0485FE"/>
<path fill-rule="evenodd" clip-rule="evenodd" d="M100.742 93.397H100.738C100.456 93.397 93.7626 93.352 89.8336 91.264C87.7631 90.1667 86.7258 88.3859 87.0567 86.5067C87.3467 84.8609 88.6821 83.5508 90.3034 83.3297C91.1936 83.2069 91.5326 82.8794 91.7083 82.6419C92.2963 81.8559 92.3902 80.1854 91.99 77.5366C91.7858 76.1529 92.0962 74.9287 92.9171 73.9011C94.8773 71.4488 99.1408 71.1172 99.3246 71.1048C99.88 71.068 100.358 71.4855 100.399 72.0423C100.439 72.5991 100.019 73.0822 99.4674 73.1231C98.4751 73.1927 95.6532 73.7045 94.4852 75.1701C94.0238 75.7474 93.8604 76.4229 93.9829 77.2377C94.4771 80.5333 94.2688 82.5763 93.3172 83.8496C92.7006 84.6765 91.8022 85.1596 90.5729 85.3276C89.8093 85.434 89.1763 86.0604 89.0374 86.8587C88.8618 87.8454 89.4988 88.7993 90.773 89.4748C94.2606 91.3253 100.68 91.3703 100.742 91.3703C101.297 91.3703 101.746 91.8289 101.746 92.3857C101.746 92.9425 101.293 93.3928 100.742 93.3928L100.742 93.397Z" fill="#0485FE"/>
<path fill-rule="evenodd" clip-rule="evenodd" d="M77.969 109.147C63.9861 109.147 52.6084 97.7412 52.6084 83.7232C52.6084 77.6394 54.7891 71.7478 58.7423 67.1426C62.6587 62.5859 68.0616 59.5604 73.9505 58.6188C74.5018 58.5287 75.0164 58.9054 75.1063 59.4581C75.1961 60.0108 74.8204 60.5266 74.2691 60.6126C62.883 62.4304 54.6219 72.1499 54.6219 83.7238C54.6219 96.6277 65.0931 107.129 77.969 107.129C90.8406 107.129 101.316 96.6319 101.316 83.7238C101.316 72.1582 93.0586 62.4426 81.6897 60.6168C81.1384 60.5267 80.7668 60.0109 80.8526 59.4582C80.9424 58.9055 81.4569 58.5329 82.0083 58.6189C87.8971 59.5646 93.2919 62.5902 97.204 67.1468C101.157 71.7525 103.334 77.6359 103.334 83.719C103.334 97.737 91.9561 109.143 77.9732 109.143L77.969 109.147Z" fill="#0485FE"/>
<path fill-rule="evenodd" clip-rule="evenodd" d="M77.9774 36.0895C77.422 36.0895 76.9687 35.6392 76.9687 35.0783V28.8717C76.9687 28.3149 77.4179 27.8605 77.9774 27.8605C78.5328 27.8605 78.9861 28.3149 78.9861 28.8717V35.0783C78.9861 35.6351 78.5328 36.0895 77.9774 36.0895ZM53.7114 82.5529H15.6171C15.0617 82.5529 14.6084 82.1025 14.6084 81.5416V28.8716C14.6084 28.3148 15.0576 27.8604 15.6171 27.8604C16.1725 27.8604 16.6258 28.3148 16.6258 28.8716V80.5302H53.7112C54.2666 80.5302 54.7199 80.9847 54.7199 81.5415C54.7199 82.0983 54.2708 82.5529 53.7114 82.5529Z" fill="#0485FE"/>
<path fill-rule="evenodd" clip-rule="evenodd" d="M41.0825 29.8828H12.6796C12.1242 29.8828 11.6709 29.4284 11.6709 28.8716V17.6289C11.6709 17.0721 12.1201 16.6177 12.6796 16.6177H41.0825C41.642 16.6177 42.0912 17.0721 42.0912 17.6289C42.0912 18.1857 41.642 18.6401 41.0825 18.6401H13.6843V27.86H41.0825C41.642 27.86 42.0912 28.3144 42.0912 28.8712C42.0912 29.428 41.642 29.8828 41.0825 29.8828ZM80.9164 29.8828H52.5093C51.9539 29.8828 51.5006 29.4284 51.5006 28.8716C51.5006 28.3148 51.9539 27.8604 52.5093 27.8604H79.9075V18.6406H52.5093C51.9539 18.6406 51.5006 18.1902 51.5006 17.6293C51.5006 17.0726 51.9539 16.6181 52.5093 16.6181H80.9164C81.4718 16.6181 81.9251 17.0726 81.9251 17.6293V28.8721C81.9251 29.4289 81.4718 29.8828 80.9164 29.8828Z" fill="#0485FE"/>
<path fill-rule="evenodd" clip-rule="evenodd" d="M42.0906 18.6401V35.6263L46.1581 32.261C46.5297 31.9499 47.0688 31.9499 47.4445 32.261L51.5079 35.6263V18.6401H42.0906ZM41.082 38.7789C40.939 38.7789 40.792 38.7462 40.6531 38.6848C40.3019 38.5169 40.0732 38.1607 40.0732 37.7677V17.6289C40.0732 17.0721 40.5225 16.6177 41.0819 16.6177H52.5129C53.0683 16.6177 53.5216 17.0721 53.5216 17.6289V37.7677C53.5216 38.1607 53.297 38.5128 52.9458 38.6848C52.5946 38.8526 52.174 38.7994 51.8759 38.5497L46.8038 34.3492L41.7316 38.5497C41.5479 38.7052 41.3192 38.783 41.0905 38.783L41.082 38.7789Z" fill="#0485FE"/>
<path fill-rule="evenodd" clip-rule="evenodd" d="M24.1979 72.9556H40.0878V64.571H24.1979V72.9556ZM41.0967 74.974H23.1933C22.6379 74.974 22.1846 74.5236 22.1846 73.9628V63.5557C22.1846 62.9948 22.6338 62.5444 23.1933 62.5444H41.0967C41.6521 62.5444 42.1054 62.9948 42.1054 63.5557V73.9628C42.1054 74.5236 41.6521 74.974 41.0967 74.974Z" fill="#0485FE"/>
<path fill-rule="evenodd" clip-rule="evenodd" d="M36.4522 69.7749H27.8231C27.2678 69.7749 26.8145 69.3205 26.8145 68.7637C26.8145 68.2028 27.2678 67.7524 27.8231 67.7524H36.4522C37.0076 67.7524 37.4609 68.2028 37.4609 68.7637C37.4609 69.3205 37.0076 69.7749 36.4522 69.7749Z" fill="#0485FE"/>
<path fill-rule="evenodd" clip-rule="evenodd" d="M56.0886 95.4774C55.5986 95.4774 55.1698 95.1212 55.0922 94.6176C55.0105 94.065 55.3862 93.5532 55.9375 93.4672C56.1254 93.4385 60.5686 92.7057 60.099 89.5C59.9969 88.8163 59.8907 88.2431 59.7927 87.7314C59.5232 86.3066 59.3476 85.365 59.9479 84.583C60.5727 83.7724 61.6671 83.6087 63.8561 83.449C65.5876 83.3262 66.874 81.9302 67.4989 80.6609C68.0339 79.5842 68.0257 78.8309 67.9522 78.5893C66.3187 78.5647 64.5748 77.6968 63.4681 76.3581C62.5288 75.2199 62.145 73.8852 62.3859 72.5874C62.6636 71.093 62.8678 69.6847 62.2715 68.9109C61.904 68.4319 61.1689 68.1495 60.0825 68.0757C59.5271 68.0348 59.1106 67.5558 59.1474 66.995C59.1841 66.4382 59.666 66.0206 60.2213 66.0574C61.9039 66.1762 63.129 66.7207 63.8641 67.6746C65.0647 69.2304 64.6441 71.4739 64.3664 72.9601C64.199 73.8485 64.6278 74.5977 65.0158 75.0685C65.759 75.9651 66.9556 76.5669 67.997 76.5669C69.165 76.5669 69.9531 77.4308 69.9981 78.7696C70.0879 81.2547 67.7397 85.1931 63.999 85.4592C63.419 85.5002 61.9203 85.6066 61.5569 85.8072C61.5242 86.0529 61.6549 86.7407 61.7692 87.3507C61.8632 87.8502 61.9816 88.4725 62.0878 89.1971C62.7044 93.3567 58.5308 95.1089 56.2356 95.457C56.1866 95.4652 56.1335 95.4693 56.0845 95.4693L56.0886 95.4774Z" fill="#0485FE"/>
<path fill-rule="evenodd" clip-rule="evenodd" d="M84.336 108.304C84.1767 108.304 84.0175 108.267 83.8704 108.189C83.3763 107.931 83.1844 107.321 83.4416 106.826C86.533 100.869 83.5437 96.6399 79.9255 92.4799C78.7371 91.1125 77.414 90.6335 76.201 91.1329C75.2658 91.5178 74.6043 92.4553 74.6614 93.315C74.6696 93.4133 74.6777 93.5156 74.6859 93.6262C74.8002 95.0018 75.0208 97.5605 70.6879 99.0139C66.3468 100.471 66.8409 104.606 66.8655 104.778C66.939 105.331 66.551 105.839 65.9997 105.912C65.4443 105.986 64.9379 105.597 64.8645 105.044C64.5908 102.989 65.3218 98.6823 70.0468 97.0979C72.8727 96.1481 72.7829 95.0591 72.6767 93.7981C72.6685 93.6753 72.6563 93.5607 72.6522 93.446C72.5379 91.7102 73.6854 89.9906 75.4374 89.2701C77.4507 88.4349 79.7009 89.1432 81.4528 91.1574C85.3815 95.6814 88.9139 100.684 85.2385 107.767C85.0589 108.111 84.7077 108.312 84.3442 108.312L84.336 108.304Z" fill="#0485FE"/>
<path fill-rule="evenodd" clip-rule="evenodd" d="M62.6034 48.4696C62.048 48.4696 61.5947 48.0192 61.5947 47.4583V34.501C61.5947 33.9442 62.0439 33.4897 62.6034 33.4897C63.1588 33.4897 63.6121 33.9401 63.6121 34.501V47.4583C63.6121 48.0192 63.1588 48.4696 62.6034 48.4696Z" fill="#0485FE"/>
<path fill-rule="evenodd" clip-rule="evenodd" d="M66.4837 39.4057C66.2264 39.4057 65.9691 39.3075 65.7731 39.111L62.6041 35.934L59.4351 39.111C59.0431 39.504 58.406 39.504 58.0099 39.111C57.6178 38.7179 57.6178 38.0793 58.0099 37.6821L61.8935 33.7928C62.2856 33.3998 62.9226 33.3998 63.3147 33.7928L67.1984 37.6821C67.5904 38.0793 67.5904 38.7179 67.1984 39.111C67.0023 39.3075 66.741 39.4057 66.4837 39.4057Z" fill="#0485FE"/>
</g>
<defs>
<clipPath id="clip0_108_647">
<rect width="115" height="109" fill="white"/>
</clipPath>
</defs>
</svg>
