<svg width="12" height="23" viewBox="0 0 12 23" fill="none" xmlns="http://www.w3.org/2000/svg">
<path opacity="0.63" d="M5.19405 21.7694C5.19405 22.2145 5.55488 22.5754 6 22.5754C6.44512 22.5754 6.80596 22.2145 6.80596 21.7694L5.19405 21.7694ZM6.5699 0.889454C6.25515 0.57471 5.74485 0.57471 5.4301 0.889455L0.301039 6.01852C-0.013706 6.33326 -0.013706 6.84357 0.301039 7.15831C0.615784 7.47306 1.12609 7.47306 1.44083 7.15831L6 2.59914L10.5592 7.15831C10.8739 7.47306 11.3842 7.47306 11.699 7.15831C12.0137 6.84357 12.0137 6.33326 11.699 6.01852L6.5699 0.889454ZM6.80596 21.7694L6.80595 1.45935L5.19405 1.45935L5.19405 21.7694L6.80596 21.7694Z" fill="#00C99A"/>
</svg>
