<svg width="24" height="44" viewBox="0 0 24 44" fill="none" xmlns="http://www.w3.org/2000/svg">
<path d="M10.5296 41.4663C10.5296 42.3393 11.2373 43.047 12.1104 43.047C12.9834 43.047 13.6911 42.3393 13.6911 41.4663L10.5296 41.4663ZM13.2281 0.514592C12.6108 -0.102715 11.6099 -0.102715 10.9926 0.514592L0.933027 10.5742C0.31572 11.1915 0.31572 12.1923 0.933027 12.8096C1.55033 13.427 2.55119 13.427 3.16849 12.8096L12.1104 3.86779L21.0522 12.8096C21.6695 13.427 22.6704 13.427 23.2877 12.8096C23.905 12.1923 23.905 11.1915 23.2877 10.5742L13.2281 0.514592ZM13.6911 41.4663L13.6911 1.63232L10.5296 1.63232L10.5296 41.4663L13.6911 41.4663Z" fill="#00C99A"/>
</svg>
