<svg width="23" height="36" viewBox="0 0 23 36" fill="none" xmlns="http://www.w3.org/2000/svg">
<path d="M9.70899 34.356C9.70899 35.1844 10.3806 35.856 11.209 35.856C12.0374 35.856 12.709 35.1844 12.709 34.356L9.70899 34.356ZM12.2696 0.67872C11.6839 0.0929333 10.7341 0.0929333 10.1483 0.67872L0.602383 10.2247C0.0165962 10.8104 0.0165963 11.7602 0.602383 12.346C1.18817 12.9318 2.13792 12.9318 2.7237 12.346L11.209 3.8607L19.6943 12.346C20.2801 12.9318 21.2298 12.9318 21.8156 12.346C22.4014 11.7602 22.4014 10.8104 21.8156 10.2247L12.2696 0.67872ZM12.709 34.356L12.709 1.73938L9.70898 1.73938L9.70899 34.356L12.709 34.356Z" fill="white"/>
</svg>
