<svg width="15" height="27" viewBox="0 0 15 27" fill="none" xmlns="http://www.w3.org/2000/svg">
<path opacity="0.63" d="M6.6906 25.3842C6.6906 25.9057 7.11332 26.3284 7.63477 26.3284C8.15621 26.3284 8.57893 25.9057 8.57893 25.3842L6.6906 25.3842ZM8.30239 0.923684C7.93367 0.554965 7.33586 0.554965 6.96714 0.923684L0.95852 6.93231C0.589801 7.30102 0.589801 7.89884 0.95852 8.26756C1.32724 8.63627 1.92505 8.63627 2.29377 8.26755L7.63477 2.92656L12.9758 8.26755C13.3445 8.63627 13.9423 8.63627 14.311 8.26755C14.6797 7.89884 14.6797 7.30102 14.311 6.93231L8.30239 0.923684ZM8.57893 25.3842L8.57893 1.59131L6.6906 1.59131L6.6906 25.3842L8.57893 25.3842Z" fill="#00C99A"/>
</svg>
