<svg width="26" height="42" viewBox="0 0 26 42" fill="none" xmlns="http://www.w3.org/2000/svg">
<path d="M11.0824 39.412C11.0824 40.3685 11.8579 41.144 12.8145 41.144C13.771 41.144 14.5465 40.3685 14.5465 39.412L11.0824 39.412ZM14.0392 0.525269C13.3628 -0.151131 12.2661 -0.151131 11.5897 0.525269L0.567143 11.5478C-0.109258 12.2242 -0.109258 13.3209 0.567143 13.9973C1.24354 14.6737 2.3402 14.6737 3.0166 13.9973L12.8145 4.19946L22.6123 13.9973C23.2887 14.6737 24.3854 14.6737 25.0618 13.9973C25.7382 13.3209 25.7382 12.2242 25.0618 11.5478L14.0392 0.525269ZM12.8145 39.412L14.5465 39.412L14.5465 1.75L12.8145 1.75L11.0824 1.75L11.0824 39.412L12.8145 39.412Z" fill="white"/>
</svg>
