<svg width="18" height="32" viewBox="0 0 18 32" fill="none" xmlns="http://www.w3.org/2000/svg">
<path d="M7.66566 30.8544C7.66566 31.4866 8.17819 31.9992 8.81043 31.9992C9.44266 31.9992 9.95519 31.4866 9.95519 30.8544L7.66566 30.8544ZM9.6199 1.19688C9.17284 0.749819 8.44801 0.749819 8.00095 1.19688L0.715721 8.48211C0.268664 8.92917 0.268664 9.65399 0.715721 10.1011C1.16278 10.5481 1.8876 10.5481 2.33466 10.1011L8.81042 3.62529L15.2862 10.1011C15.7332 10.5481 16.4581 10.5481 16.9051 10.1011C17.3522 9.65399 17.3522 8.92917 16.9051 8.48211L9.6199 1.19688ZM9.95519 30.8544L9.95519 2.00635L7.66566 2.00635L7.66566 30.8544L9.95519 30.8544Z" fill="#00C99A"/>
</svg>
