<svg width="270" height="268" viewBox="0 0 270 268" fill="none" xmlns="http://www.w3.org/2000/svg">
<g opacity="0.5">
<path d="M269.356 133.846C269.356 207.875 209.056 267.888 134.672 267.888C60.2886 267.888 0 207.875 0 133.846C0 59.817 56.3456 3.82055 127.295 0V54.8802C86.7443 58.5741 54.9928 92.5218 54.9928 133.846C54.9928 177.644 90.6641 213.157 134.672 213.157C178.68 213.157 214.363 177.644 214.363 133.846C214.363 111.406 204.997 91.1409 189.942 76.7218L228.828 38.0329C253.839 62.3371 269.356 96.2848 269.356 133.846Z" fill="#D9D9D9"/>
<path d="M223.305 33.0676L184.338 71.7247C170.722 60.9236 153.456 54.475 134.678 54.475V0C168.62 0 199.629 12.4734 223.305 33.0676Z" fill="url(#paint0_linear_1518_8396)"/>
<path d="M223.305 33.0676L184.338 71.7247C170.722 60.9236 153.456 54.475 134.678 54.475V0C168.62 0 199.629 12.4734 223.305 33.0676Z" fill="black" fill-opacity="0.1"/>
</g>
<defs>
<linearGradient id="paint0_linear_1518_8396" x1="92.2813" y1="100.891" x2="235.762" y2="94.4387" gradientUnits="userSpaceOnUse">
<stop stop-color="#1C67AC"/>
<stop offset="0.389423" stop-color="#41CCFF"/>
<stop offset="0.850962" stop-color="#41FFEF"/>
</linearGradient>
</defs>
</svg>
