<svg width="233" height="232" viewBox="0 0 233 232" fill="none" xmlns="http://www.w3.org/2000/svg">
<g opacity="0.5">
<path d="M232.116 115.915C232.116 180.027 180.179 232 116.111 232C52.0436 232 0.116211 180.027 0.116211 115.915C0.116211 51.8036 48.6475 3.30873 109.757 0V47.5282C74.8303 50.7273 47.4823 80.1272 47.4823 115.915C47.4823 153.846 78.2065 184.601 116.111 184.601C154.016 184.601 184.75 153.846 184.75 115.915C184.75 96.4815 176.683 78.9312 163.716 66.4438L197.209 32.9378C218.751 53.9862 232.116 83.3861 232.116 115.915Z" fill="#D9D9D9"/>
<path d="M192.452 28.6377L158.89 62.1161C147.162 52.762 132.291 47.1773 116.116 47.1773V0C145.351 0 172.06 10.8024 192.452 28.6377Z" fill="#00C99A"/>
</g>
</svg>
