<svg width="286" height="286" viewBox="0 0 286 286" fill="none" xmlns="http://www.w3.org/2000/svg">
<g opacity="0.5">
<path d="M97.867 151.66V129.188H114.4V132.719H101.559V137.535H107.658C110.248 137.535 112.281 138.198 113.758 139.525C115.256 140.852 116.005 142.543 116.005 144.597C116.005 146.652 115.256 148.342 113.758 149.669C112.281 150.996 110.248 151.66 107.658 151.66H97.867ZM101.559 148.128H107.658C109.156 148.128 110.28 147.818 111.029 147.197C111.778 146.555 112.153 145.689 112.153 144.597C112.153 143.506 111.778 142.65 111.029 142.029C110.28 141.387 109.156 141.066 107.658 141.066H101.559V148.128ZM117.921 151.66L123.699 129.188H132.849L138.788 151.66H134.935L133.394 145.881H123.057L121.613 151.66H117.921ZM124.02 142.35H132.495L129.959 132.719H126.428L124.02 142.35ZM141.506 151.66V129.188H145.198V138.498H156.273V129.188H159.965V151.66H156.273V142.029H145.198V151.66H141.506ZM164.455 151.66V129.188H168.146V138.498H171.838L178.58 129.188H182.913L175.048 139.942L183.234 151.66H178.74L171.999 142.029H168.146V151.66H164.455Z" fill="white"/>
<path d="M285.232 142.654C285.232 221.334 221.493 285.118 142.866 285.118C64.2393 285.118 0.511719 221.334 0.511719 142.654C0.511719 63.9731 60.0714 4.45808 135.068 0.397461V58.7261C92.2041 62.6522 58.6414 98.733 58.6414 142.654C58.6414 189.204 96.3475 226.948 142.866 226.948C189.384 226.948 227.103 189.204 227.103 142.654C227.103 118.804 217.202 97.2653 201.289 81.9402L242.393 40.8202C268.83 66.6516 285.232 102.732 285.232 142.654Z" fill="#D9D9D9"/>
<path d="M236.554 35.5429L195.365 76.6291C180.972 65.1493 162.722 58.2955 142.872 58.2955V0.397461C178.751 0.397461 211.528 13.6546 236.554 35.5429Z" fill="#00C99A"/>
</g>
</svg>
