<svg width="387" height="386" viewBox="0 0 387 386" fill="none" xmlns="http://www.w3.org/2000/svg">
<path fill-rule="evenodd" clip-rule="evenodd" d="M205.451 76.2407C264.431 82.2496 310.451 132.067 310.451 192.633C310.451 257.25 258.068 309.633 193.451 309.633C145.429 309.633 104.165 280.702 86.1367 239.319L16.1436 268.988C45.7311 337.603 113.982 385.633 193.451 385.633C300.042 385.633 386.451 299.224 386.451 192.633C386.451 90.0722 306.453 6.1962 205.451 0V76.2407Z" fill="#0485FE"/>
<path fill-rule="evenodd" clip-rule="evenodd" d="M193 76L192.98 0C86.3984 0.00976562 0 86.416 0 193C0 215.488 3.8457 237.079 10.917 257.149L81.1338 227.385C77.7959 216.513 76 204.966 76 193C76 128.383 128.383 76 193 76Z" fill="white"/>
</svg>
