<svg width="84" height="62" viewBox="0 0 84 62" fill="none" xmlns="http://www.w3.org/2000/svg">
<path d="M30.352 59.7257L20.6914 37.2371V13.3232" stroke="#0485FE" stroke-width="4" stroke-linecap="round" stroke-linejoin="round"/>
<path d="M57.2754 48.64V2C39.8547 12.7692 34.5493 14.0361 20.8503 13.3235C7.15123 12.6108 2.16258 13.6402 2.00421 24.8845C1.84584 36.1288 6.12183 37.079 20.8503 37.079C41.5017 35.4953 53.7385 44.1265 57.2754 48.64Z" stroke="#0485FE" stroke-width="4" stroke-linecap="round" stroke-linejoin="round"/>
<path d="M57.5938 17.5996C59.7845 17.9691 64.1978 19.8485 64.3245 24.4095C64.4829 30.1109 59.9693 31.7737 57.5938 32.4072" stroke="#0485FE" stroke-width="4" stroke-linecap="round" stroke-linejoin="round"/>
<path d="M68.6777 18.8662L79.1302 14.6694" stroke="#0485FE" stroke-width="4" stroke-linecap="round" stroke-linejoin="round"/>
<path d="M68.6777 31.457L79.1302 35.6538" stroke="#0485FE" stroke-width="4" stroke-linecap="round" stroke-linejoin="round"/>
<path d="M70.737 25.2966L82.0001 25.3866" stroke="#0485FE" stroke-width="4" stroke-linecap="round" stroke-linejoin="round"/>
</svg>
