<svg width="69" height="62" viewBox="0 0 69 62" fill="none" xmlns="http://www.w3.org/2000/svg">
<path d="M32.6573 60C32.6573 60.9152 33.3992 61.6571 34.3145 61.6571C35.2297 61.6571 35.9716 60.9152 35.9716 60L32.6573 60ZM35.4862 0.828223C34.8391 0.181069 33.7898 0.181069 33.1427 0.828223L22.5967 11.3742C21.9495 12.0214 21.9495 13.0706 22.5967 13.7178C23.2438 14.3649 24.2931 14.3649 24.9402 13.7178L34.3145 4.34355L43.6887 13.7178C44.3358 14.3649 45.3851 14.3649 46.0322 13.7178C46.6794 13.0706 46.6794 12.0214 46.0322 11.3742L35.4862 0.828223ZM35.9716 60L35.9716 2L32.6573 2L32.6573 60L35.9716 60Z" fill="#0485FE"/>
<path d="M32.6598 60C32.6598 60.9152 33.4018 61.6572 34.317 61.6572C35.2322 61.6572 35.9741 60.9152 35.9741 60H32.6598ZM34.317 49.1102H35.9741C35.9741 49.101 35.974 49.0918 35.9739 49.0826L34.317 49.1102ZM67.8262 23.0313C68.4589 22.3699 68.4356 21.3209 67.7743 20.6883L56.9972 10.3786C56.3358 9.74592 55.2868 9.76917 54.6542 10.4305C54.0215 11.0918 54.0448 12.1408 54.7061 12.7735L64.2858 21.9377L55.1216 31.5173C54.4889 32.1786 54.5122 33.2276 55.1735 33.8603C55.8348 34.4929 56.8838 34.4697 57.5165 33.8084L67.8262 23.0313ZM35.9741 60V49.1102H32.6598V60H35.9741ZM35.9739 49.0826C35.9059 45.0136 37.3273 38.7624 41.8499 33.4814C46.325 28.2557 53.9708 23.8238 66.6655 23.5425L66.592 20.229C53.0832 20.5284 44.4993 25.2924 39.3325 31.3256C34.2132 37.3034 32.5805 44.374 32.6601 49.1379L35.9739 49.0826Z" fill="#0485FE"/>
<path d="M35.9691 60C35.9691 60.9152 35.2271 61.6572 34.3119 61.6572C33.3967 61.6572 32.6548 60.9152 32.6548 60H35.9691ZM34.3119 49.1102H32.6548C32.6548 49.101 32.6549 49.0918 32.655 49.0826L34.3119 49.1102ZM0.802711 23.0313C0.170055 22.3699 0.193306 21.3209 0.854645 20.6883L11.6317 10.3786C12.2931 9.74592 13.3421 9.76917 13.9747 10.4305C14.6074 11.0918 14.5841 12.1408 13.9228 12.7735L4.34315 21.9377L13.5073 31.5173C14.14 32.1786 14.1167 33.2276 13.4554 33.8603C12.7941 34.4929 11.7451 34.4697 11.1124 33.8084L0.802711 23.0313ZM32.6548 60V49.1102H35.9691V60H32.6548ZM32.655 49.0826C32.723 45.0136 31.3016 38.7624 26.779 33.4814C22.3039 28.2557 14.6581 23.8238 1.96345 23.5425L2.03689 20.229C15.5458 20.5284 24.1296 25.2924 29.2964 31.3256C34.4157 37.3034 36.0484 44.374 35.9688 49.1379L32.655 49.0826Z" fill="#0485FE"/>
</svg>
