<svg width="60" height="71" viewBox="0 0 60 71" fill="none" xmlns="http://www.w3.org/2000/svg">
<path d="M50.1061 38.3194C49.4678 30.4049 55.159 25.5541 58.0844 24.118C50.1061 13.7461 38.2981 16.7779 34.7876 18.8523C31.2772 20.9266 28.5645 19.8097 26.4902 18.8523C24.4158 17.8949 15.0014 14.8631 7.34212 21.0862C-6.85933 32.8942 2.71468 56.8292 9.89519 65.1267C15.6396 71.7646 20.4798 71.0838 22.1818 69.9137C33.8302 65.6054 33.0324 67.9989 41.3299 70.3924C49.9199 72.8703 57.4461 58.6908 59.9992 51.8826C56.9674 50.6593 50.7443 46.234 50.1061 38.3194Z" fill="white"/>
<path d="M29.6812 18.0551C29.043 13.4809 30.9578 3.66217 43.7231 0.981445C45.3188 8.64065 38.617 18.0551 29.6812 18.0551Z" fill="white"/>
</svg>
