<svg width="13" height="4" viewBox="0 0 13 4" fill="none" xmlns="http://www.w3.org/2000/svg">
<path d="M1 1.75C0.861929 1.75 0.75 1.86193 0.75 2C0.75 2.13807 0.861929 2.25 1 2.25L1 1.75ZM12.1768 2.17678C12.2744 2.07914 12.2744 1.92085 12.1768 1.82322L10.5858 0.232232C10.4882 0.134601 10.3299 0.134601 10.2322 0.232232C10.1346 0.329863 10.1346 0.488155 10.2322 0.585786L11.6464 2L10.2322 3.41421C10.1346 3.51184 10.1346 3.67014 10.2322 3.76777C10.3299 3.8654 10.4882 3.8654 10.5858 3.76777L12.1768 2.17678ZM1 2.25L12 2.25L12 1.75L1 1.75L1 2.25Z" fill="white"/>
</svg>
