<svg width="1920" height="6032" viewBox="0 0 1920 6032" fill="none" xmlns="http://www.w3.org/2000/svg">
<g filter="url(#filter0_f_1432_1681)">
<path d="M2003.91 424.52C1994.18 531.078 -44.6248 787.607 -165.211 776.62C-285.798 765.632 1557.5 491.289 1567.23 384.731C1576.97 278.173 1682.61 200.698 1803.2 211.685C1923.79 222.673 2013.65 317.962 2003.91 424.52Z" fill="url(#paint0_linear_1432_1681)"/>
</g>
<g filter="url(#filter1_f_1432_1681)">
<path d="M1917.01 5123.66C1870.88 5308.45 -107.894 5623.73 -215.818 5596.86C-323.743 5569.99 1480.04 5211.14 1526.18 5026.35C1572.31 4841.56 1697.2 4713.54 1805.12 4740.41C1913.05 4767.28 1963.14 4938.87 1917.01 5123.66Z" fill="url(#paint1_linear_1432_1681)"/>
</g>
<g filter="url(#filter2_f_1432_1681)">
<path d="M1280.36 3331.83C1415.86 3460.71 1359.19 3292.57 1455.02 3192.08C1550.85 3091.59 1762.89 3096.8 1627.39 2967.93C1491.89 2839.06 1304.36 2816.05 1208.53 2916.54C1112.7 3017.03 1144.86 3202.96 1280.36 3331.83Z" fill="url(#paint2_linear_1432_1681)"/>
<path d="M225.344 2596.22C360.843 2725.1 304.17 2556.96 400 2456.47C495.83 2355.98 707.874 2361.19 572.374 2232.32C436.875 2103.44 249.346 2080.43 153.516 2180.92C57.6861 2281.41 89.8444 2467.35 225.344 2596.22Z" fill="url(#paint3_linear_1432_1681)"/>
</g>
<g filter="url(#filter3_f_1432_1681)">
<path d="M1698.06 3700.14C1605.5 3537.74 338.988 3372.51 285.564 3402.88C232.14 3433.24 1412.04 3647.7 1504.59 3810.11C1597.15 3972.51 1715.49 4079.55 1768.91 4049.19C1822.34 4018.82 1790.61 3862.55 1698.06 3700.14Z" fill="url(#paint4_linear_1432_1681)"/>
</g>
<g filter="url(#filter4_f_1432_1681)">
<path d="M776.846 5278.73C838.065 5336.95 1807.7 4824.11 1851 4778.71C1894.29 4733.31 994.853 5172.54 933.634 5114.31C872.416 5056.09 787.691 5045.69 744.395 5091.09C701.099 5136.5 715.628 5220.5 776.846 5278.73Z" fill="url(#paint5_linear_1432_1681)"/>
</g>
<g filter="url(#filter5_f_1432_1681)">
<path d="M145.214 3843.91C341.101 4030.22 259.171 3787.15 397.709 3641.87C536.247 3496.6 842.791 3504.14 646.905 3317.83C451.018 3131.52 179.914 3098.26 41.3757 3243.53C-97.1624 3388.8 -50.6722 3657.61 145.214 3843.91Z" fill="url(#paint6_linear_1432_1681)"/>
</g>
<g filter="url(#filter6_f_1432_1681)">
<path d="M-92.391 5118.88C100.14 5302 94.5582 5092.83 211.481 4970.23C328.404 4847.62 523.554 4857.99 331.023 4674.88C138.492 4491.76 -112.37 4442.71 -229.293 4565.31C-346.215 4687.92 -284.922 4935.76 -92.391 5118.88Z" fill="url(#paint7_linear_1432_1681)"/>
</g>
<defs>
<filter id="filter0_f_1432_1681" x="-670.88" y="-289.352" width="3175.51" height="1566.31" filterUnits="userSpaceOnUse" color-interpolation-filters="sRGB">
<feFlood flood-opacity="0" result="BackgroundImageFix"/>
<feBlend mode="normal" in="SourceGraphic" in2="BackgroundImageFix" result="shape"/>
<feGaussianBlur stdDeviation="250" result="effect1_foregroundBlur_1432_1681"/>
</filter>
<filter id="filter1_f_1432_1681" x="-720.475" y="4236.84" width="3154.64" height="1861.63" filterUnits="userSpaceOnUse" color-interpolation-filters="sRGB">
<feFlood flood-opacity="0" result="BackgroundImageFix"/>
<feBlend mode="normal" in="SourceGraphic" in2="BackgroundImageFix" result="shape"/>
<feGaussianBlur stdDeviation="250" result="effect1_foregroundBlur_1432_1681"/>
</filter>
<filter id="filter2_f_1432_1681" x="-201.666" y="1818.36" width="2173.04" height="1860.18" filterUnits="userSpaceOnUse" color-interpolation-filters="sRGB">
<feFlood flood-opacity="0" result="BackgroundImageFix"/>
<feBlend mode="normal" in="SourceGraphic" in2="BackgroundImageFix" result="shape"/>
<feGaussianBlur stdDeviation="150" result="effect1_foregroundBlur_1432_1681"/>
</filter>
<filter id="filter3_f_1432_1681" x="-16.1963" y="3099.24" width="2111.06" height="1255.09" filterUnits="userSpaceOnUse" color-interpolation-filters="sRGB">
<feFlood flood-opacity="0" result="BackgroundImageFix"/>
<feBlend mode="normal" in="SourceGraphic" in2="BackgroundImageFix" result="shape"/>
<feGaussianBlur stdDeviation="150" result="effect1_foregroundBlur_1432_1681"/>
</filter>
<filter id="filter4_f_1432_1681" x="419.464" y="4475.41" width="1733.05" height="1107.92" filterUnits="userSpaceOnUse" color-interpolation-filters="sRGB">
<feFlood flood-opacity="0" result="BackgroundImageFix"/>
<feBlend mode="normal" in="SourceGraphic" in2="BackgroundImageFix" result="shape"/>
<feGaussianBlur stdDeviation="150" result="effect1_foregroundBlur_1432_1681"/>
</filter>
<filter id="filter5_f_1432_1681" x="-338.399" y="2853.08" width="1348.89" height="1358.35" filterUnits="userSpaceOnUse" color-interpolation-filters="sRGB">
<feFlood flood-opacity="0" result="BackgroundImageFix"/>
<feBlend mode="normal" in="SourceGraphic" in2="BackgroundImageFix" result="shape"/>
<feGaussianBlur stdDeviation="150" result="effect1_foregroundBlur_1432_1681"/>
</filter>
<filter id="filter6_f_1432_1681" x="-778.859" y="4007.56" width="1681.33" height="1673.65" filterUnits="userSpaceOnUse" color-interpolation-filters="sRGB">
<feFlood flood-opacity="0" result="BackgroundImageFix"/>
<feBlend mode="normal" in="SourceGraphic" in2="BackgroundImageFix" result="shape"/>
<feGaussianBlur stdDeviation="245.128" result="effect1_foregroundBlur_1432_1681"/>
</filter>
<linearGradient id="paint0_linear_1432_1681" x1="1803.2" y1="211.685" x2="1768.04" y2="597.575" gradientUnits="userSpaceOnUse">
<stop stop-color="#04FE9A"/>
<stop offset="1" stop-color="#0084FF"/>
</linearGradient>
<linearGradient id="paint1_linear_1432_1681" x1="1805.13" y1="4740.41" x2="1638.48" y2="5409.7" gradientUnits="userSpaceOnUse">
<stop stop-color="#04FE9A"/>
<stop offset="1" stop-color="#0084FF"/>
</linearGradient>
<linearGradient id="paint2_linear_1432_1681" x1="1208.53" y1="2916.54" x2="1698.6" y2="3383.88" gradientUnits="userSpaceOnUse">
<stop stop-color="#04FE9A"/>
<stop offset="1" stop-color="#0084FF"/>
</linearGradient>
<linearGradient id="paint3_linear_1432_1681" x1="1208.53" y1="2916.54" x2="1698.6" y2="3383.88" gradientUnits="userSpaceOnUse">
<stop stop-color="#04FE9A"/>
<stop offset="1" stop-color="#0084FF"/>
</linearGradient>
<linearGradient id="paint4_linear_1432_1681" x1="1768.91" y1="4049.19" x2="1434.41" y2="3460.68" gradientUnits="userSpaceOnUse">
<stop stop-color="#04FE9A"/>
<stop offset="1" stop-color="#0084FF"/>
</linearGradient>
<linearGradient id="paint5_linear_1432_1681" x1="744.394" y1="5091.09" x2="965.806" y2="5302.24" gradientUnits="userSpaceOnUse">
<stop stop-color="#04FE9A"/>
<stop offset="1" stop-color="#0084FF"/>
</linearGradient>
<linearGradient id="paint6_linear_1432_1681" x1="-1591.53" y1="2071.65" x2="748.357" y2="3921.23" gradientUnits="userSpaceOnUse">
<stop stop-color="#04FE9A"/>
<stop offset="1" stop-color="#0084FF"/>
</linearGradient>
<linearGradient id="paint7_linear_1432_1681" x1="-229.293" y1="4565.31" x2="467.045" y2="5229.36" gradientUnits="userSpaceOnUse">
<stop stop-color="#04FE9A"/>
<stop offset="1" stop-color="#0084FF"/>
</linearGradient>
</defs>
</svg>
