<svg width="27" height="27" viewBox="0 0 27 27" fill="none" xmlns="http://www.w3.org/2000/svg">
<path d="M10.3854 10.5457H8.62878C8.79793 9.80404 9.10372 9.1209 9.54613 8.49632C10.5611 7.13005 11.9143 6.44691 13.6059 6.44691C14.9331 6.44691 16.0262 6.83728 16.885 7.61801C17.7568 8.38572 18.1927 9.29657 18.1927 10.3505C18.1927 11.1703 18.0105 11.8339 17.6462 12.3414C17.2818 12.8489 16.7809 13.2978 16.1433 13.6882C15.4927 14.0915 14.9852 14.5079 14.6209 14.9373C14.2695 15.3667 14.0939 15.9197 14.0939 16.5964H12.3372C12.3372 15.0219 13.0204 13.8118 14.3866 12.966C14.829 12.6927 15.1674 12.465 15.4016 12.2828C15.6488 12.1007 15.883 11.8339 16.1042 11.4826C16.3254 11.1313 16.436 10.7539 16.436 10.3505C16.436 9.73898 16.1758 9.21199 15.6553 8.76958C15.1348 8.32717 14.4517 8.10596 13.6059 8.10596C12.5129 8.10596 11.6476 8.51584 11.01 9.3356C10.7237 9.69994 10.5155 10.1033 10.3854 10.5457ZM12.3763 20.461C12.1551 20.2398 12.0445 19.96 12.0445 19.6217C12.0445 19.2834 12.1551 19.0036 12.3763 18.7824C12.5975 18.5612 12.8772 18.4506 13.2155 18.4506C13.5539 18.4506 13.8336 18.5612 14.0548 18.7824C14.276 19.0036 14.3866 19.2834 14.3866 19.6217C14.3866 19.96 14.276 20.2398 14.0548 20.461C13.8336 20.6822 13.5539 20.7928 13.2155 20.7928C12.8772 20.7928 12.5975 20.6822 12.3763 20.461Z" fill="#00C99A"/>
<rect x="1.43539" y="1.41146" width="24.4239" height="24.4239" rx="4.17984" stroke="#00C99A" stroke-width="1.64031"/>
</svg>
