<svg width="27" height="28" viewBox="0 0 27 28" fill="none" xmlns="http://www.w3.org/2000/svg">
<g clip-path="url(#clip0_11_2372)">
<path d="M10.3854 11.0458H8.62878C8.79793 10.3042 9.10372 9.62101 9.54613 8.99643C10.5611 7.63016 11.9143 6.94702 13.6059 6.94702C14.9331 6.94702 16.0262 7.33739 16.885 8.11812C17.7568 8.88583 18.1927 9.79668 18.1927 10.8506C18.1927 11.6704 18.0105 12.334 17.6462 12.8415C17.2818 13.349 16.7809 13.7979 16.1433 14.1883C15.4927 14.5916 14.9852 15.008 14.6209 15.4374C14.2695 15.8668 14.0939 16.4198 14.0939 17.0965H12.3372C12.3372 15.522 13.0204 14.3119 14.3866 13.4661C14.829 13.1928 15.1674 12.9651 15.4016 12.7829C15.6488 12.6008 15.883 12.334 16.1042 11.9827C16.3254 11.6314 16.436 11.254 16.436 10.8506C16.436 10.2391 16.1758 9.7121 15.6553 9.26969C15.1348 8.82728 14.4517 8.60607 13.6059 8.60607C12.5129 8.60607 11.6476 9.01595 11.01 9.83571C10.7237 10.2001 10.5155 10.6034 10.3854 11.0458ZM12.3763 20.9611C12.1551 20.7399 12.0445 20.4601 12.0445 20.1218C12.0445 19.7835 12.1551 19.5037 12.3763 19.2825C12.5975 19.0613 12.8772 18.9507 13.2155 18.9507C13.5539 18.9507 13.8336 19.0613 14.0548 19.2825C14.276 19.5037 14.3866 19.7835 14.3866 20.1218C14.3866 20.4601 14.276 20.7399 14.0548 20.9611C13.8336 21.1823 13.5539 21.2929 13.2155 21.2929C12.8772 21.2929 12.5975 21.1823 12.3763 20.9611Z" fill="white" fill-opacity="0.7"/>
<path d="M21.6795 1.91138H5.61526C3.3068 1.91138 1.43542 3.78276 1.43542 6.09122V22.1554C1.43542 24.4639 3.3068 26.3353 5.61526 26.3353H21.6795C23.9879 26.3353 25.8593 24.4639 25.8593 22.1554V6.09122C25.8593 3.78276 23.9879 1.91138 21.6795 1.91138Z" stroke="white" stroke-opacity="0.7" stroke-width="1.64031"/>
</g>
<defs>
<clipPath id="clip0_11_2372">
<rect width="27" height="27" fill="white" transform="translate(0 0.5)"/>
</clipPath>
</defs>
</svg>
