<svg width="133" height="44" viewBox="0 0 133 44" fill="none" xmlns="http://www.w3.org/2000/svg">
<path d="M110.863 35.1743H108.887V23.1133H114.89C117.617 23.1133 119.484 24.6434 119.484 27.3256C119.484 29.9899 117.617 31.538 114.89 31.538H110.863V35.1743ZM114.707 24.8594H110.863V29.7919H114.707C116.556 29.7919 117.507 29.1077 117.507 27.3256C117.507 25.5435 116.556 24.8594 114.707 24.8594Z" fill="white"/>
<path d="M101.733 35.3543C98.0729 35.3543 95.9863 33.4461 95.9863 30.1699V23.1133H97.9447V30.0439C97.9447 32.4741 99.0429 33.4822 101.733 33.4822C104.424 33.4822 105.522 32.4741 105.522 30.0439V23.1133H107.499V30.1699C107.499 33.4461 105.412 35.3543 101.733 35.3543Z" fill="white"/>
<path d="M88.5577 35.3566C84.7141 35.3566 82.1699 32.9084 82.1699 29.1461C82.1699 25.3837 84.7141 22.9355 88.5577 22.9355C92.4379 22.9355 94.9637 25.3837 94.9637 29.1461C94.9637 32.9084 92.4379 35.3566 88.5577 35.3566ZM88.5577 33.4845C91.4678 33.4845 92.8771 32.1524 92.8771 29.1461C92.8771 26.1398 91.4678 24.7897 88.5577 24.7897C85.6475 24.7897 84.2564 26.1398 84.2564 29.1461C84.2564 32.1524 85.6475 33.4845 88.5577 33.4845Z" fill="white"/>
<path d="M72.584 35.1743H70.6074V23.1133H76.9768C79.7588 23.1133 81.4792 24.4094 81.4792 26.6596C81.4792 28.6578 80.1432 29.8818 77.8369 30.0078V30.1339C78.7887 30.3859 79.228 30.9259 79.6673 31.682L81.7172 35.1743H79.4476L77.4892 31.8441C76.9402 30.89 76.3727 30.4939 74.8354 30.4939H72.584V35.1743ZM72.584 24.8594V28.9998H76.9584C78.6057 28.9998 79.4293 28.4417 79.4293 26.9296C79.4293 25.4535 78.6057 24.8594 76.9584 24.8594H72.584Z" fill="white"/>
<path d="M62.9173 35.3566C59.3117 35.3566 56.9141 32.9084 56.9141 29.1461C56.9141 25.3837 59.4947 22.9355 63.4115 22.9355C66.8891 22.9355 69.3051 24.6637 69.3051 27.454V27.598H67.127V27.454C67.127 25.7259 65.9008 24.7897 63.3566 24.7897C60.4099 24.7897 59.0006 26.1398 59.0006 29.1461C59.0006 32.1524 60.3915 33.4845 63.2651 33.4845C66.1936 33.4845 67.3466 32.6924 67.3466 30.6583V30.4962H62.8075V29.02H69.3051V35.1766H67.5114V32.5664H67.3832C66.8707 34.3306 65.3149 35.3566 62.9173 35.3566Z" fill="white"/>
<path d="M123.659 20.4224H121.684V8.36133H123.807L129.297 15.418L130.89 17.6681H131.036L130.944 15.4899V8.36133H132.921V20.4224H130.798L125.271 13.3837L123.733 11.2596H123.587L123.659 13.3478V20.4224Z" fill="white"/>
<path d="M114.185 20.6027C110.341 20.6027 107.797 18.1544 107.797 14.3922C107.797 10.6298 110.341 8.18164 114.185 8.18164C118.065 8.18164 120.591 10.6298 120.591 14.3922C120.591 18.1544 118.065 20.6027 114.185 20.6027ZM114.185 18.7306C117.095 18.7306 118.504 17.3985 118.504 14.3922C118.504 11.3859 117.095 10.0358 114.185 10.0358C111.274 10.0358 109.883 11.3859 109.883 14.3922C109.883 17.3985 111.274 18.7306 114.185 18.7306Z" fill="white"/>
<path d="M101.979 20.6027C98.3188 20.6027 96.452 19.0186 96.452 16.4803V16.3723H98.4286V16.6603C98.4286 18.1004 99.2889 18.8205 101.979 18.8205C104.322 18.8205 105.146 18.3165 105.146 17.1824C105.146 16.1383 104.524 15.7423 102.968 15.4543L99.9661 14.9682C97.8978 14.6082 96.4336 13.6721 96.4336 11.6919C96.4336 9.94579 97.8978 8.18164 101.705 8.18164C105.292 8.18164 106.921 9.94579 106.921 12.304V12.412H104.963V12.1779C104.963 10.7019 104.066 9.9638 101.522 9.9638C99.2889 9.9638 98.4103 10.5038 98.4103 11.5839C98.4103 12.628 99.0327 12.97 100.478 13.276L103.462 13.7801C105.914 14.2122 107.122 15.3102 107.122 17.0744C107.122 18.9105 105.603 20.6027 101.979 20.6027Z" fill="white"/>
<path d="M86.508 20.4224H84.5312V8.36133H86.508V13.5098H90.2235L93.8108 8.36133H96.1536L91.8707 14.3199L96.1353 20.4224H93.7925L90.26 15.3819H86.508V20.4224Z" fill="white"/>
<path d="M83.0684 20.4224H81.0918V8.36133H83.0684V20.4224Z" fill="white"/>
<path d="M80.1784 20.4224H70.6426V8.36133H72.6193V18.6762H80.1784V20.4224Z" fill="white"/>
<path d="M58.5636 20.4223H56.3672L61.8398 8.36133H64.6218L70.0944 20.4223H67.8614L66.4521 17.2901H59.9729L58.5636 20.4223ZM62.4255 11.8716L60.7599 15.5439H65.6651L63.9995 11.8716L63.2857 10.1615H63.1393L62.4255 11.8716Z" fill="white"/>
<path d="M38 0H8.5546C4.41683 0 1.0625 3.29911 1.0625 7.36877V36.3295C1.0625 40.3992 4.41683 43.6983 8.5546 43.6983H38C42.1378 43.6983 45.4921 40.3992 45.4921 36.3295V7.36877C45.4921 3.29911 42.1378 0 38 0Z" fill="white"/>
<path d="M38 0H8.5546C4.41683 0 1.0625 3.29911 1.0625 7.36877V36.3295C1.0625 40.3992 4.41683 43.6983 8.5546 43.6983H38C42.1378 43.6983 45.4921 40.3992 45.4921 36.3295V7.36877C45.4921 3.29911 42.1378 0 38 0Z" fill="#0485FE"/>
<path fill-rule="evenodd" clip-rule="evenodd" d="M26.6722 5.25391L15.4595 7.7781L8.66375 16.1921L11.2121 16.3604L6.96484 18.8845L10.0828 27.1302L18.2376 37.5076L21.3556 31.8982L21.8354 38.4424L30.7832 27.1302L25.5029 24.2633H31.895L35.5066 26.4572L37.3607 24.1265V21.9419L36.2491 22.397H32.914L34.2109 21.1227H35.7859L37.3607 20.5765L38.4723 19.1202L36.4343 17.4818H39.584L34.9521 13.9318L34.7667 12.0203L31.2001 9.2896H25.4831L29.2206 7.60982L26.6722 5.25391ZM33.0993 12.9306H29.4864L33.0993 15.6613V12.9306Z" fill="white"/>
</svg>
