<svg width="114" height="39" viewBox="0 0 114 39" fill="none" xmlns="http://www.w3.org/2000/svg">
<path d="M49.6901 17.9902H47.8203L52.4793 7.55032H54.8478L59.5068 17.9902H57.6058L56.406 15.279H50.89L49.6901 17.9902ZM52.9779 10.5888L51.56 13.7675H55.736L54.318 10.5888L53.7103 9.10851H53.5856L52.9779 10.5888ZM68.0925 17.9902H59.9742V7.55032H61.6571V16.4788H68.0925V17.9902ZM70.5516 17.9902H68.8688V7.55032H70.5516V17.9902ZM73.4811 17.9902H71.7983V7.55032H73.4811V12.0068H76.6443L79.6983 7.55032H81.6928L78.0467 12.7079L81.6773 17.9902H79.6828L76.6754 13.6273H73.4811V17.9902ZM86.6539 18.1461C83.5375 18.1461 81.9481 16.7748 81.9481 14.5778V14.4843H83.631V14.7336C83.631 15.9802 84.3633 16.6034 86.6539 16.6034C88.6484 16.6034 89.3495 16.1671 89.3495 15.1855C89.3495 14.2817 88.8198 13.9389 87.4953 13.6896L84.9398 13.2689C83.1791 12.9573 81.9325 12.147 81.9325 10.433C81.9325 8.92153 83.1791 7.3945 86.4201 7.3945C89.4742 7.3945 90.861 8.92153 90.861 10.9628V11.0563H89.1937V10.8537C89.1937 9.57597 88.4302 8.93711 86.2643 8.93711C84.3633 8.93711 83.6154 9.40457 83.6154 10.3395C83.6154 11.2432 84.1452 11.5393 85.3761 11.8042L87.916 12.2405C90.004 12.6145 91.0324 13.565 91.0324 15.092C91.0324 16.6813 89.7391 18.1461 86.6539 18.1461ZM97.0419 18.1461C93.7697 18.1461 91.6038 16.0269 91.6038 12.7703C91.6038 9.51364 93.7697 7.3945 97.0419 7.3945C100.345 7.3945 102.496 9.51364 102.496 12.7703C102.496 16.0269 100.345 18.1461 97.0419 18.1461ZM97.0419 16.5255C99.5195 16.5255 100.719 15.3725 100.719 12.7703C100.719 10.1681 99.5195 8.99944 97.0419 8.99944C94.5644 8.99944 93.3802 10.1681 93.3802 12.7703C93.3802 15.3725 94.5644 16.5255 97.0419 16.5255ZM105.11 17.9902H103.427V7.55032H105.235L109.909 13.6584L111.265 15.6062H111.39L111.312 13.7208V7.55032H112.995V17.9902H111.187L106.481 11.8977L105.172 10.059H105.048L105.11 11.8665V17.9902ZM53.3987 31.1461C50.329 31.1461 48.2878 29.0269 48.2878 25.7703C48.2878 22.5136 50.4848 20.3945 53.8194 20.3945C56.7799 20.3945 58.8368 21.8904 58.8368 24.3056V24.4302H56.9825V24.3056C56.9825 22.8097 55.9385 21.9994 53.7726 21.9994C51.2639 21.9994 50.0641 23.1681 50.0641 25.7703C50.0641 28.3725 51.2483 29.5255 53.6947 29.5255C56.1878 29.5255 57.1695 28.8399 57.1695 27.0792V26.9389H53.3052V25.6612H58.8368V30.9902H57.3097V28.7308H57.2007C56.7644 30.2579 55.4399 31.1461 53.3987 31.1461ZM61.6267 30.9902H59.9438V20.5503H65.3663C67.7348 20.5503 69.1995 21.6722 69.1995 23.62C69.1995 25.3496 68.062 26.4091 66.0987 26.5182V26.6273C66.909 26.8454 67.2829 27.3129 67.6569 27.9673L69.4021 30.9902H67.4699L65.8026 28.1076C65.3352 27.2817 64.8521 26.9389 63.5432 26.9389H61.6267V30.9902ZM61.6267 22.0618V25.6456H65.3508C66.7531 25.6456 67.4543 25.1626 67.4543 23.8537C67.4543 22.576 66.7531 22.0618 65.3508 22.0618H61.6267ZM75.2278 31.1461C71.9556 31.1461 69.7897 29.0269 69.7897 25.7703C69.7897 22.5136 71.9556 20.3945 75.2278 20.3945C78.5312 20.3945 80.6815 22.5136 80.6815 25.7703C80.6815 29.0269 78.5312 31.1461 75.2278 31.1461ZM75.2278 29.5255C77.7053 29.5255 78.9051 28.3725 78.9051 25.7703C78.9051 23.1681 77.7053 21.9994 75.2278 21.9994C72.7502 21.9994 71.566 23.1681 71.566 25.7703C71.566 28.3725 72.7502 29.5255 75.2278 29.5255ZM86.4435 31.1461C83.3271 31.1461 81.5508 29.4944 81.5508 26.6584V20.5503H83.218V26.5494C83.218 28.6529 84.153 29.5255 86.4435 29.5255C88.7341 29.5255 89.669 28.6529 89.669 26.5494V20.5503H91.3518V26.6584C91.3518 29.4944 89.5755 31.1461 86.4435 31.1461ZM94.2143 30.9902H92.5314V20.5503H97.6423C99.964 20.5503 101.553 21.8748 101.553 24.1965C101.553 26.5026 99.964 27.8427 97.6423 27.8427H94.2143V30.9902ZM97.4865 22.0618H94.2143V26.3312H97.4865C99.0603 26.3312 99.8705 25.7391 99.8705 24.1965C99.8705 22.6539 99.0603 22.0618 97.4865 22.0618Z" fill="white"/>
<rect x="0.737305" y="0.954102" width="37.8248" height="37.8248" rx="5.48719" fill="white"/>
<rect x="0.737305" y="0.954102" width="37.8248" height="37.8248" rx="5.48719" fill="#0485FE"/>
<path fill-rule="evenodd" clip-rule="evenodd" d="M22.5424 5.50244L12.9964 7.68737L7.21101 14.9704L9.38055 15.1161L5.76465 17.301L8.41915 24.4384L15.3617 33.4209L18.0162 28.5655L18.4246 34.2301L26.0423 24.4384L21.5469 21.9569H26.9887L30.0635 23.8558L31.6419 21.8384V19.9474L30.6955 20.3414H27.8563L28.9604 19.2383H30.3012L31.6419 18.7656L32.5883 17.505L30.8533 16.0868H33.5348L29.5914 13.014L29.4336 11.3594L26.3972 8.99571H21.53L24.712 7.5417L22.5424 5.50244ZM28.014 12.1474H24.9382L28.014 14.5111V12.1474Z" fill="#F4F4F4"/>
</svg>
