<svg width="147" height="50" viewBox="0 0 147 50" fill="none" xmlns="http://www.w3.org/2000/svg">
<g clip-path="url(#clip0_1474_1720)">
<path d="M122.532 39.8066H120.348V26.2529H126.983C129.997 26.2529 132.06 27.9724 132.06 30.9866C132.06 33.9806 129.997 35.7203 126.983 35.7203H122.532V39.8066ZM126.781 28.2151H122.532V33.7581H126.781C128.824 33.7581 129.876 32.9893 129.876 30.9866C129.876 28.9839 128.824 28.2151 126.781 28.2151Z" fill="white"/>
<path d="M112.442 40.0089C108.396 40.0089 106.09 37.8646 106.09 34.1829V26.2529H108.254V34.0413C108.254 36.7723 109.468 37.9051 112.442 37.9051C115.416 37.9051 116.629 36.7723 116.629 34.0413V26.2529H118.814V34.1829C118.814 37.8646 116.508 40.0089 112.442 40.0089Z" fill="white"/>
<path d="M97.8805 40.0091C93.6323 40.0091 90.8203 37.2579 90.8203 33.0299C90.8203 28.802 93.6323 26.0508 97.8805 26.0508C102.169 26.0508 104.961 28.802 104.961 33.0299C104.961 37.2579 102.169 40.0091 97.8805 40.0091ZM97.8805 37.9053C101.097 37.9053 102.655 36.4083 102.655 33.0299C102.655 29.6516 101.097 28.1344 97.8805 28.1344C94.664 28.1344 93.1265 29.6516 93.1265 33.0299C93.1265 36.4083 94.664 37.9053 97.8805 37.9053Z" fill="white"/>
<path d="M80.2257 39.8066H78.041V26.2529H85.0808C88.1557 26.2529 90.0572 27.7094 90.0572 30.2381C90.0572 32.4836 88.5805 33.8591 86.0315 34.0008V34.1424C87.0835 34.4256 87.569 35.0324 88.0545 35.8821L90.3202 39.8066H87.8117L85.6472 36.0642C85.0404 34.9921 84.4132 34.5469 82.714 34.5469H80.2257V39.8066ZM80.2257 28.2151V32.8679H85.0605C86.8812 32.8679 87.7915 32.2408 87.7915 30.5416C87.7915 28.8828 86.8812 28.2151 85.0605 28.2151H80.2257Z" fill="white"/>
<path d="M69.5414 40.0091C65.5563 40.0091 62.9062 37.2579 62.9062 33.0299C62.9062 28.802 65.7586 26.0508 70.0876 26.0508C73.9312 26.0508 76.6016 27.9928 76.6016 31.1284V31.2903H74.1942V31.1284C74.1942 29.1864 72.8389 28.1344 70.0269 28.1344C66.7701 28.1344 65.2124 29.6516 65.2124 33.0299C65.2124 36.4083 66.7498 37.9053 69.9258 37.9053C73.1626 37.9053 74.4369 37.0151 74.4369 34.7293V34.5471H69.4201V32.8883H76.6016V39.8068H74.6191V36.8736H74.4774C73.9109 38.8561 72.1914 40.0091 69.5414 40.0091Z" fill="white"/>
<path d="M136.676 23.2276H134.492V9.67383H136.839L142.907 17.6038L144.667 20.1325H144.829L144.727 17.6846V9.67383H146.912V23.2276H144.566L138.457 15.3178L136.757 12.9308H136.596L136.676 15.2774V23.2276Z" fill="white"/>
<path d="M126.203 23.43C121.954 23.43 119.143 20.6787 119.143 16.4509C119.143 12.2229 121.954 9.47168 126.203 9.47168C130.491 9.47168 133.283 12.2229 133.283 16.4509C133.283 20.6787 130.491 23.43 126.203 23.43ZM126.203 21.3262C129.419 21.3262 130.977 19.8292 130.977 16.4509C130.977 13.0725 129.419 11.5553 126.203 11.5553C122.986 11.5553 121.449 13.0725 121.449 16.4509C121.449 19.8292 122.986 21.3262 126.203 21.3262Z" fill="white"/>
<path d="M112.715 23.43C108.67 23.43 106.606 21.6498 106.606 18.7974V18.676H108.791V18.9997C108.791 20.618 109.742 21.4272 112.715 21.4272C115.305 21.4272 116.215 20.8609 116.215 19.5864C116.215 18.413 115.527 17.968 113.808 17.6444L110.49 17.0982C108.204 16.6935 106.586 15.6417 106.586 13.4164C106.586 11.4542 108.204 9.47168 112.412 9.47168C116.377 9.47168 118.177 11.4542 118.177 14.1042V14.2255H116.013V13.9625C116.013 12.3038 115.022 11.4744 112.21 11.4744C109.742 11.4744 108.771 12.0813 108.771 13.295C108.771 14.4684 109.459 14.8527 111.057 15.1965L114.354 15.763C117.065 16.2485 118.4 17.4825 118.4 19.465C118.4 21.5284 116.721 23.43 112.715 23.43Z" fill="white"/>
<path d="M95.6145 23.2276H93.4297V9.67383H95.6145V15.4595H99.7212L103.686 9.67383H106.275L101.542 16.3698L106.255 23.2276H103.666L99.7615 17.5633H95.6145V23.2276Z" fill="white"/>
<path d="M91.8116 23.2276H89.627V9.67383H91.8116V23.2276Z" fill="white"/>
<path d="M88.6197 23.2276H78.0801V9.67383H80.2649V21.2653H88.6197V23.2276Z" fill="white"/>
<path d="M64.7284 23.2285H62.3008L68.3494 9.6748H71.4243L77.4729 23.2285H75.0049L73.4473 19.7086H66.2861L64.7284 23.2285ZM68.9968 13.6195L67.1559 17.7463H72.5774L70.7364 13.6195L69.9476 11.6977H69.7858L68.9968 13.6195Z" fill="white"/>
<path d="M41.9995 0.277344H9.45457C4.88124 0.277344 1.17383 3.98476 1.17383 8.55808V41.103C1.17383 45.6763 4.88124 49.3838 9.45457 49.3838H41.9995C46.5728 49.3838 50.2802 45.6763 50.2802 41.103V8.55808C50.2802 3.98476 46.5728 0.277344 41.9995 0.277344Z" fill="white"/>
<path fill-rule="evenodd" clip-rule="evenodd" d="M29.4811 6.18164L17.088 9.01823L9.57696 18.4735L12.3936 18.6626L7.69922 21.4992L11.1454 30.7654L20.1586 42.427L23.6048 36.1234L24.1351 43.4776L34.0248 30.7654L28.1887 27.5437H35.2536L39.2453 30.009L41.2946 27.3899V24.935L40.066 25.4464H36.3799L37.8133 24.0144H39.554L41.2946 23.4006L42.5233 21.7641L40.2707 19.9228H43.7519L38.6325 15.9335L38.4276 13.7854L34.4856 10.7168H28.1667L32.2977 8.82912L29.4811 6.18164ZM36.5846 14.8084H32.5914L36.5846 17.8771V14.8084Z" fill="#232323"/>
</g>
<defs>
<clipPath id="clip0_1474_1720">
<rect width="147" height="49.4455" fill="white" transform="translate(0 0.277344)"/>
</clipPath>
</defs>
</svg>
