<svg width="110" height="37" viewBox="0 0 110 37" fill="none" xmlns="http://www.w3.org/2000/svg">
<path d="M91.6915 29.5797H90.0566V19.4375H95.0218C97.2773 19.4375 98.8213 20.7242 98.8213 22.9797C98.8213 25.2201 97.2773 26.5219 95.0218 26.5219H91.6915V29.5797ZM94.8704 20.9058H91.6915V25.0536H94.8704C96.3993 25.0536 97.1865 24.4783 97.1865 22.9797C97.1865 21.4811 96.3993 20.9058 94.8704 20.9058Z" fill="white"/>
<path d="M84.1399 29.7312C81.1124 29.7312 79.3867 28.1266 79.3867 25.3716V19.4376H81.0064V25.2656C81.0064 27.3092 81.9147 28.1569 84.1399 28.1569C86.3652 28.1569 87.2734 27.3092 87.2734 25.2656V19.4376H88.9083V25.3716C88.9083 28.1266 87.1826 29.7312 84.1399 29.7312Z" fill="white"/>
<path d="M73.244 29.7311C70.0651 29.7311 67.9609 27.6724 67.9609 24.5086C67.9609 21.3448 70.0651 19.2861 73.244 19.2861C76.4532 19.2861 78.5422 21.3448 78.5422 24.5086C78.5422 27.6724 76.4532 29.7311 73.244 29.7311ZM73.244 28.1568C75.6509 28.1568 76.8165 27.0366 76.8165 24.5086C76.8165 21.9806 75.6509 20.8453 73.244 20.8453C70.8371 20.8453 69.6866 21.9806 69.6866 24.5086C69.6866 27.0366 70.8371 28.1568 73.244 28.1568Z" fill="white"/>
<path d="M60.0323 29.5798H58.3975V19.4376H63.6654C65.9663 19.4376 67.3892 20.5275 67.3892 22.4197C67.3892 24.1 66.2842 25.1293 64.3768 25.2353V25.3413C65.164 25.5532 65.5273 26.0073 65.8906 26.6431L67.586 29.5798H65.7089L64.0892 26.7794C63.6351 25.9771 63.1658 25.644 61.8943 25.644H60.0323V29.5798ZM60.0323 20.9059V24.3876H63.6502C65.0126 24.3876 65.6938 23.9183 65.6938 22.6468C65.6938 21.4055 65.0126 20.9059 63.6502 20.9059H60.0323Z" fill="white"/>
<path d="M52.0374 29.7311C49.0553 29.7311 47.0723 27.6724 47.0723 24.5086C47.0723 21.3448 49.2067 19.2861 52.4461 19.2861C55.3223 19.2861 57.3205 20.7393 57.3205 23.0857V23.2068H55.5191V23.0857C55.5191 21.6325 54.5049 20.8453 52.4007 20.8453C49.9636 20.8453 48.798 21.9806 48.798 24.5086C48.798 27.0366 49.9484 28.1568 52.325 28.1568C54.7471 28.1568 55.7007 27.4907 55.7007 25.7802V25.6439H51.9466V24.4026H57.3205V29.5797H55.837V27.3848H55.731C55.3071 28.8683 54.0204 29.7311 52.0374 29.7311Z" fill="white"/>
<path d="M102.275 17.1739H100.641V7.03162H102.397L106.938 12.9656L108.255 14.8578H108.376L108.3 13.0261V7.03162H109.935V17.1739H108.179L103.608 11.255L102.336 9.46879H102.215L102.275 11.2248V17.1739Z" fill="white"/>
<path d="M94.4373 17.3252C91.2584 17.3252 89.1543 15.2664 89.1543 12.1027C89.1543 8.93891 91.2584 6.88019 94.4373 6.88019C97.6465 6.88019 99.7355 8.93891 99.7355 12.1027C99.7355 15.2664 97.6465 17.3252 94.4373 17.3252ZM94.4373 15.7509C96.8442 15.7509 98.0098 14.6307 98.0098 12.1027C98.0098 9.57469 96.8442 8.43937 94.4373 8.43937C92.0305 8.43937 90.88 9.57469 90.88 12.1027C90.88 14.6307 92.0305 15.7509 94.4373 15.7509Z" fill="white"/>
<path d="M84.3445 17.3252C81.317 17.3252 79.773 15.9931 79.773 13.8586V13.7678H81.4078V14.01C81.4078 15.221 82.1193 15.8265 84.3445 15.8265C86.2821 15.8265 86.9633 15.4027 86.9633 14.449C86.9633 13.571 86.4487 13.238 85.162 12.9958L82.6794 12.5871C80.9688 12.2843 79.7578 11.4972 79.7578 9.83203C79.7578 8.36368 80.9688 6.88019 84.1175 6.88019C87.0844 6.88019 88.4317 8.36368 88.4317 10.3467V10.4375H86.812V10.2407C86.812 8.99946 86.0702 8.37882 83.9661 8.37882C82.1193 8.37882 81.3927 8.83295 81.3927 9.7412C81.3927 10.6192 81.9074 10.9068 83.1032 11.1641L85.5707 11.588C87.5991 11.9513 88.5982 12.8747 88.5982 14.3582C88.5982 15.9022 87.3418 17.3252 84.3445 17.3252Z" fill="white"/>
<path d="M71.5499 17.1739H69.915V7.03162H71.5499V11.361H74.6229L77.5898 7.03162H79.5275L75.9852 12.0422L79.5123 17.1739H77.5747L74.6531 12.9353H71.5499V17.1739Z" fill="white"/>
<path d="M68.7032 17.174H67.0684V7.03172H68.7032V17.174Z" fill="white"/>
<path d="M66.3145 17.1739H58.4277V7.03162H60.0626V15.7055H66.3145V17.1739Z" fill="white"/>
<path d="M48.4357 17.174H46.6191L51.1453 7.0318H53.4462L57.9724 17.174H56.1256L54.96 14.5401H49.6013L48.4357 17.174ZM51.6297 9.98364L50.2522 13.0717H54.3091L52.9315 9.98364L52.3412 8.54556H52.2201L51.6297 9.98364Z" fill="white"/>
<rect x="0.87793" y="0.000228882" width="36.7463" height="36.7463" rx="6.19647" fill="white"/>
<rect x="0.87793" y="0.000228882" width="36.7463" height="36.7463" rx="6.19647" fill="white"/>
<path fill-rule="evenodd" clip-rule="evenodd" d="M22.0591 4.41869L12.7854 6.54131L7.16488 13.6167L9.27256 13.7582L5.75977 15.8808L8.33857 22.8147L15.0831 31.5411L17.6619 26.8241L18.0587 32.3272L25.4592 22.8147L21.092 20.4039H26.3787L29.3657 22.2487L30.8992 20.2888V18.4518L29.9798 18.8345H27.2215L28.2941 17.7629H29.5967L30.8992 17.3036L31.8186 16.079L30.133 14.7012H32.738L28.9071 11.716L28.7538 10.1086L25.804 7.81234H21.0756L24.1668 6.3998L22.0591 4.41869ZM27.3747 10.8741H24.3866L27.3747 13.1704V10.8741Z" fill="#232323"/>
</svg>
