<svg width="415" height="152" viewBox="0 0 415 152" fill="none" xmlns="http://www.w3.org/2000/svg">
<path d="M294.743 149.521H295.297V148.966V129.66H316.373C323.802 129.66 330.115 127.516 334.578 123.47C339.047 119.418 341.605 113.51 341.605 106.1C341.605 98.6415 339.048 92.7319 334.577 88.6917C330.114 84.6581 323.8 82.539 316.373 82.539H284.125H283.57V83.0932V148.966V149.521H284.125H294.743ZM295.297 119.015V93.1843H315.39C320.304 93.1843 323.904 94.1122 326.275 96.1363C328.627 98.1438 329.878 101.326 329.878 106.1C329.878 110.874 328.627 114.056 326.275 116.063C323.904 118.087 320.304 119.015 315.39 119.015H295.297Z" fill="#0485FE" stroke="#0485FE" stroke-width="1.10845"/>
<path d="M214.824 82.539H214.27V83.0932V121.634C214.27 130.7 217.112 137.941 222.51 142.91C227.902 147.873 235.77 150.504 245.696 150.504C255.669 150.504 263.562 147.873 268.966 142.91C274.377 137.941 277.22 130.7 277.22 121.634V83.0932V82.539H276.666H266.048H265.493V83.0932V120.946C265.493 127.514 264.032 132.022 260.915 134.906C257.787 137.799 252.872 139.17 245.696 139.17C238.519 139.17 233.604 137.799 230.476 134.906C227.359 132.022 225.898 127.514 225.898 120.946V83.0932V82.539H225.344H214.824Z" fill="#0485FE" stroke="#0485FE" stroke-width="1.10845"/>
<path d="M140.06 116.029C140.06 126.429 143.521 135.059 149.639 141.089C155.756 147.119 164.482 150.503 174.927 150.503C185.469 150.503 194.221 147.119 200.338 141.089C206.457 135.058 209.893 126.428 209.893 116.029C209.893 105.63 206.457 96.9996 200.338 90.9687C194.221 84.9386 185.469 81.555 174.927 81.555C164.482 81.555 155.756 84.9393 149.639 90.9687C143.521 96.9989 140.06 105.629 140.06 116.029ZM197.576 116.029C197.576 124.165 195.7 129.917 191.998 133.643C188.297 137.368 182.668 139.17 174.927 139.17C167.187 139.17 161.583 137.368 157.907 133.644C154.229 129.919 152.377 124.166 152.377 116.029C152.377 107.892 154.229 102.113 157.908 98.3635C161.585 94.6159 167.188 92.7902 174.927 92.7902C182.666 92.7902 188.295 94.6159 191.997 98.3647C195.7 102.115 197.576 107.894 197.576 116.029Z" fill="#0485FE" stroke="#0485FE" stroke-width="1.10845"/>
<path d="M89.1179 149.521H89.6721V148.966V123.958H101.211C105.302 123.958 108.019 124.496 110.063 125.622C112.097 126.743 113.533 128.486 114.985 131.051L114.987 131.055L125.507 149.244L125.668 149.521H125.987H138.179H139.139L138.659 148.689L127.648 129.618C127.648 129.617 127.648 129.617 127.647 129.616C126.459 127.537 125.247 125.711 123.662 124.228C122.288 122.942 120.648 121.929 118.531 121.219C124.272 120.714 128.895 118.877 132.142 115.845C135.614 112.603 137.455 108.047 137.455 102.462C137.455 96.1641 135.079 91.1551 130.755 87.7342C126.448 84.3267 120.266 82.539 112.714 82.539H78.4995H77.9453V83.0932V148.966V149.521H78.4995H89.1179ZM112.616 114.689H89.6721V93.1843H112.616C116.992 93.1843 120.154 93.9902 122.219 95.6882C124.26 97.3664 125.335 100.006 125.335 103.937C125.335 107.97 124.258 110.605 122.222 112.257C120.158 113.93 116.998 114.689 112.616 114.689Z" fill="#0485FE" stroke="#0485FE" stroke-width="1.10845"/>
<path d="M71.5043 108.128H72.0586V107.574V106.787C72.0586 98.9922 68.7315 92.6609 63.0168 88.2931C57.3162 83.936 49.2729 81.555 39.8459 81.555C29.2073 81.555 20.3346 84.9374 14.1185 90.9656C7.90066 96.9954 4.38865 105.626 4.38865 116.029C4.38865 126.42 7.64684 135.045 13.4028 141.077C19.1611 147.111 27.3748 150.503 37.1913 150.503C43.7087 150.503 49.1295 149.085 53.2838 146.408C57.0853 143.959 59.798 140.472 61.3149 136.122V148.966V149.52H61.8692H71.5043H72.0586V148.966V115.341V114.787H71.5043H36.6014H36.0471V115.341V123.403V123.957H36.6014H60.4301V124.288C60.4301 129.735 58.9183 133.388 55.6022 135.719C52.2347 138.085 46.9022 139.17 39.0593 139.17C31.4185 139.17 25.8644 137.368 22.2124 133.645C18.5581 129.92 16.7054 124.166 16.7054 116.029C16.7054 107.894 18.5818 102.116 22.3082 98.366C26.0338 94.6167 31.7119 92.7902 39.5509 92.7902C46.3304 92.7902 51.2561 94.061 54.475 96.4192C57.6631 98.7548 59.2502 102.212 59.2502 106.787V107.574V108.128H59.8045H71.5043Z" fill="#0485FE" stroke="#0485FE" stroke-width="1.10845"/>
<path d="M363.485 68.946H364.039V68.3918V29.7527V29.7431L364.039 29.7336L363.669 19.0096L371.686 30.2707L371.692 30.2796L371.698 30.2881L401.391 68.7306L401.557 68.946H401.829H413.234H413.788V68.3918V2.51852V1.9643H413.234H402.616H402.062V2.51852V41.4526V41.464L402.062 41.4755L402.525 52.6718L394.222 40.7427L394.215 40.7324L394.207 40.7225L364.712 2.18169L364.545 1.9643H364.272H352.867H352.312V2.51852V68.3918V68.946H352.867H363.485Z" fill="#0485FE" stroke="#0485FE" stroke-width="1.10845"/>
<path d="M277.709 35.4533C277.709 45.8536 281.171 54.4834 287.289 60.5136C293.406 66.543 302.132 69.9273 312.577 69.9273C323.119 69.9273 331.87 66.5438 337.988 60.5136C344.107 54.4827 347.542 45.8525 347.542 35.4533C347.542 25.0541 344.107 16.4239 337.988 10.393C331.87 4.36284 323.119 0.979254 312.577 0.979254C302.132 0.979254 293.406 4.36359 287.289 10.393C281.171 16.4232 277.709 25.053 277.709 35.4533ZM335.226 35.4533C335.226 43.5888 333.349 49.3417 329.647 53.0672C325.946 56.7918 320.318 58.5938 312.577 58.5938C304.836 58.5938 299.233 56.7918 295.557 53.0685C291.879 49.3435 290.026 43.5906 290.026 35.4533C290.026 27.3161 291.879 21.5376 295.558 17.7877C299.234 14.0401 304.838 12.2145 312.577 12.2145C320.316 12.2145 325.945 14.0401 329.646 17.789C333.349 21.5394 335.226 27.3178 335.226 35.4533Z" fill="#0485FE" stroke="#0485FE" stroke-width="1.10845"/>
<path d="M217.332 45.7141H216.778V46.2683V46.8582C216.778 53.9359 219.346 59.7354 224.462 63.7503C229.56 67.75 237.121 69.9273 247.024 69.9273C256.839 69.9273 263.882 67.5978 268.484 63.9321C273.095 60.2578 275.206 55.2775 275.206 50.1027C275.206 45.1459 273.53 41.0839 270.135 37.9698C266.759 34.8728 261.728 32.7546 255.086 31.5649L255.082 31.5642L239.067 28.8133C235.188 27.9779 232.528 27.1123 230.832 25.8088C229.192 24.5483 228.406 22.8369 228.406 20.1156C228.406 18.7155 228.686 17.5242 229.259 16.5186C229.83 15.5147 230.714 14.6607 231.979 13.9647C234.531 12.5598 238.592 11.8212 244.566 11.8212C251.37 11.8212 255.848 12.8296 258.618 14.746C261.337 16.6278 262.496 19.4504 262.496 23.3601V24.6383V25.1925H263.05H273.57H274.125V24.6383V24.0484C274.125 17.4776 271.888 11.6855 267.151 7.5438C262.423 3.40982 255.271 0.979254 245.55 0.979254C235.243 0.979254 228.028 3.40679 223.378 7.1096C218.717 10.8203 216.68 15.7758 216.68 20.7055C216.68 26.2671 218.711 30.4055 222.195 33.3916C225.656 36.3583 230.51 38.1536 236.113 39.1452L236.113 39.1453L236.119 39.1463L252.237 41.7999C256.406 42.585 259.212 43.5013 260.979 44.8637C262.692 46.1853 263.479 47.9703 263.479 50.6926C263.479 52.1763 263.214 53.4128 262.658 54.4398C262.104 55.4622 261.242 56.315 259.983 57.0024C257.434 58.3937 253.303 59.0854 247.024 59.0854C239.821 59.0854 235.193 58.0999 232.374 56.2283C229.614 54.3958 228.505 51.6529 228.505 47.8414V46.2683V45.7141H227.951H217.332Z" fill="#0485FE" stroke="#0485FE" stroke-width="1.10845"/>
<path d="M163.924 68.946H164.478V68.3918V41.4169H183.788L202.598 68.7063L202.764 68.946H203.055H215.639H216.693L216.096 68.0779L193.407 35.0663L216.19 2.83846L216.808 1.9643H215.738H203.153H202.861L202.696 2.20522L183.591 30.0833H164.478V2.51852V1.9643H163.924H153.306H152.751V2.51852V68.3918V68.946H153.306H163.924Z" fill="#0485FE" stroke="#0485FE" stroke-width="1.10845"/>
<path d="M145.435 68.946H145.989V68.3918V2.51852V1.9643H145.435H134.816H134.262V2.51852V68.3918V68.946H134.816H145.435Z" fill="#0485FE" stroke="#0485FE" stroke-width="1.10845"/>
<path d="M129.92 68.946H130.474V68.3918V58.8549V58.3007H129.92H89.8684V2.51852V1.9643H89.3142H78.6958H78.1416V2.51852V68.3918V68.946H78.6958H129.92Z" fill="#0485FE" stroke="#0485FE" stroke-width="1.10845"/>
<path d="M13.7982 68.946H14.159L14.305 68.6161L21.7295 51.8386H55.8126L63.2371 68.6161L63.3831 68.946H63.7439H75.7387H76.593L76.2448 68.1659L46.8477 2.29266L46.7011 1.9643H46.3415H31.3972H31.0376L30.8911 2.29266L1.49389 68.1659L1.14576 68.946H2H13.7982ZM35.0495 21.9164L35.0529 21.9088L35.0561 21.9011L38.7494 12.9046H38.7927L42.486 21.9011L42.4892 21.9088L42.4926 21.9164L51.0916 41.1933H26.4505L35.0495 21.9164Z" fill="#0485FE" stroke="#0485FE" stroke-width="1.10845"/>
</svg>
