<svg width="26" height="26" viewBox="0 0 26 26" fill="none" xmlns="http://www.w3.org/2000/svg">
<path d="M13.8587 1C13.8587 0.525772 13.4742 0.141335 13 0.141335C12.5258 0.141335 12.1413 0.525772 12.1413 1L13.8587 1ZM12.3928 25.6072C12.7282 25.9425 13.2718 25.9425 13.6072 25.6072L19.0717 20.1427C19.407 19.8073 19.407 19.2636 19.0717 18.9283C18.7364 18.593 18.1927 18.593 17.8573 18.9283L13 23.7857L8.14266 18.9283C7.80733 18.593 7.26365 18.593 6.92832 18.9283C6.59299 19.2636 6.59299 19.8073 6.92832 20.1427L12.3928 25.6072ZM12.1413 1L12.1413 25L13.8587 25L13.8587 1L12.1413 1Z" fill="white"/>
</svg>
