<svg width="15" height="7" viewBox="0 0 15 7" fill="none" xmlns="http://www.w3.org/2000/svg">
<path d="M1.17394 3.00089C0.924701 3.00089 0.722656 3.20296 0.722656 3.45218C0.722656 3.7014 0.924701 3.90348 1.17394 3.90348V3.00089ZM14.1065 3.7713C14.2827 3.59503 14.2827 3.30934 14.1065 3.13306L11.2346 0.261143C11.0583 0.0849228 10.7725 0.0849228 10.5963 0.261143C10.4201 0.437363 10.4201 0.723109 10.5963 0.899382L13.1492 3.45218L10.5963 6.00501C10.4201 6.18124 10.4201 6.46698 10.5963 6.64321C10.7725 6.81945 11.0583 6.81945 11.2346 6.64321L14.1065 3.7713ZM1.17394 3.90348H13.7874V3.00089H1.17394V3.90348Z" fill="#2376A6"/>
</svg>
