<svg width="17" height="16" viewBox="0 0 17 16" fill="none" xmlns="http://www.w3.org/2000/svg">
<path d="M16 15.5L12.3809 11.8809M12.3809 11.8809C13 11.2618 13.491 10.5269 13.8261 9.71799C14.1611 8.90918 14.3336 8.04226 14.3336 7.16676C14.3336 6.29127 14.1611 5.42435 13.8261 4.61551C13.491 3.80666 13 3.07172 12.3809 2.45265C11.7618 1.83359 11.0269 1.34252 10.218 1.00748C9.40917 0.67244 8.54225 0.5 7.66676 0.5C6.79127 0.5 5.92435 0.67244 5.1155 1.00748C4.30665 1.34252 3.57171 1.83359 2.95265 2.45265C1.70239 3.70291 1 5.39863 1 7.16676C1 8.9349 1.70239 10.6306 2.95265 11.8809C4.20291 13.1311 5.89862 13.8335 7.66676 13.8335C9.4349 13.8335 11.1306 13.1311 12.3809 11.8809Z" stroke="white" stroke-linecap="round" stroke-linejoin="round"/>
</svg>
